ScienceGothic-BlkCndCtr.ufo
<glyph name="dollar" format="2">
  <advance width="1272"/>
  <unicode hex="0024"/>
  <outline>
    <contour>
      <point x="603" y="-160" type="line"/>
      <point x="665" y="-160" type="line"/>
      <point x="665" y="10" type="line"/>
      <point x="820" y="10" type="line" smooth="yes"/>
      <point x="916" y="10"/>
      <point x="1068.75" y="37.625"/>
      <point x="1175.25" y="113.375"/>
      <point x="1232" y="247.5"/>
      <point x="1232" y="354" type="qcurve" smooth="yes"/>
      <point x="1232" y="398" type="line" smooth="yes"/>
      <point x="1232" y="501.5"/>
      <point x="1171.88" y="629.875"/>
      <point x="1063.12" y="701.125"/>
      <point x="911.5" y="726"/>
      <point x="820" y="726" type="qcurve" smooth="yes"/>
      <point x="665" y="726" type="line"/>
      <point x="665" y="1354" type="line"/>
      <point x="686" y="1354" type="line"/>
      <point x="686" y="1354"/>
      <point x="686" y="1354"/>
      <point x="686" y="1354" type="qcurve"/>
      <point x="686" y="958" type="line"/>
      <point x="1212" y="1006" type="line"/>
      <point x="1212" y="1062" type="line" smooth="yes"/>
      <point x="1212" y="1164.75"/>
      <point x="1152.5" y="1292.94"/>
      <point x="1044.5" y="1364.56"/>
      <point x="893.5" y="1390"/>
      <point x="802" y="1390" type="qcurve" smooth="yes"/>
      <point x="665" y="1390" type="line"/>
      <point x="665" y="1560" type="line"/>
      <point x="603" y="1560" type="line"/>
      <point x="603" y="1390" type="line"/>
      <point x="470" y="1390" type="line" smooth="yes"/>
      <point x="378.5" y="1390"/>
      <point x="225.625" y="1363.88"/>
      <point x="115.375" y="1291.12"/>
      <point x="54" y="1161.5"/>
      <point x="54" y="1058" type="qcurve" smooth="yes"/>
      <point x="54" y="1034" type="line" smooth="yes"/>
      <point x="54" y="928.25"/>
      <point x="110.062" y="794.312"/>
      <point x="215.438" y="718.188"/>
      <point x="366.75" y="690"/>
      <point x="462" y="690" type="qcurve" smooth="yes"/>
      <point x="603" y="690" type="line"/>
      <point x="603" y="46" type="line"/>
      <point x="580" y="46" type="line"/>
      <point x="580" y="46"/>
      <point x="580" y="46"/>
      <point x="580" y="46" type="qcurve"/>
      <point x="580" y="462" type="line"/>
      <point x="34" y="410" type="line"/>
      <point x="34" y="352" type="line" smooth="yes"/>
      <point x="34" y="246.25"/>
      <point x="90.6875" y="112.938"/>
      <point x="196.812" y="37.5625"/>
      <point x="348.75" y="10"/>
      <point x="444" y="10" type="qcurve" smooth="yes"/>
      <point x="603" y="10" type="line"/>
    </contour>
    <contour>
      <point x="603" y="726" type="line"/>
      <point x="580" y="726" type="line"/>
      <point x="580" y="726"/>
      <point x="580" y="726"/>
      <point x="580" y="726" type="qcurve"/>
      <point x="580" y="1354" type="line"/>
      <point x="580" y="1354"/>
      <point x="580" y="1354"/>
      <point x="580" y="1354" type="qcurve"/>
      <point x="603" y="1354" type="line"/>
    </contour>
    <contour>
      <point x="665" y="46" type="line"/>
      <point x="665" y="690" type="line"/>
      <point x="686" y="690" type="line"/>
      <point x="686" y="690"/>
      <point x="686" y="690"/>
      <point x="686" y="690" type="qcurve"/>
      <point x="686" y="46" type="line"/>
      <point x="686" y="46"/>
      <point x="686" y="46"/>
      <point x="686" y="46" type="qcurve"/>
    </contour>
  </outline>
</glyph>
<glyph name="percent" format="2">
  <advance width="1729"/>
  <unicode hex="0025"/>
  <outline>
    <contour>
      <point x="293" y="614" type="qcurve" smooth="yes"/>
      <point x="509" y="614" type="line" smooth="yes"/>
      <point x="619.926" y="614"/>
      <point x="740" y="691.792"/>
      <point x="740" y="808" type="qcurve" smooth="yes"/>
      <point x="740" y="1223" type="line" smooth="yes"/>
      <point x="740" y="1336.19"/>
      <point x="614.644" y="1410"/>
      <point x="509" y="1410" type="qcurve" smooth="yes"/>
      <point x="293" y="1410" type="line" smooth="yes"/>
      <point x="187.356" y="1410"/>
      <point x="64" y="1336.19"/>
      <point x="64" y="1223" type="qcurve" smooth="yes"/>
      <point x="64" y="808" type="line" smooth="yes"/>
      <point x="64" y="692.546"/>
      <point x="182.074" y="614"/>
    </contour>
    <contour>
      <point x="358" y="644" type="line"/>
      <point x="358" y="644"/>
      <point x="358" y="644"/>
      <point x="358" y="644" type="qcurve"/>
      <point x="358" y="1380" type="line"/>
      <point x="358" y="1380"/>
      <point x="358" y="1380"/>
      <point x="358" y="1380" type="qcurve"/>
      <point x="446" y="1380" type="line"/>
      <point x="446" y="1380"/>
      <point x="446" y="1380"/>
      <point x="446" y="1380" type="qcurve"/>
      <point x="446" y="644" type="line"/>
      <point x="446" y="644"/>
      <point x="446" y="644"/>
      <point x="446" y="644" type="qcurve"/>
    </contour>
    <contour>
      <point x="1150" y="1400" type="line"/>
      <point x="546" y="0" type="line"/>
      <point x="579" y="0" type="line"/>
      <point x="1183" y="1400" type="line"/>
    </contour>
    <contour>
      <point x="1218" y="-6" type="qcurve" smooth="yes"/>
      <point x="1434" y="-6" type="line" smooth="yes"/>
      <point x="1544.93" y="-6"/>
      <point x="1665" y="71.7916"/>
      <point x="1665" y="188" type="qcurve" smooth="yes"/>
      <point x="1665" y="603" type="line" smooth="yes"/>
      <point x="1665" y="716.19"/>
      <point x="1539.64" y="790"/>
      <point x="1434" y="790" type="qcurve" smooth="yes"/>
      <point x="1218" y="790" type="line" smooth="yes"/>
      <point x="1112.36" y="790"/>
      <point x="989" y="716.19"/>
      <point x="989" y="603" type="qcurve" smooth="yes"/>
      <point x="989" y="188" type="line" smooth="yes"/>
      <point x="989" y="72.5462"/>
      <point x="1107.07" y="-6"/>
    </contour>
    <contour>
      <point x="1283" y="24" type="line"/>
      <point x="1283" y="24"/>
      <point x="1283" y="24"/>
      <point x="1283" y="24" type="qcurve"/>
      <point x="1283" y="760" type="line"/>
      <point x="1283" y="760"/>
      <point x="1283" y="760"/>
      <point x="1283" y="760" type="qcurve"/>
      <point x="1371" y="760" type="line"/>
      <point x="1371" y="760"/>
      <point x="1371" y="760"/>
      <point x="1371" y="760" type="qcurve"/>
      <point x="1371" y="24" type="line"/>
      <point x="1371" y="24"/>
      <point x="1371" y="24"/>
      <point x="1371" y="24" type="qcurve"/>
    </contour>
  </outline>
</glyph>
<glyph name="one" format="2">
  <advance width="860"/>
  <unicode hex="0031"/>
  <outline>
    <contour>
      <point x="208" y="0" type="line"/>
      <point x="780" y="0" type="line"/>
      <point x="780" y="1418" type="line"/>
      <point x="24" y="1320" type="line"/>
      <point x="24" y="1283" type="line"/>
      <point x="208" y="1307" type="line"/>
    </contour>
  </outline>
  <guideline angle="90" color="0.4,0.4,0.4,1" name="halfwidth" x="430" y="0"/>
</glyph>
<glyph name="four" format="2">
  <advance width="1360"/>
  <unicode hex="0034"/>
  <outline>
    <contour>
      <point x="10" y="366" type="line"/>
      <point x="637" y="366" type="line"/>
      <point x="637" y="0" type="line"/>
      <point x="1209" y="0" type="line"/>
      <point x="1209" y="366" type="line"/>
      <point x="1308" y="366" type="line"/>
      <point x="1308" y="402" type="line"/>
      <point x="1209" y="402" type="line"/>
      <point x="1209" y="1400" type="line"/>
      <point x="859" y="1400" type="line"/>
      <point x="10" y="392" type="line"/>
    </contour>
    <contour>
      <point x="66" y="402" type="line"/>
      <point x="637" y="1078" type="line"/>
      <point x="637" y="402" type="line"/>
    </contour>
  </outline>
</glyph>
<glyph name="semicolon" format="2">
  <advance width="674"/>
  <unicode hex="003B"/>
  <outline>
    <contour>
      <point x="269" y="-336" type="line"/>
      <point x="296" y="-342" type="line"/>
      <point x="582" y="36" type="line"/>
      <point x="461" y="25" type="line"/>
    </contour>
    <contour>
      <point x="72" y="145" type="line" smooth="yes"/>
      <point x="72" y="54.448"/>
      <point x="122.448" y="4"/>
      <point x="213" y="4" type="qcurve" smooth="yes"/>
      <point x="461" y="4" type="line" smooth="yes"/>
      <point x="551" y="4"/>
      <point x="602" y="55"/>
      <point x="602" y="145" type="qcurve" smooth="yes"/>
      <point x="602" y="315" type="line" smooth="yes"/>
      <point x="602" y="404.043"/>
      <point x="551.552" y="454"/>
      <point x="461" y="454" type="qcurve" smooth="yes"/>
      <point x="213" y="454" type="line" smooth="yes"/>
      <point x="123" y="454"/>
      <point x="72" y="403.5"/>
      <point x="72" y="315" type="qcurve" smooth="yes"/>
    </contour>
    <contour>
      <point x="72" y="715" type="line" smooth="yes"/>
      <point x="72" y="624.448"/>
      <point x="122.448" y="574"/>
      <point x="213" y="574" type="qcurve" smooth="yes"/>
      <point x="461" y="574" type="line" smooth="yes"/>
      <point x="551" y="574"/>
      <point x="602" y="625"/>
      <point x="602" y="715" type="qcurve" smooth="yes"/>
      <point x="602" y="894" type="line" smooth="yes"/>
      <point x="602" y="983.797"/>
      <point x="550.552" y="1034"/>
      <point x="460" y="1034" type="qcurve" smooth="yes"/>
      <point x="213" y="1034" type="line" smooth="yes"/>
      <point x="123" y="1034"/>
      <point x="72" y="983.75"/>
      <point x="72" y="896" type="qcurve" smooth="yes"/>
    </contour>
  </outline>
</glyph>
<glyph name="D" format="2">
  <advance width="1367"/>
  <unicode hex="0044"/>
  <anchor x="615.15" y="1550" name="top"/>
  <anchor x="615.15" y="-150" name="bottom"/>
  <outline>
    <contour>
      <point x="652" y="36" type="line"/>
      <point x="652" y="1364" type="line"/>
      <point x="662" y="1364" type="line" smooth="yes"/>
      <point x="687.125" y="1364"/>
      <point x="727.469" y="1295.66"/>
      <point x="755.781" y="1142.09"/>
      <point x="771" y="894.875"/>
      <point x="771" y="716" type="qcurve" smooth="yes"/>
      <point x="771" y="534.125"/>
      <point x="756.906" y="276.156"/>
      <point x="729.344" y="112.094"/>
      <point x="688.625" y="36"/>
      <point x="662" y="36" type="qcurve" smooth="yes"/>
    </contour>
    <contour>
      <point x="80" y="0" type="line"/>
      <point x="667" y="0" type="line" smooth="yes"/>
      <point x="817" y="0"/>
      <point x="1067" y="77.5625"/>
      <point x="1247" y="245.938"/>
      <point x="1347" y="511.75"/>
      <point x="1347" y="700" type="qcurve" smooth="yes"/>
      <point x="1347" y="877"/>
      <point x="1259.09" y="1140"/>
      <point x="1087.16" y="1314"/>
      <point x="833.125" y="1400"/>
      <point x="667" y="1400" type="qcurve" smooth="yes"/>
      <point x="80" y="1400" type="line"/>
    </contour>
  </outline>
  <guideline angle="0" x="0" y="1549"/>
</glyph>
<glyph name="grave" format="2">
  <advance width="744"/>
  <unicode hex="0060"/>
  <outline>
    <contour>
      <point x="658" y="1100" type="line"/>
      <point x="694" y="1100" type="line"/>
      <point x="601" y="1448" type="line"/>
      <point x="50" y="1448" type="line"/>
    </contour>
  </outline>
</glyph>
<glyph name="b" format="2">
  <advance width="1276"/>
  <unicode hex="0062"/>
  <anchor x="646" y="1598" name="top"/>
  <anchor x="646" y="-162" name="bottom"/>
  <outline>
    <contour>
      <point x="72" y="0" type="line"/>
      <point x="596" y="0" type="line"/>
      <point x="596" y="28" type="line"/>
      <point x="607.319" y="13.6626"/>
      <point x="644.834" y="0"/>
      <point x="672" y="0" type="qcurve" smooth="yes"/>
      <point x="914" y="0" type="line" smooth="yes"/>
      <point x="1057.37" y="0"/>
      <point x="1220" y="109.307"/>
      <point x="1220" y="264" type="qcurve" smooth="yes"/>
      <point x="1220" y="776" type="line" smooth="yes"/>
      <point x="1220" y="927.675"/>
      <point x="1050.58" y="1030"/>
      <point x="914" y="1030" type="qcurve" smooth="yes"/>
      <point x="672" y="1030" type="line" smooth="yes"/>
      <point x="639.552" y="1030"/>
      <point x="602.037" y="1018.07"/>
      <point x="596" y="1006" type="qcurve"/>
      <point x="596" y="1472" type="line"/>
      <point x="72" y="1472" type="line"/>
    </contour>
    <contour>
      <point x="596" y="32" type="line"/>
      <point x="596" y="998" type="line"/>
      <point x="696" y="998" type="line"/>
      <point x="696" y="998"/>
      <point x="696" y="998"/>
      <point x="696" y="998" type="qcurve"/>
      <point x="696" y="32" type="line"/>
      <point x="696" y="32"/>
      <point x="696" y="32"/>
      <point x="696" y="32" type="qcurve"/>
    </contour>
  </outline>
</glyph>
<glyph name="g" format="2">
  <advance width="1268"/>
  <unicode hex="0067"/>
  <anchor x="634" y="1178" name="top"/>
  <anchor x="634" y="-554" name="bottom"/>
  <outline>
    <contour>
      <point x="580" y="32" type="qcurve"/>
      <point x="580" y="992" type="line"/>
      <point x="580" y="992"/>
      <point x="580" y="992"/>
      <point x="580" y="992" type="qcurve"/>
      <point x="680" y="992" type="line"/>
      <point x="680" y="32" type="line"/>
      <point x="580" y="32" type="line"/>
      <point x="580" y="32"/>
      <point x="580" y="32"/>
    </contour>
    <contour>
      <point x="136" y="-404" type="line"/>
      <point x="944" y="-404" type="line" smooth="yes"/>
      <point x="1002.5" y="-404"/>
      <point x="1098.38" y="-357.25"/>
      <point x="1166.62" y="-271.75"/>
      <point x="1204" y="-151.5"/>
      <point x="1204" y="-78" type="qcurve" smooth="yes"/>
      <point x="1204" y="1024" type="line"/>
      <point x="680" y="1024" type="line"/>
      <point x="680" y="1000" type="line"/>
      <point x="673.963" y="1012.07"/>
      <point x="635.693" y="1024"/>
      <point x="604" y="1024" type="qcurve" smooth="yes"/>
      <point x="362" y="1024" type="line" smooth="yes"/>
      <point x="202.025" y="1024"/>
      <point x="56" y="901.3"/>
      <point x="56" y="770" type="qcurve" smooth="yes"/>
      <point x="56" y="264" type="line" smooth="yes"/>
      <point x="56" y="125.154"/>
      <point x="200.516" y="0"/>
      <point x="362" y="0" type="qcurve" smooth="yes"/>
      <point x="604" y="0" type="line" smooth="yes"/>
      <point x="631.166" y="0"/>
      <point x="669.436" y="14.4172"/>
      <point x="680" y="28" type="qcurve"/>
      <point x="680" y="-372" type="line"/>
      <point x="680" y="-372"/>
      <point x="680" y="-372"/>
      <point x="680" y="-372" type="qcurve"/>
      <point x="126" y="-372" type="line"/>
    </contour>
  </outline>
</glyph>
<glyph name="k" format="2">
  <advance width="1390"/>
  <unicode hex="006B"/>
  <anchor x="134" y="1598" name="top"/>
  <anchor x="694" y="-150" name="bottom"/>
  <anchor x="-28" y="736" name="left"/>
  <outline>
    <contour>
      <point x="72" y="0" type="line"/>
      <point x="596" y="0" type="line"/>
      <point x="596" y="491" type="line"/>
      <point x="590" y="491" type="line"/>
      <point x="792" y="0" type="line"/>
      <point x="1390" y="0" type="line"/>
      <point x="989" y="846" type="line"/>
      <point x="984" y="829" type="line"/>
      <point x="1317" y="1024" type="line"/>
      <point x="1251" y="1024" type="line"/>
      <point x="576" y="630" type="line"/>
      <point x="596" y="630" type="line"/>
      <point x="596" y="1472" type="line"/>
      <point x="72" y="1472" type="line"/>
    </contour>
  </outline>
</glyph>
<glyph name="o" format="2">
  <advance width="1260"/>
  <unicode hex="006F"/>
  <anchor x="630" y="1174" name="top"/>
  <anchor x="630" y="-150" name="bottom"/>
  <anchor x="1204" y="776" name="horn"/>
  <anchor x="649" y="0" name="ogonek"/>
  <outline>
    <contour>
      <point x="56" y="258" type="line" smooth="yes"/>
      <point x="56" y="119.154"/>
      <point x="200.516" y="-6"/>
      <point x="362" y="-6" type="qcurve" smooth="yes"/>
      <point x="898" y="-6" type="line" smooth="yes"/>
      <point x="1060.99" y="-6"/>
      <point x="1204" y="119.154"/>
      <point x="1204" y="258" type="qcurve" smooth="yes"/>
      <point x="1204" y="776" type="line" smooth="yes"/>
      <point x="1204" y="907.3"/>
      <point x="1057.98" y="1030"/>
      <point x="898" y="1030" type="qcurve" smooth="yes"/>
      <point x="362" y="1030" type="line" smooth="yes"/>
      <point x="202.025" y="1030"/>
      <point x="56" y="907.3"/>
      <point x="56" y="776" type="qcurve" smooth="yes"/>
    </contour>
    <contour>
      <point x="580" y="26" type="qcurve"/>
      <point x="580" y="998" type="line"/>
      <point x="580" y="998"/>
      <point x="580" y="998"/>
      <point x="580" y="998" type="qcurve"/>
      <point x="680" y="998" type="line"/>
      <point x="680" y="998"/>
      <point x="680" y="998"/>
      <point x="680" y="998" type="qcurve"/>
      <point x="680" y="26" type="line"/>
      <point x="680" y="26"/>
      <point x="680" y="26"/>
      <point x="680" y="26" type="qcurve"/>
      <point x="580" y="26" type="line"/>
      <point x="580" y="26"/>
      <point x="580" y="26"/>
    </contour>
  </outline>
</glyph>
<glyph name="v" format="2">
  <advance width="1060"/>
  <unicode hex="0076"/>
  <anchor x="530" y="1174" name="top"/>
  <anchor x="530" y="-150" name="bottom"/>
  <outline>
    <contour>
      <point x="406" y="0" type="line"/>
      <point x="673" y="0" type="line"/>
      <point x="1060" y="1024" type="line"/>
      <point x="1026" y="1024" type="line"/>
      <point x="791" y="403" type="line"/>
      <point x="564" y="1024" type="line"/>
      <point x="0" y="1024" type="line"/>
    </contour>
  </outline>
</glyph>
<glyph name="braceright" format="2">
  <advance width="870"/>
  <unicode hex="007D"/>
  <outline>
    <contour>
      <point x="641" y="1174" type="line" smooth="yes"/>
      <point x="641" y="1302.28"/>
      <point x="478.828" y="1448"/>
      <point x="343" y="1448" type="qcurve" smooth="yes"/>
      <point x="10" y="1448" type="line"/>
      <point x="10" y="1416" type="line"/>
      <point x="79" y="1416" type="line" smooth="yes"/>
      <point x="144.65" y="1416"/>
      <point x="201" y="1362.1"/>
      <point x="201" y="1304" type="qcurve" smooth="yes"/>
      <point x="201" y="875" type="line" smooth="yes"/>
      <point x="201" y="763.319"/>
      <point x="304.411" y="622.166"/>
      <point x="401" y="595" type="qcurve"/>
      <point x="304.411" y="567.834"/>
      <point x="201" y="426.681"/>
      <point x="201" y="315" type="qcurve" smooth="yes"/>
      <point x="201" y="-112" type="line" smooth="yes"/>
      <point x="201" y="-170.104"/>
      <point x="144.65" y="-224"/>
      <point x="79" y="-224" type="qcurve" smooth="yes"/>
      <point x="10" y="-224" type="line"/>
      <point x="10" y="-256" type="line"/>
      <point x="343" y="-256" type="line" smooth="yes"/>
      <point x="478.828" y="-256"/>
      <point x="641" y="-107.828"/>
      <point x="641" y="28" type="qcurve" smooth="yes"/>
      <point x="641" y="401" type="line" smooth="yes"/>
      <point x="641" y="482.497"/>
      <point x="723.847" y="579"/>
      <point x="831" y="579" type="qcurve"/>
      <point x="831" y="611" type="line"/>
      <point x="723.847" y="611"/>
      <point x="641" y="706.749"/>
      <point x="641" y="789" type="qcurve" smooth="yes"/>
    </contour>
  </outline>
</glyph>
<glyph name="ordfeminine" format="2">
  <advance width="859"/>
  <unicode hex="00AA"/>
  <outline>
    <contour>
      <point x="227" y="784" type="qcurve" smooth="yes"/>
      <point x="351" y="784" type="line" smooth="yes"/>
      <point x="388.73" y="784"/>
      <point x="439.417" y="798.417"/>
      <point x="453" y="812" type="qcurve"/>
      <point x="453" y="793" type="line"/>
      <point x="793" y="793" type="line"/>
      <point x="793" y="1292" type="line" smooth="yes"/>
      <point x="793" y="1402.17"/>
      <point x="686.779" y="1472"/>
      <point x="600" y="1472" type="qcurve" smooth="yes"/>
      <point x="244" y="1472" type="line" smooth="yes"/>
      <point x="157.221" y="1472"/>
      <point x="51" y="1401.15"/>
      <point x="51" y="1294" type="qcurve" smooth="yes"/>
      <point x="51" y="1276" type="line"/>
      <point x="391" y="1215" type="line"/>
      <point x="391" y="1440" type="line"/>
      <point x="391" y="1440"/>
      <point x="391" y="1440"/>
      <point x="391" y="1440" type="qcurve"/>
      <point x="453" y="1440" type="line"/>
      <point x="453" y="1440"/>
      <point x="453" y="1440"/>
      <point x="453" y="1440" type="qcurve"/>
      <point x="453" y="1147" type="line"/>
      <point x="227" y="1147" type="line" smooth="yes"/>
      <point x="146.258" y="1147"/>
      <point x="34" y="1083.83"/>
      <point x="34" y="988" type="qcurve" smooth="yes"/>
      <point x="34" y="950" type="line" smooth="yes"/>
      <point x="34" y="852.657"/>
      <point x="146.258" y="784"/>
    </contour>
    <contour>
      <point x="374" y="816" type="qcurve"/>
      <point x="374" y="1115" type="line"/>
      <point x="374" y="1115"/>
      <point x="374" y="1115"/>
      <point x="374" y="1115" type="qcurve"/>
      <point x="453" y="1115" type="line"/>
      <point x="453" y="816" type="line"/>
      <point x="374" y="816" type="line"/>
      <point x="374" y="816"/>
      <point x="374" y="816"/>
    </contour>
  </outline>
  <guideline angle="0" x="0" y="36"/>
  <guideline angle="0" x="0" y="272"/>
  <guideline angle="0" x="0" y="36"/>
  <guideline angle="0" x="0" y="272"/>
</glyph>
<glyph name="guillemotleft" format="2">
  <advance width="877"/>
  <unicode hex="00AB"/>
  <outline>
    <contour>
      <point x="384" y="130" type="line"/>
      <point x="415" y="130" type="line"/>
      <point x="289" y="512" type="line"/>
      <point x="415" y="894" type="line"/>
      <point x="384" y="894" type="line"/>
      <point x="0" y="512" type="line"/>
    </contour>
    <contour>
      <point x="821" y="130" type="line"/>
      <point x="852" y="130" type="line"/>
      <point x="726" y="512" type="line"/>
      <point x="852" y="894" type="line"/>
      <point x="821" y="894" type="line"/>
      <point x="437" y="512" type="line"/>
    </contour>
  </outline>
</glyph>
<glyph name="acute" format="2">
  <advance width="744"/>
  <unicode hex="00B4"/>
  <outline>
    <contour>
      <point x="50" y="1100" type="line"/>
      <point x="86" y="1100" type="line"/>
      <point x="694" y="1448" type="line"/>
      <point x="143" y="1448" type="line"/>
    </contour>
  </outline>
</glyph>
<glyph name="onehalf" format="2">
  <advance width="1373"/>
  <unicode hex="00BD"/>
  <outline>
    <contour>
      <point x="126" y="614" type="line"/>
      <point x="420" y="614" type="line"/>
      <point x="420" y="1408" type="line"/>
      <point x="19" y="1353" type="line"/>
      <point x="19" y="1323" type="line"/>
      <point x="126" y="1336" type="line"/>
    </contour>
    <contour>
      <point x="830" y="1400" type="line"/>
      <point x="226" y="0" type="line"/>
      <point x="259" y="0" type="line"/>
      <point x="863" y="1400" type="line"/>
    </contour>
    <contour>
      <point x="669" y="0" type="line"/>
      <point x="1101" y="0" type="line" smooth="yes"/>
      <point x="1202.12" y="0"/>
      <point x="1322" y="72.7732"/>
      <point x="1322" y="192" type="qcurve" smooth="yes"/>
      <point x="1322" y="225" type="line"/>
      <point x="1042" y="279" type="line"/>
      <point x="1042" y="30" type="line"/>
      <point x="1042" y="30"/>
      <point x="1042" y="30"/>
      <point x="1042" y="30" type="qcurve"/>
      <point x="946" y="30" type="line"/>
      <point x="946" y="348" type="line"/>
      <point x="946" y="348"/>
      <point x="946" y="348"/>
      <point x="946" y="348" type="qcurve"/>
      <point x="1103" y="390" type="line" smooth="yes"/>
      <point x="1230.53" y="423.957"/>
      <point x="1306" y="518.221"/>
      <point x="1306" y="605" type="qcurve" smooth="yes"/>
      <point x="1306" y="620" type="line" smooth="yes"/>
      <point x="1306" y="720.362"/>
      <point x="1180.36" y="790"/>
      <point x="1080" y="790" type="qcurve" smooth="yes"/>
      <point x="896" y="790" type="line" smooth="yes"/>
      <point x="796.393" y="790"/>
      <point x="674" y="721.454"/>
      <point x="674" y="606" type="qcurve" smooth="yes"/>
      <point x="674" y="559" type="line"/>
      <point x="943" y="505" type="line"/>
      <point x="943" y="760" type="line"/>
      <point x="943" y="760"/>
      <point x="943" y="760"/>
      <point x="943" y="760" type="qcurve"/>
      <point x="1036" y="760" type="line"/>
      <point x="1036" y="760"/>
      <point x="1036" y="760"/>
      <point x="1036" y="760" type="qcurve"/>
      <point x="1036" y="403" type="line"/>
      <point x="1036" y="403"/>
      <point x="1036" y="403"/>
      <point x="1036" y="403" type="qcurve"/>
      <point x="819" y="345" type="line" smooth="yes"/>
      <point x="746.558" y="325.38"/>
      <point x="669" y="213.08"/>
      <point x="669" y="118" type="qcurve" smooth="yes"/>
    </contour>
  </outline>
  <guideline angle="90" color="0.4,0.4,0.4,1" name="halfwidth" x="686.5" y="0"/>
</glyph>
<glyph name="Atilde" format="2">
  <advance width="1234"/>
  <unicode hex="00C3"/>
  <anchor x="608" y="1982" name="top"/>
  <anchor x="578" y="-150" name="bottom"/>
  <anchor x="641" y="0" name="ogonek_in"/>
  <outline>
    <contour>
      <point x="-10" y="0" type="line"/>
      <point x="29" y="0" type="line"/>
      <point x="122" y="298" type="line"/>
      <point x="552" y="298" type="line"/>
      <point x="641" y="0" type="line"/>
      <point x="1244" y="0" type="line"/>
      <point x="803" y="1400" type="line"/>
      <point x="430" y="1400" type="line"/>
    </contour>
    <contour>
      <point x="134" y="334" type="line"/>
      <point x="343" y="1002" type="line"/>
      <point x="542" y="334" type="line"/>
    </contour>
    <contour>
      <point x="268" y="1505" type="qcurve"/>
      <point x="298" y="1500" type="line"/>
      <point x="303.282" y="1519.62"/>
      <point x="334.687" y="1571"/>
      <point x="386" y="1571" type="qcurve" smooth="yes"/>
      <point x="419.375" y="1571"/>
      <point x="495.781" y="1544.75"/>
      <point x="579.969" y="1513.25"/>
      <point x="671" y="1487"/>
      <point x="719" y="1487" type="qcurve" smooth="yes"/>
      <point x="774.5" y="1487"/>
      <point x="852.625" y="1547.41"/>
      <point x="905.875" y="1648.84"/>
      <point x="938.25" y="1781.62"/>
      <point x="948" y="1854" type="qcurve"/>
      <point x="918" y="1859" type="line"/>
      <point x="912.718" y="1839.38"/>
      <point x="881.313" y="1788"/>
      <point x="830" y="1788" type="qcurve" smooth="yes"/>
      <point x="796.625" y="1788"/>
      <point x="720.219" y="1814.25"/>
      <point x="636.031" y="1845.75"/>
      <point x="545" y="1872"/>
      <point x="497" y="1872" type="qcurve" smooth="yes"/>
      <point x="441.5" y="1872"/>
      <point x="363.375" y="1816.09"/>
      <point x="310.125" y="1717.66"/>
      <point x="277.75" y="1583.38"/>
    </contour>
  </outline>
  <guideline angle="90" x="268" y="0"/>
  <guideline angle="90" x="948" y="0"/>
  <guideline angle="90" x="298" y="0"/>
  <guideline angle="90" x="918" y="0"/>
</glyph>
<glyph name="Ccedilla" format="2">
  <advance width="1322"/>
  <unicode hex="00C7"/>
  <anchor x="686" y="1550" name="top"/>
  <anchor x="686" y="-150" name="bottom"/>
  <outline>
    <contour>
      <point x="64" y="1076" type="qcurve" smooth="yes"/>
      <point x="64" y="336" type="line" smooth="yes"/>
      <point x="64" y="129.24"/>
      <point x="276.786" y="-10"/>
      <point x="476" y="-10" type="qcurve" smooth="yes"/>
      <point x="894" y="-10" type="line" smooth="yes"/>
      <point x="1093.21" y="-10"/>
      <point x="1308" y="127.73"/>
      <point x="1308" y="336" type="qcurve" smooth="yes"/>
      <point x="1308" y="530" type="line"/>
      <point x="736" y="640" type="line"/>
      <point x="736" y="26" type="line"/>
      <point x="736" y="26"/>
      <point x="736" y="26"/>
      <point x="736" y="26" type="qcurve"/>
      <point x="636" y="26" type="line"/>
      <point x="636" y="26"/>
      <point x="636" y="26"/>
      <point x="636" y="26" type="qcurve"/>
      <point x="636" y="1374" type="line"/>
      <point x="636" y="1374"/>
      <point x="636" y="1374"/>
      <point x="636" y="1374" type="qcurve"/>
      <point x="730" y="1374" type="line"/>
      <point x="730" y="1374"/>
      <point x="730" y="1374"/>
      <point x="730" y="1374" type="qcurve"/>
      <point x="730" y="786" type="line"/>
      <point x="1302" y="890" type="line"/>
      <point x="1302" y="1076" type="line" smooth="yes"/>
      <point x="1302" y="1277"/>
      <point x="1077" y="1410"/>
      <point x="888" y="1410" type="qcurve" smooth="yes"/>
      <point x="476" y="1410" type="line" smooth="yes"/>
      <point x="287" y="1410"/>
      <point x="64" y="1277"/>
    </contour>
    <contour>
      <point x="676" y="-438" type="qcurve" smooth="yes"/>
      <point x="716.125" y="-438"/>
      <point x="804.281" y="-416.781"/>
      <point x="877.969" y="-370.469"/>
      <point x="926" y="-297.125"/>
      <point x="926" y="-245" type="qcurve" smooth="yes"/>
      <point x="926" y="-204.5"/>
      <point x="896.656" y="-142.875"/>
      <point x="840.594" y="-100.125"/>
      <point x="759.125" y="-76"/>
      <point x="707" y="-73" type="qcurve"/>
      <point x="723" y="0" type="line"/>
      <point x="604" y="0" type="line"/>
      <point x="581" y="-103" type="line"/>
      <point x="587.791" y="-100.736"/>
      <point x="599.38" y="-99"/>
      <point x="603.625" y="-99" type="qcurve" smooth="yes"/>
      <point x="633.337" y="-99"/>
      <point x="665" y="-171.804"/>
      <point x="665" y="-245" type="qcurve" smooth="yes"/>
      <point x="665" y="-318.951"/>
      <point x="635.166" y="-403"/>
      <point x="608" y="-403" type="qcurve" smooth="yes"/>
      <point x="593.663" y="-403"/>
      <point x="554.828" y="-380.337"/>
      <point x="542" y="-366" type="qcurve"/>
      <point x="517" y="-387" type="line"/>
      <point x="545.675" y="-413.411"/>
      <point x="612.614" y="-438"/>
    </contour>
  </outline>
</glyph>
<glyph name="Igrave" format="2">
  <advance width="732"/>
  <unicode hex="00CC"/>
  <anchor x="366" y="1550" name="top"/>
  <anchor x="366" y="-150" name="bottom"/>
  <anchor x="121" y="0" name="ogonek"/>
  <anchor x="429" y="1500" name="topright"/>
  <outline>
    <contour>
      <point x="80" y="0" type="line"/>
      <point x="652" y="0" type="line"/>
      <point x="652" y="1400" type="line"/>
      <point x="80" y="1400" type="line"/>
    </contour>
    <contour>
      <point x="429" y="1500" type="line"/>
      <point x="469" y="1500" type="line"/>
      <point x="430" y="1800" type="line"/>
      <point x="-161" y="1800" type="line"/>
    </contour>
  </outline>
</glyph>
<glyph name="multiply" format="2">
  <advance width="590"/>
  <unicode hex="00D7"/>
  <outline>
    <contour>
      <point x="116" y="297" type="line"/>
      <point x="295" y="555" type="line"/>
      <point x="474" y="297" type="line"/>
      <point x="505" y="319" type="line"/>
      <point x="318" y="588" type="line"/>
      <point x="505" y="856" type="line"/>
      <point x="474" y="878" type="line"/>
      <point x="296" y="621" type="line"/>
      <point x="117" y="878" type="line"/>
      <point x="86" y="856" type="line"/>
      <point x="273" y="587" type="line"/>
      <point x="86" y="318" type="line"/>
    </contour>
  </outline>
  <guideline angle="34.3869" color="1,0,0,1" x="104" y="140"/>
  <guideline angle="325.644" color="1,0,0,1" x="83" y="1003"/>
</glyph>
<glyph name="Oslash" format="2">
  <advance width="1432"/>
  <unicode hex="00D8"/>
  <anchor x="716" y="1580" name="top"/>
  <outline>
    <contour>
      <point x="94" y="1076" type="qcurve" smooth="yes"/>
      <point x="94" y="336" type="line" smooth="yes"/>
      <point x="94" y="129.24"/>
      <point x="306.786" y="-10"/>
      <point x="506" y="-10" type="qcurve" smooth="yes"/>
      <point x="924" y="-10" type="line" smooth="yes"/>
      <point x="1123.21" y="-10"/>
      <point x="1338" y="127.73"/>
      <point x="1338" y="336" type="qcurve" smooth="yes"/>
      <point x="1338" y="1076" type="line" smooth="yes"/>
      <point x="1338" y="1277"/>
      <point x="1113" y="1410"/>
      <point x="924" y="1410" type="qcurve" smooth="yes"/>
      <point x="506" y="1410" type="line" smooth="yes"/>
      <point x="317" y="1410"/>
      <point x="94" y="1277"/>
    </contour>
    <contour>
      <point x="666" y="1374" type="line"/>
      <point x="666" y="1374"/>
      <point x="666" y="1374"/>
      <point x="666" y="1374" type="qcurve"/>
      <point x="766" y="1374" type="line"/>
      <point x="766" y="1374"/>
      <point x="766" y="1374"/>
      <point x="766" y="1374" type="qcurve"/>
      <point x="766" y="26" type="line"/>
      <point x="766" y="26"/>
      <point x="766" y="26"/>
      <point x="766" y="26" type="qcurve"/>
      <point x="666" y="26" type="line"/>
      <point x="666" y="26"/>
      <point x="666" y="26"/>
      <point x="666" y="26" type="qcurve"/>
    </contour>
    <contour>
      <point x="91" y="-30" type="line"/>
      <point x="256" y="159" type="line"/>
      <point x="475" y="314" type="line"/>
      <point x="1003" y="1049" type="line"/>
      <point x="1212" y="1228" type="line"/>
      <point x="1368" y="1405" type="line"/>
      <point x="1341" y="1430" type="line"/>
      <point x="1187" y="1253" type="line"/>
      <point x="974" y="1070" type="line"/>
      <point x="449" y="339" type="line"/>
      <point x="236" y="191" type="line"/>
      <point x="64" y="-6" type="line"/>
    </contour>
  </outline>
  <guideline angle="0" x="0" y="-30"/>
  <guideline angle="0" x="0" y="-30"/>
  <guideline angle="0" x="0" y="1430"/>
</glyph>
<glyph name="atilde" format="2">
  <advance width="1286"/>
  <unicode hex="00E3"/>
  <anchor x="629" y="1531" name="top"/>
  <anchor x="632" y="-162" name="bottom"/>
  <anchor x="711" y="0" name="ogonek"/>
  <outline>
    <contour>
      <point x="342" y="0" type="qcurve" smooth="yes"/>
      <point x="598" y="0" type="line" smooth="yes"/>
      <point x="625.166" y="0"/>
      <point x="663.436" y="14.4172"/>
      <point x="674" y="28" type="qcurve"/>
      <point x="674" y="0" type="line"/>
      <point x="1198" y="0" type="line"/>
      <point x="1198" y="754" type="line" smooth="yes"/>
      <point x="1198" y="923.03"/>
      <point x="1034.81" y="1030"/>
      <point x="902" y="1030" type="qcurve" smooth="yes"/>
      <point x="376" y="1030" type="line" smooth="yes"/>
      <point x="243.19" y="1030"/>
      <point x="80" y="919.411"/>
      <point x="80" y="770" type="qcurve" smooth="yes"/>
      <point x="80" y="756" type="line"/>
      <point x="584" y="664" type="line"/>
      <point x="584" y="998" type="line"/>
      <point x="584" y="998"/>
      <point x="584" y="998"/>
      <point x="584" y="998" type="qcurve"/>
      <point x="674" y="998" type="line"/>
      <point x="674" y="998"/>
      <point x="674" y="998"/>
      <point x="674" y="998" type="qcurve"/>
      <point x="674" y="566" type="line"/>
      <point x="342" y="566" type="line" smooth="yes"/>
      <point x="219" y="566"/>
      <point x="46" y="467.5"/>
      <point x="46" y="322" type="qcurve" smooth="yes"/>
      <point x="46" y="254" type="line" smooth="yes"/>
      <point x="46" y="104.589"/>
      <point x="218.246" y="0"/>
    </contour>
    <contour>
      <point x="570" y="32" type="qcurve"/>
      <point x="570" y="534" type="line"/>
      <point x="570" y="534"/>
      <point x="570" y="534"/>
      <point x="570" y="534" type="qcurve"/>
      <point x="674" y="534" type="line"/>
      <point x="674" y="32" type="line"/>
      <point x="570" y="32" type="line"/>
      <point x="570" y="32"/>
      <point x="570" y="32"/>
    </contour>
    <contour>
      <point x="289" y="1129" type="qcurve"/>
      <point x="319" y="1124" type="line"/>
      <point x="324.282" y="1143.62"/>
      <point x="355.687" y="1195"/>
      <point x="407" y="1195" type="qcurve" smooth="yes"/>
      <point x="440.375" y="1195"/>
      <point x="523" y="1168.75"/>
      <point x="613" y="1137.25"/>
      <point x="706.125" y="1111"/>
      <point x="750" y="1111" type="qcurve" smooth="yes"/>
      <point x="861" y="1111"/>
      <point x="949.5" y="1293.25"/>
      <point x="969" y="1438" type="qcurve"/>
      <point x="939" y="1443" type="line"/>
      <point x="933.718" y="1423.38"/>
      <point x="902.313" y="1372"/>
      <point x="851" y="1372" type="qcurve" smooth="yes"/>
      <point x="817.625" y="1372"/>
      <point x="735.281" y="1398.25"/>
      <point x="645.469" y="1429.75"/>
      <point x="552.25" y="1456"/>
      <point x="508" y="1456" type="qcurve" smooth="yes"/>
      <point x="397" y="1456"/>
      <point x="308.5" y="1285.75"/>
    </contour>
  </outline>
  <guideline angle="90" color="1,0,0,1" x="690" y="0"/>
  <guideline angle="90" x="289" y="0"/>
  <guideline angle="90" x="969" y="0"/>
  <guideline angle="90" x="319" y="0"/>
  <guideline angle="90" x="939" y="0"/>
</glyph>
<glyph name="odieresis" format="2">
  <advance width="1260"/>
  <unicode hex="00F6"/>
  <anchor x="630" y="1537" name="top"/>
  <anchor x="630" y="-150" name="bottom"/>
  <anchor x="1204" y="776" name="horn"/>
  <anchor x="649" y="0" name="ogonek"/>
  <outline>
    <contour>
      <point x="56" y="258" type="line" smooth="yes"/>
      <point x="56" y="119.154"/>
      <point x="200.516" y="-6"/>
      <point x="362" y="-6" type="qcurve" smooth="yes"/>
      <point x="898" y="-6" type="line" smooth="yes"/>
      <point x="1060.99" y="-6"/>
      <point x="1204" y="119.154"/>
      <point x="1204" y="258" type="qcurve" smooth="yes"/>
      <point x="1204" y="776" type="line" smooth="yes"/>
      <point x="1204" y="907.3"/>
      <point x="1057.98" y="1030"/>
      <point x="898" y="1030" type="qcurve" smooth="yes"/>
      <point x="362" y="1030" type="line" smooth="yes"/>
      <point x="202.025" y="1030"/>
      <point x="56" y="907.3"/>
      <point x="56" y="776" type="qcurve" smooth="yes"/>
    </contour>
    <contour>
      <point x="580" y="26" type="qcurve"/>
      <point x="580" y="998" type="line"/>
      <point x="580" y="998"/>
      <point x="580" y="998"/>
      <point x="580" y="998" type="qcurve"/>
      <point x="680" y="998" type="line"/>
      <point x="680" y="998"/>
      <point x="680" y="998"/>
      <point x="680" y="998" type="qcurve"/>
      <point x="680" y="26" type="line"/>
      <point x="680" y="26"/>
      <point x="680" y="26"/>
      <point x="680" y="26" type="qcurve"/>
      <point x="580" y="26" type="line"/>
      <point x="580" y="26"/>
      <point x="580" y="26"/>
    </contour>
    <contour>
      <point x="304" y="1112" type="qcurve" smooth="yes"/>
      <point x="436" y="1112" type="line" smooth="yes"/>
      <point x="517.497" y="1112"/>
      <point x="546" y="1140.5"/>
      <point x="546" y="1222" type="qcurve" smooth="yes"/>
      <point x="546" y="1344" type="line" smooth="yes"/>
      <point x="546" y="1423.99"/>
      <point x="517.497" y="1452"/>
      <point x="436" y="1452" type="qcurve" smooth="yes"/>
      <point x="304" y="1452" type="line" smooth="yes"/>
      <point x="222.503" y="1452"/>
      <point x="194" y="1423.99"/>
      <point x="194" y="1344" type="qcurve" smooth="yes"/>
      <point x="194" y="1222" type="line" smooth="yes"/>
      <point x="194" y="1140.5"/>
      <point x="222.503" y="1112"/>
    </contour>
    <contour>
      <point x="824" y="1112" type="qcurve" smooth="yes"/>
      <point x="956" y="1112" type="line" smooth="yes"/>
      <point x="1037.5" y="1112"/>
      <point x="1066" y="1140.5"/>
      <point x="1066" y="1222" type="qcurve" smooth="yes"/>
      <point x="1066" y="1344" type="line" smooth="yes"/>
      <point x="1066" y="1423.99"/>
      <point x="1037.5" y="1452"/>
      <point x="956" y="1452" type="qcurve" smooth="yes"/>
      <point x="824" y="1452" type="line" smooth="yes"/>
      <point x="742.503" y="1452"/>
      <point x="714" y="1423.99"/>
      <point x="714" y="1344" type="qcurve" smooth="yes"/>
      <point x="714" y="1222" type="line" smooth="yes"/>
      <point x="714" y="1140.5"/>
      <point x="742.503" y="1112"/>
    </contour>
  </outline>
</glyph>
<glyph name="thorn" format="2">
  <advance width="1276"/>
  <unicode hex="00FE"/>
  <outline>
    <contour>
      <point x="72" y="-428" type="line"/>
      <point x="596" y="-428" type="line"/>
      <point x="596" y="20" type="line"/>
      <point x="602.037" y="7.9264"/>
      <point x="640.307" y="-4"/>
      <point x="672" y="-4" type="qcurve" smooth="yes"/>
      <point x="914" y="-4" type="line" smooth="yes"/>
      <point x="1073.98" y="-4"/>
      <point x="1220" y="118.7"/>
      <point x="1220" y="250" type="qcurve" smooth="yes"/>
      <point x="1220" y="760" type="line" smooth="yes"/>
      <point x="1220" y="898.846"/>
      <point x="1075.48" y="1024"/>
      <point x="914" y="1024" type="qcurve" smooth="yes"/>
      <point x="672" y="1024" type="line" smooth="yes"/>
      <point x="644.834" y="1024"/>
      <point x="606.564" y="1009.58"/>
      <point x="596" y="996" type="qcurve"/>
      <point x="596" y="1472" type="line"/>
      <point x="72" y="1472" type="line"/>
    </contour>
    <contour>
      <point x="596" y="28" type="line"/>
      <point x="596" y="992" type="line"/>
      <point x="696" y="992" type="line"/>
      <point x="696" y="992"/>
      <point x="696" y="992"/>
      <point x="696" y="992" type="qcurve"/>
      <point x="696" y="28" type="line"/>
      <point x="696" y="28"/>
      <point x="696" y="28"/>
      <point x="696" y="28" type="qcurve"/>
    </contour>
  </outline>
</glyph>
<glyph name="Cdotaccent" format="2">
  <advance width="1322"/>
  <unicode hex="010A"/>
  <anchor x="682" y="1906" name="top"/>
  <anchor x="685" y="-150" name="bottom"/>
  <outline>
    <contour>
      <point x="64" y="1076" type="qcurve" smooth="yes"/>
      <point x="64" y="336" type="line" smooth="yes"/>
      <point x="64" y="129.24"/>
      <point x="276.786" y="-10"/>
      <point x="476" y="-10" type="qcurve" smooth="yes"/>
      <point x="894" y="-10" type="line" smooth="yes"/>
      <point x="1093.21" y="-10"/>
      <point x="1308" y="127.73"/>
      <point x="1308" y="336" type="qcurve" smooth="yes"/>
      <point x="1308" y="530" type="line"/>
      <point x="736" y="640" type="line"/>
      <point x="736" y="26" type="line"/>
      <point x="736" y="26"/>
      <point x="736" y="26"/>
      <point x="736" y="26" type="qcurve"/>
      <point x="636" y="26" type="line"/>
      <point x="636" y="26"/>
      <point x="636" y="26"/>
      <point x="636" y="26" type="qcurve"/>
      <point x="636" y="1374" type="line"/>
      <point x="636" y="1374"/>
      <point x="636" y="1374"/>
      <point x="636" y="1374" type="qcurve"/>
      <point x="730" y="1374" type="line"/>
      <point x="730" y="1374"/>
      <point x="730" y="1374"/>
      <point x="730" y="1374" type="qcurve"/>
      <point x="730" y="786" type="line"/>
      <point x="1302" y="890" type="line"/>
      <point x="1302" y="1076" type="line" smooth="yes"/>
      <point x="1302" y="1277"/>
      <point x="1077" y="1410"/>
      <point x="888" y="1410" type="qcurve" smooth="yes"/>
      <point x="476" y="1410" type="line" smooth="yes"/>
      <point x="287" y="1410"/>
      <point x="64" y="1277"/>
    </contour>
    <contour>
      <point x="596" y="1478" type="qcurve" smooth="yes"/>
      <point x="768" y="1478" type="line" smooth="yes"/>
      <point x="849.497" y="1478"/>
      <point x="878" y="1506.01"/>
      <point x="878" y="1586" type="qcurve" smooth="yes"/>
      <point x="878" y="1718" type="line" smooth="yes"/>
      <point x="878" y="1797.99"/>
      <point x="849.497" y="1826"/>
      <point x="768" y="1826" type="qcurve" smooth="yes"/>
      <point x="596" y="1826" type="line" smooth="yes"/>
      <point x="514.503" y="1826"/>
      <point x="486" y="1797.99"/>
      <point x="486" y="1718" type="qcurve" smooth="yes"/>
      <point x="486" y="1586" type="line" smooth="yes"/>
      <point x="486" y="1506.01"/>
      <point x="514.503" y="1478"/>
    </contour>
  </outline>
</glyph>
<glyph name="gcircumflex" format="2">
  <advance width="1268"/>
  <unicode hex="011D"/>
  <anchor x="634" y="1576" name="top"/>
  <anchor x="634" y="-554" name="bottom"/>
  <anchor x="990" y="1302" name="topright"/>
  <outline>
    <contour>
      <point x="580" y="32" type="qcurve"/>
      <point x="580" y="992" type="line"/>
      <point x="580" y="992"/>
      <point x="580" y="992"/>
      <point x="580" y="992" type="qcurve"/>
      <point x="680" y="992" type="line"/>
      <point x="680" y="32" type="line"/>
      <point x="580" y="32" type="line"/>
      <point x="580" y="32"/>
      <point x="580" y="32"/>
    </contour>
    <contour>
      <point x="136" y="-404" type="line"/>
      <point x="944" y="-404" type="line" smooth="yes"/>
      <point x="1002.5" y="-404"/>
      <point x="1098.38" y="-357.25"/>
      <point x="1166.62" y="-271.75"/>
      <point x="1204" y="-151.5"/>
      <point x="1204" y="-78" type="qcurve" smooth="yes"/>
      <point x="1204" y="1024" type="line"/>
      <point x="680" y="1024" type="line"/>
      <point x="680" y="1000" type="line"/>
      <point x="673.963" y="1012.07"/>
      <point x="635.693" y="1024"/>
      <point x="604" y="1024" type="qcurve" smooth="yes"/>
      <point x="362" y="1024" type="line" smooth="yes"/>
      <point x="202.025" y="1024"/>
      <point x="56" y="901.3"/>
      <point x="56" y="770" type="qcurve" smooth="yes"/>
      <point x="56" y="264" type="line" smooth="yes"/>
      <point x="56" y="125.154"/>
      <point x="200.516" y="0"/>
      <point x="362" y="0" type="qcurve" smooth="yes"/>
      <point x="604" y="0" type="line" smooth="yes"/>
      <point x="631.166" y="0"/>
      <point x="669.436" y="14.4172"/>
      <point x="680" y="28" type="qcurve"/>
      <point x="680" y="-372" type="line"/>
      <point x="680" y="-372"/>
      <point x="680" y="-372"/>
      <point x="680" y="-372" type="qcurve"/>
      <point x="126" y="-372" type="line"/>
    </contour>
    <contour>
      <point x="314" y="1128" type="line"/>
      <point x="349" y="1128" type="line"/>
      <point x="487" y="1439" type="line"/>
      <point x="636" y="1128" type="line"/>
      <point x="990" y="1128" type="line"/>
      <point x="783" y="1476" type="line"/>
      <point x="469" y="1476" type="line"/>
    </contour>
  </outline>
</glyph>
<glyph name="uni0122" format="2">
  <advance width="1364"/>
  <unicode hex="0122"/>
  <anchor x="688" y="1550" name="top"/>
  <anchor x="688" y="-150" name="bottom"/>
  <outline>
    <contour>
      <point x="64" y="1076" type="qcurve" smooth="yes"/>
      <point x="64" y="336" type="line" smooth="yes"/>
      <point x="64" y="129.24"/>
      <point x="276.786" y="-10"/>
      <point x="476" y="-10" type="qcurve" smooth="yes"/>
      <point x="896" y="-10" type="line" smooth="yes"/>
      <point x="1095.21" y="-10"/>
      <point x="1310" y="127.73"/>
      <point x="1310" y="336" type="qcurve" smooth="yes"/>
      <point x="1310" y="700" type="line"/>
      <point x="688" y="700" type="line"/>
      <point x="688" y="664" type="line"/>
      <point x="738" y="664" type="line"/>
      <point x="738" y="26" type="line"/>
      <point x="738" y="26"/>
      <point x="738" y="26"/>
      <point x="738" y="26" type="qcurve"/>
      <point x="636" y="26" type="line"/>
      <point x="636" y="26"/>
      <point x="636" y="26"/>
      <point x="636" y="26" type="qcurve"/>
      <point x="636" y="1374" type="line"/>
      <point x="636" y="1374"/>
      <point x="636" y="1374"/>
      <point x="636" y="1374" type="qcurve"/>
      <point x="732" y="1374" type="line"/>
      <point x="732" y="1374"/>
      <point x="732" y="1374"/>
      <point x="732" y="1374" type="qcurve"/>
      <point x="732" y="906" type="line"/>
      <point x="1304" y="1010" type="line"/>
      <point x="1304" y="1076" type="line" smooth="yes"/>
      <point x="1304" y="1277"/>
      <point x="1079" y="1410"/>
      <point x="890" y="1410" type="qcurve" smooth="yes"/>
      <point x="476" y="1410" type="line" smooth="yes"/>
      <point x="287" y="1410"/>
      <point x="64" y="1277"/>
    </contour>
    <contour>
      <point x="658" y="-704" type="line"/>
      <point x="865" y="-454" type="line" smooth="yes"/>
      <point x="874.81" y="-441.926"/>
      <point x="884" y="-406.939"/>
      <point x="884" y="-376" type="qcurve" smooth="yes"/>
      <point x="884" y="-214" type="line" smooth="yes"/>
      <point x="884" y="-154.387"/>
      <point x="846.405" y="-121"/>
      <point x="780" y="-121" type="qcurve" smooth="yes"/>
      <point x="596" y="-121" type="line" smooth="yes"/>
      <point x="529.595" y="-121"/>
      <point x="492" y="-154.387"/>
      <point x="492" y="-214" type="qcurve" smooth="yes"/>
      <point x="492" y="-376" type="line" smooth="yes"/>
      <point x="492" y="-437.123"/>
      <point x="529.595" y="-471"/>
      <point x="596" y="-471" type="qcurve" smooth="yes"/>
      <point x="732" y="-471" type="line"/>
      <point x="638" y="-699" type="line"/>
    </contour>
  </outline>
  <guideline angle="0" x="0" y="574"/>
  <guideline angle="0" x="0" y="1036"/>
  <guideline angle="0" x="0" y="980"/>
  <guideline angle="0" x="0" y="806"/>
  <guideline angle="0" x="0" y="700"/>
  <guideline angle="0" x="0" y="906"/>
  <guideline angle="0" x="0" y="494"/>
</glyph>
<glyph name="Hcircumflex" format="2">
  <advance width="1404"/>
  <unicode hex="0124"/>
  <anchor x="702" y="1856" name="top"/>
  <anchor x="702" y="-150" name="bottom"/>
  <anchor x="1141" y="1576" name="topright"/>
  <outline>
    <contour>
      <point x="80" y="0" type="line"/>
      <point x="652" y="0" type="line"/>
      <point x="652" y="710" type="line"/>
      <point x="752" y="710" type="line"/>
      <point x="752" y="0" type="line"/>
      <point x="1324" y="0" type="line"/>
      <point x="1324" y="1400" type="line"/>
      <point x="752" y="1400" type="line"/>
      <point x="752" y="746" type="line"/>
      <point x="652" y="746" type="line"/>
      <point x="652" y="1400" type="line"/>
      <point x="80" y="1400" type="line"/>
    </contour>
    <contour>
      <point x="460" y="1476" type="line"/>
      <point x="501" y="1476" type="line"/>
      <point x="605" y="1700" type="line"/>
      <point x="713" y="1476" type="line"/>
      <point x="1141" y="1476" type="line"/>
      <point x="898" y="1776" type="line"/>
      <point x="606" y="1776" type="line"/>
    </contour>
  </outline>
  <guideline angle="90" color="1,0,0,1" x="702" y="0"/>
</glyph>
<glyph name="Itilde" format="2">
  <advance width="732"/>
  <unicode hex="0128"/>
  <anchor x="366" y="1982" name="top"/>
  <anchor x="366" y="-150" name="bottom"/>
  <anchor x="121" y="0" name="ogonek"/>
  <outline>
    <contour>
      <point x="80" y="0" type="line"/>
      <point x="652" y="0" type="line"/>
      <point x="652" y="1400" type="line"/>
      <point x="80" y="1400" type="line"/>
    </contour>
    <contour>
      <point x="26" y="1505" type="qcurve"/>
      <point x="56" y="1500" type="line"/>
      <point x="61.2822" y="1519.62"/>
      <point x="92.6872" y="1571"/>
      <point x="144" y="1571" type="qcurve" smooth="yes"/>
      <point x="177.375" y="1571"/>
      <point x="253.781" y="1544.75"/>
      <point x="337.969" y="1513.25"/>
      <point x="429" y="1487"/>
      <point x="477" y="1487" type="qcurve" smooth="yes"/>
      <point x="532.5" y="1487"/>
      <point x="610.625" y="1547.41"/>
      <point x="663.875" y="1648.84"/>
      <point x="696.25" y="1781.62"/>
      <point x="706" y="1854" type="qcurve"/>
      <point x="676" y="1859" type="line"/>
      <point x="670.718" y="1839.38"/>
      <point x="639.313" y="1788"/>
      <point x="588" y="1788" type="qcurve" smooth="yes"/>
      <point x="554.625" y="1788"/>
      <point x="478.219" y="1814.25"/>
      <point x="394.031" y="1845.75"/>
      <point x="303" y="1872"/>
      <point x="255" y="1872" type="qcurve" smooth="yes"/>
      <point x="199.5" y="1872"/>
      <point x="121.375" y="1816.09"/>
      <point x="68.125" y="1717.66"/>
      <point x="35.75" y="1583.38"/>
    </contour>
  </outline>
  <guideline angle="90" x="26" y="0"/>
  <guideline angle="90" x="706" y="0"/>
  <guideline angle="90" x="56" y="0"/>
  <guideline angle="90" x="676" y="0"/>
</glyph>
<glyph name="kgreenlandic" format="2">
  <advance width="1390"/>
  <unicode hex="0138"/>
  <anchor x="760" y="1150" name="top"/>
  <outline>
    <contour>
      <point x="72" y="0" type="line"/>
      <point x="596" y="0" type="line"/>
      <point x="596" y="429" type="line"/>
      <point x="792" y="0" type="line"/>
      <point x="1390" y="0" type="line"/>
      <point x="973" y="795" type="line"/>
      <point x="1317" y="1024" type="line"/>
      <point x="1258" y="1021" type="line"/>
      <point x="596" y="582" type="line"/>
      <point x="596" y="1024" type="line"/>
      <point x="72" y="1024" type="line"/>
    </contour>
  </outline>
</glyph>
<glyph name="Lacute" format="2">
  <advance width="1022"/>
  <unicode hex="0139"/>
  <anchor x="366" y="1550" name="top"/>
  <anchor x="546" y="-150" name="bottom"/>
  <anchor x="-20" y="700" name="left"/>
  <anchor x="652" y="1400" name="right"/>
  <anchor x="881" y="700" name="eldot"/>
  <anchor x="303" y="1500" name="topright"/>
  <outline>
    <contour>
      <point x="80" y="0" type="line"/>
      <point x="1012" y="0" type="line"/>
      <point x="1012" y="36" type="line"/>
      <point x="652" y="36" type="line"/>
      <point x="652" y="1400" type="line"/>
      <point x="80" y="1400" type="line"/>
    </contour>
    <contour>
      <point x="263" y="1500" type="line"/>
      <point x="303" y="1500" type="line"/>
      <point x="893" y="1800" type="line"/>
      <point x="302" y="1800" type="line"/>
    </contour>
  </outline>
</glyph>
<glyph name="lacute" format="2">
  <advance width="668"/>
  <unicode hex="013A"/>
  <anchor x="334" y="1598" name="top"/>
  <anchor x="334" y="-150" name="bottom"/>
  <anchor x="596" y="1472" name="right"/>
  <anchor x="676" y="700" name="eldot"/>
  <outline>
    <contour>
      <point x="72" y="0" type="line"/>
      <point x="596" y="0" type="line"/>
      <point x="596" y="1472" type="line"/>
      <point x="72" y="1472" type="line"/>
    </contour>
    <contour>
      <point x="216" y="1524" type="line"/>
      <point x="252" y="1524" type="line"/>
      <point x="860" y="1872" type="line"/>
      <point x="309" y="1872" type="line"/>
    </contour>
  </outline>
</glyph>
<glyph name="Ldot" format="2">
  <advance width="1022"/>
  <unicode hex="013F"/>
  <anchor x="366" y="1550" name="top"/>
  <anchor x="546" y="-150" name="bottom"/>
  <anchor x="-20" y="700" name="left"/>
  <anchor x="652" y="1400" name="right"/>
  <anchor x="881" y="700" name="eldot"/>
  <outline>
    <contour>
      <point x="80" y="0" type="line"/>
      <point x="1012" y="0" type="line"/>
      <point x="1012" y="36" type="line"/>
      <point x="652" y="36" type="line"/>
      <point x="652" y="1400" type="line"/>
      <point x="80" y="1400" type="line"/>
    </contour>
    <contour>
      <point x="725" y="635" type="line" smooth="yes"/>
      <point x="725" y="553.503"/>
      <point x="753.503" y="525"/>
      <point x="835" y="525" type="qcurve" smooth="yes"/>
      <point x="927" y="525" type="line" smooth="yes"/>
      <point x="1008.5" y="525"/>
      <point x="1037" y="553.503"/>
      <point x="1037" y="635" type="qcurve" smooth="yes"/>
      <point x="1037" y="767" type="line" smooth="yes"/>
      <point x="1037" y="846.988"/>
      <point x="1008.5" y="875"/>
      <point x="927" y="875" type="qcurve" smooth="yes"/>
      <point x="835" y="875" type="line" smooth="yes"/>
      <point x="753.503" y="875"/>
      <point x="725" y="846.988"/>
      <point x="725" y="767" type="qcurve" smooth="yes"/>
    </contour>
  </outline>
</glyph>
<glyph name="Nacute" format="2">
  <advance width="1144"/>
  <unicode hex="0143"/>
  <anchor x="572" y="1550" name="top"/>
  <anchor x="572" y="-150" name="bottom"/>
  <anchor x="509" y="1500" name="topright"/>
  <outline>
    <contour>
      <point x="80" y="0" type="line"/>
      <point x="116" y="0" type="line"/>
      <point x="116" y="732" type="line"/>
      <point x="882" y="0" type="line"/>
      <point x="1064" y="0" type="line"/>
      <point x="1064" y="1400" type="line"/>
      <point x="1028" y="1400" type="line"/>
      <point x="1028" y="659" type="line"/>
      <point x="258" y="1400" type="line"/>
      <point x="80" y="1400" type="line"/>
    </contour>
    <contour>
      <point x="469" y="1500" type="line"/>
      <point x="509" y="1500" type="line"/>
      <point x="1099" y="1800" type="line"/>
      <point x="508" y="1800" type="line"/>
    </contour>
  </outline>
</glyph>
<glyph name="Scedilla" format="2">
  <advance width="1272"/>
  <unicode hex="015E"/>
  <anchor x="634" y="1560" name="top"/>
  <anchor x="633" y="-160" name="bottom"/>
  <outline>
    <contour>
      <point x="34" y="410" type="line"/>
      <point x="34" y="332" type="line" smooth="yes"/>
      <point x="34" y="226.25"/>
      <point x="90.6875" y="92.9375"/>
      <point x="196.812" y="17.5625"/>
      <point x="348.75" y="-10"/>
      <point x="444" y="-10" type="qcurve" smooth="yes"/>
      <point x="820" y="-10" type="line" smooth="yes"/>
      <point x="1012" y="-10"/>
      <point x="1232" y="121"/>
      <point x="1232" y="334" type="qcurve" smooth="yes"/>
      <point x="1232" y="398" type="line" smooth="yes"/>
      <point x="1232" y="501.5"/>
      <point x="1171.88" y="629.875"/>
      <point x="1063.12" y="701.125"/>
      <point x="911.5" y="726"/>
      <point x="820" y="726" type="qcurve" smooth="yes"/>
      <point x="580" y="726" type="line"/>
      <point x="580" y="726"/>
      <point x="580" y="726"/>
      <point x="580" y="726" type="qcurve"/>
      <point x="580" y="1374" type="line"/>
      <point x="580" y="1374"/>
      <point x="580" y="1374"/>
      <point x="580" y="1374" type="qcurve"/>
      <point x="686" y="1374" type="line"/>
      <point x="686" y="1374"/>
      <point x="686" y="1374"/>
      <point x="686" y="1374" type="qcurve"/>
      <point x="686" y="958" type="line"/>
      <point x="1212" y="1006" type="line"/>
      <point x="1212" y="1082" type="line" smooth="yes"/>
      <point x="1212" y="1184.75"/>
      <point x="1152.5" y="1312.94"/>
      <point x="1044.5" y="1384.56"/>
      <point x="893.5" y="1410"/>
      <point x="802" y="1410" type="qcurve" smooth="yes"/>
      <point x="470" y="1410" type="line" smooth="yes"/>
      <point x="378.5" y="1410"/>
      <point x="225.625" y="1383.88"/>
      <point x="115.375" y="1311.12"/>
      <point x="54" y="1181.5"/>
      <point x="54" y="1078" type="qcurve" smooth="yes"/>
      <point x="54" y="1034" type="line" smooth="yes"/>
      <point x="54" y="928.25"/>
      <point x="110.062" y="794.312"/>
      <point x="215.438" y="718.188"/>
      <point x="366.75" y="690"/>
      <point x="462" y="690" type="qcurve" smooth="yes"/>
      <point x="686" y="690" type="line"/>
      <point x="686" y="690"/>
      <point x="686" y="690"/>
      <point x="686" y="690" type="qcurve"/>
      <point x="686" y="26" type="line"/>
      <point x="686" y="26"/>
      <point x="686" y="26"/>
      <point x="686" y="26" type="qcurve"/>
      <point x="580" y="26" type="line"/>
      <point x="580" y="26"/>
      <point x="580" y="26"/>
      <point x="580" y="26" type="qcurve"/>
      <point x="580" y="462" type="line"/>
    </contour>
    <contour>
      <point x="623" y="-448" type="qcurve" smooth="yes"/>
      <point x="663.125" y="-448"/>
      <point x="751.281" y="-426.781"/>
      <point x="824.969" y="-380.469"/>
      <point x="873" y="-307.125"/>
      <point x="873" y="-255" type="qcurve" smooth="yes"/>
      <point x="873" y="-214.5"/>
      <point x="843.656" y="-152.875"/>
      <point x="787.594" y="-110.125"/>
      <point x="706.125" y="-86"/>
      <point x="654" y="-83" type="qcurve"/>
      <point x="670" y="-10" type="line"/>
      <point x="551" y="-10" type="line"/>
      <point x="528" y="-113" type="line"/>
      <point x="534.791" y="-110.736"/>
      <point x="546.38" y="-109"/>
      <point x="550.625" y="-109" type="qcurve" smooth="yes"/>
      <point x="580.337" y="-109"/>
      <point x="612" y="-181.804"/>
      <point x="612" y="-255" type="qcurve" smooth="yes"/>
      <point x="612" y="-328.951"/>
      <point x="582.166" y="-413"/>
      <point x="555" y="-413" type="qcurve" smooth="yes"/>
      <point x="540.663" y="-413"/>
      <point x="501.828" y="-390.337"/>
      <point x="489" y="-376" type="qcurve"/>
      <point x="464" y="-397" type="line"/>
      <point x="492.675" y="-423.411"/>
      <point x="559.614" y="-448"/>
    </contour>
  </outline>
</glyph>
<glyph name="uni0163" format="2">
  <advance width="829"/>
  <unicode hex="0163"/>
  <anchor x="361" y="1394" name="top"/>
  <anchor x="361" y="-156" name="bottom"/>
  <anchor x="635" y="1400" name="right"/>
  <outline>
    <contour>
      <point x="417" y="-6" type="qcurve" smooth="yes"/>
      <point x="774" y="-6" type="line"/>
      <point x="784" y="26" type="line"/>
      <point x="635" y="26" type="line"/>
      <point x="635" y="26"/>
      <point x="635" y="26"/>
      <point x="635" y="26" type="qcurve"/>
      <point x="635" y="992" type="line"/>
      <point x="804" y="992" type="line"/>
      <point x="804" y="1024" type="line"/>
      <point x="635" y="1024" type="line"/>
      <point x="635" y="1244" type="line"/>
      <point x="111" y="1244" type="line"/>
      <point x="111" y="1024" type="line"/>
      <point x="28" y="1024" type="line"/>
      <point x="28" y="992" type="line"/>
      <point x="111" y="992" type="line"/>
      <point x="111" y="250" type="line" smooth="yes"/>
      <point x="111" y="111.154"/>
      <point x="250.988" y="-6"/>
    </contour>
    <contour>
      <point x="338" y="-444" type="qcurve" smooth="yes"/>
      <point x="380.375" y="-444"/>
      <point x="460.344" y="-419.969"/>
      <point x="522.406" y="-371.781"/>
      <point x="560" y="-299.375"/>
      <point x="560" y="-251" type="qcurve" smooth="yes"/>
      <point x="560" y="-214.25"/>
      <point x="536.406" y="-155.125"/>
      <point x="489.344" y="-112.375"/>
      <point x="418.875" y="-87"/>
      <point x="372" y="-84" type="qcurve"/>
      <point x="400" y="-6" type="line"/>
      <point x="298" y="-6" type="line"/>
      <point x="261" y="-110" type="line"/>
      <point x="268.546" y="-106.982"/>
      <point x="279.699" y="-105"/>
      <point x="288" y="-105" type="qcurve" smooth="yes"/>
      <point x="316.675" y="-105"/>
      <point x="349" y="-177.804"/>
      <point x="349" y="-251" type="qcurve" smooth="yes"/>
      <point x="349" y="-324.951"/>
      <point x="317.184" y="-409"/>
      <point x="287" y="-409" type="qcurve" smooth="yes"/>
      <point x="271.908" y="-409"/>
      <point x="241.074" y="-388.601"/>
      <point x="229" y="-372" type="qcurve"/>
      <point x="202" y="-393" type="line"/>
      <point x="232.184" y="-422.429"/>
      <point x="287.442" y="-444"/>
    </contour>
  </outline>
</glyph>
<glyph name="Uogonek" format="2">
  <advance width="1373"/>
  <unicode hex="0172"/>
  <anchor x="687" y="1550" name="top"/>
  <anchor x="686" y="-150" name="bottom"/>
  <anchor x="707" y="0" name="ogonek"/>
  <anchor x="1301" y="1400" name="horn"/>
  <outline>
    <contour>
      <point x="72" y="1400" type="line"/>
      <point x="72" y="333" type="line" smooth="yes"/>
      <point x="72" y="226.875"/>
      <point x="128.688" y="93.1562"/>
      <point x="234.812" y="17.5938"/>
      <point x="386.75" y="-10"/>
      <point x="482" y="-10" type="qcurve" smooth="yes"/>
      <point x="889" y="-10" type="line" smooth="yes"/>
      <point x="1081.75" y="-10"/>
      <point x="1301" y="120.75"/>
      <point x="1301" y="333" type="qcurve" smooth="yes"/>
      <point x="1301" y="1400" type="line"/>
      <point x="729" y="1400" type="line"/>
      <point x="729" y="26" type="line"/>
      <point x="729" y="26"/>
      <point x="729" y="26"/>
      <point x="729" y="26" type="qcurve"/>
      <point x="644" y="26" type="line"/>
      <point x="644" y="26"/>
      <point x="644" y="26"/>
      <point x="644" y="26" type="qcurve"/>
      <point x="644" y="1400" type="line"/>
    </contour>
    <contour>
      <point x="844.37" y="-438" type="qcurve" smooth="yes"/>
      <point x="898.236" y="-438"/>
      <point x="989.742" y="-415.638"/>
      <point x="1032" y="-393" type="qcurve"/>
      <point x="1086" y="-160" type="line"/>
      <point x="1055.82" y="-173.583"/>
      <point x="957.178" y="-190"/>
      <point x="908.526" y="-190" type="qcurve" smooth="yes"/>
      <point x="826.632" y="-190"/>
      <point x="689" y="-133.899"/>
      <point x="689" y="-65.9388" type="qcurve" smooth="yes"/>
      <point x="689" y="-50.1384"/>
      <point x="697.945" y="-15.8466"/>
      <point x="707" y="0" type="qcurve"/>
      <point x="666" y="0" type="line"/>
      <point x="640.344" y="-56.595"/>
      <point x="577.656" y="-192.405"/>
      <point x="552" y="-249" type="qcurve"/>
      <point x="552" y="-328.988"/>
      <point x="725.433" y="-438"/>
    </contour>
  </outline>
</glyph>
<glyph name="Wcircumflex" format="2">
  <advance width="1810"/>
  <unicode hex="0174"/>
  <anchor x="945" y="-150" name="bottom"/>
  <anchor x="931" y="1550" name="top"/>
  <anchor x="1370" y="1576" name="topright"/>
  <outline>
    <contour>
      <point x="404" y="0" type="line"/>
      <point x="678" y="0" type="line"/>
      <point x="926" y="999" type="line"/>
      <point x="1212" y="0" type="line"/>
      <point x="1486" y="0" type="line"/>
      <point x="1820" y="1400" type="line"/>
      <point x="1783" y="1400" type="line"/>
      <point x="1602" y="637" type="line"/>
      <point x="1388" y="1400" type="line"/>
      <point x="985" y="1400" type="line"/>
      <point x="794" y="630" type="line"/>
      <point x="577" y="1400" type="line"/>
      <point x="-10" y="1400" type="line"/>
    </contour>
    <contour>
      <point x="689" y="1476" type="line"/>
      <point x="730" y="1476" type="line"/>
      <point x="834" y="1700" type="line"/>
      <point x="942" y="1476" type="line"/>
      <point x="1370" y="1476" type="line"/>
      <point x="1127" y="1776" type="line"/>
      <point x="835" y="1776" type="line"/>
    </contour>
  </outline>
</glyph>
<glyph name="zacute" format="2">
  <advance width="1092"/>
  <unicode hex="017A"/>
  <anchor x="546" y="1174" name="top"/>
  <anchor x="546" y="-150" name="bottom"/>
  <outline>
    <contour>
      <point x="28" y="0" type="line"/>
      <point x="1064" y="0" type="line"/>
      <point x="1064" y="32" type="line"/>
      <point x="617" y="32" type="line"/>
      <point x="624" y="21" type="line"/>
      <point x="1054" y="1006" type="line"/>
      <point x="1054" y="1024" type="line"/>
      <point x="79" y="1024" type="line"/>
      <point x="79" y="992" type="line"/>
      <point x="469" y="992" type="line"/>
      <point x="462" y="1003" type="line"/>
      <point x="28" y="18" type="line"/>
    </contour>
    <contour>
      <point x="428" y="1100" type="line"/>
      <point x="464" y="1100" type="line"/>
      <point x="1072" y="1448" type="line"/>
      <point x="521" y="1448" type="line"/>
    </contour>
  </outline>
</glyph>
<glyph name="uni01C4" format="2">
  <advance width="2666"/>
  <unicode hex="01C4"/>
  <anchor x="1199.7" y="1880" name="top"/>
  <anchor x="1199.7" y="-150" name="bottom"/>
  <anchor x="1675" y="1700" name="topright"/>
  <outline>
    <contour>
      <point x="652" y="36" type="line"/>
      <point x="652" y="1364" type="line"/>
      <point x="662" y="1364" type="line" smooth="yes"/>
      <point x="687.125" y="1364"/>
      <point x="727.469" y="1295.66"/>
      <point x="755.781" y="1142.09"/>
      <point x="771" y="894.875"/>
      <point x="771" y="716" type="qcurve" smooth="yes"/>
      <point x="771" y="534.125"/>
      <point x="756.906" y="276.156"/>
      <point x="729.344" y="112.094"/>
      <point x="688.625" y="36"/>
      <point x="662" y="36" type="qcurve" smooth="yes"/>
    </contour>
    <contour>
      <point x="80" y="0" type="line"/>
      <point x="667" y="0" type="line" smooth="yes"/>
      <point x="817" y="0"/>
      <point x="1067" y="77.5625"/>
      <point x="1247" y="245.938"/>
      <point x="1347" y="511.75"/>
      <point x="1347" y="700" type="qcurve" smooth="yes"/>
      <point x="1347" y="877"/>
      <point x="1259.09" y="1140"/>
      <point x="1087.16" y="1314"/>
      <point x="833.125" y="1400"/>
      <point x="667" y="1400" type="qcurve" smooth="yes"/>
      <point x="80" y="1400" type="line"/>
    </contour>
    <contour>
      <point x="1427" y="0" type="line"/>
      <point x="2591" y="0" type="line"/>
      <point x="2591" y="36" type="line"/>
      <point x="2006" y="36" type="line"/>
      <point x="2013" y="25" type="line"/>
      <point x="2581" y="1382" type="line"/>
      <point x="2581" y="1400" type="line"/>
      <point x="1497" y="1400" type="line"/>
      <point x="1497" y="1364" type="line"/>
      <point x="2002" y="1364" type="line"/>
      <point x="1995" y="1375" type="line"/>
      <point x="1427" y="18" type="line"/>
    </contour>
    <contour>
      <point x="2356" y="1800" type="line"/>
      <point x="2315" y="1800" type="line"/>
      <point x="2211" y="1576" type="line"/>
      <point x="2103" y="1800" type="line"/>
      <point x="1675" y="1800" type="line"/>
      <point x="1918" y="1500" type="line"/>
      <point x="2210" y="1500" type="line"/>
    </contour>
  </outline>
  <guideline angle="0" x="0" y="1549"/>
</glyph>
<glyph name="Gcaron" format="2">
  <advance width="1364"/>
  <unicode hex="01E6"/>
  <anchor x="688" y="1880" name="top"/>
  <anchor x="688" y="-150" name="bottom"/>
  <anchor x="298" y="1700" name="topright"/>
  <outline>
    <contour>
      <point x="64" y="1076" type="qcurve" smooth="yes"/>
      <point x="64" y="336" type="line" smooth="yes"/>
      <point x="64" y="129.24"/>
      <point x="276.786" y="-10"/>
      <point x="476" y="-10" type="qcurve" smooth="yes"/>
      <point x="896" y="-10" type="line" smooth="yes"/>
      <point x="1095.21" y="-10"/>
      <point x="1310" y="127.73"/>
      <point x="1310" y="336" type="qcurve" smooth="yes"/>
      <point x="1310" y="700" type="line"/>
      <point x="688" y="700" type="line"/>
      <point x="688" y="664" type="line"/>
      <point x="738" y="664" type="line"/>
      <point x="738" y="26" type="line"/>
      <point x="738" y="26"/>
      <point x="738" y="26"/>
      <point x="738" y="26" type="qcurve"/>
      <point x="636" y="26" type="line"/>
      <point x="636" y="26"/>
      <point x="636" y="26"/>
      <point x="636" y="26" type="qcurve"/>
      <point x="636" y="1374" type="line"/>
      <point x="636" y="1374"/>
      <point x="636" y="1374"/>
      <point x="636" y="1374" type="qcurve"/>
      <point x="732" y="1374" type="line"/>
      <point x="732" y="1374"/>
      <point x="732" y="1374"/>
      <point x="732" y="1374" type="qcurve"/>
      <point x="732" y="906" type="line"/>
      <point x="1304" y="1010" type="line"/>
      <point x="1304" y="1076" type="line" smooth="yes"/>
      <point x="1304" y="1277"/>
      <point x="1079" y="1410"/>
      <point x="890" y="1410" type="qcurve" smooth="yes"/>
      <point x="476" y="1410" type="line" smooth="yes"/>
      <point x="287" y="1410"/>
      <point x="64" y="1277"/>
    </contour>
    <contour>
      <point x="979" y="1800" type="line"/>
      <point x="938" y="1800" type="line"/>
      <point x="834" y="1576" type="line"/>
      <point x="726" y="1800" type="line"/>
      <point x="298" y="1800" type="line"/>
      <point x="541" y="1500" type="line"/>
      <point x="833" y="1500" type="line"/>
    </contour>
  </outline>
  <guideline angle="0" x="0" y="574"/>
  <guideline angle="0" x="0" y="1036"/>
  <guideline angle="0" x="0" y="980"/>
  <guideline angle="0" x="0" y="806"/>
  <guideline angle="0" x="0" y="700"/>
  <guideline angle="0" x="0" y="906"/>
  <guideline angle="0" x="0" y="494"/>
</glyph>
<glyph name="AEacute" format="2">
  <advance width="1913"/>
  <unicode hex="01FC"/>
  <anchor x="1277" y="1550" name="top"/>
  <anchor x="818" y="-150" name="bottom"/>
  <outline>
    <contour>
      <point x="-10" y="0" type="line"/>
      <point x="32" y="0" type="line"/>
      <point x="177" y="298" type="line"/>
      <point x="893" y="298" type="line"/>
      <point x="893" y="0" type="line"/>
      <point x="1903" y="0" type="line"/>
      <point x="1903" y="36" type="line"/>
      <point x="1465" y="36" type="line"/>
      <point x="1465" y="700" type="line"/>
      <point x="1849" y="700" type="line"/>
      <point x="1849" y="736" type="line"/>
      <point x="1465" y="736" type="line"/>
      <point x="1465" y="1364" type="line"/>
      <point x="1889" y="1364" type="line"/>
      <point x="1889" y="1400" type="line"/>
      <point x="667" y="1400" type="line"/>
    </contour>
    <contour>
      <point x="195" y="334" type="line"/>
      <point x="696" y="1364" type="line"/>
      <point x="893" y="1364" type="line"/>
      <point x="893" y="334" type="line"/>
    </contour>
    <contour>
      <point x="1159" y="1476" type="line"/>
      <point x="1195" y="1476" type="line"/>
      <point x="1803" y="1824" type="line"/>
      <point x="1252" y="1824" type="line"/>
    </contour>
  </outline>
</glyph>
<glyph name="uni0200" format="2">
  <advance width="1234"/>
  <unicode hex="0200"/>
  <anchor x="608" y="1550" name="top"/>
  <anchor x="578" y="-150" name="bottom"/>
  <anchor x="641" y="0" name="ogonek_in"/>
  <anchor x="395.1" y="1500" name="topright"/>
  <outline>
    <contour>
      <point x="-10" y="0" type="line"/>
      <point x="29" y="0" type="line"/>
      <point x="122" y="298" type="line"/>
      <point x="552" y="298" type="line"/>
      <point x="641" y="0" type="line"/>
      <point x="1244" y="0" type="line"/>
      <point x="803" y="1400" type="line"/>
      <point x="430" y="1400" type="line"/>
    </contour>
    <contour>
      <point x="134" y="334" type="line"/>
      <point x="343" y="1002" type="line"/>
      <point x="542" y="334" type="line"/>
    </contour>
    <contour>
      <point x="910.1" y="1500" type="line"/>
      <point x="882.8" y="1800" type="line"/>
      <point x="469.1" y="1800" type="line"/>
      <point x="882.1" y="1500" type="line"/>
    </contour>
    <contour>
      <point x="423.1" y="1500" type="line"/>
      <point x="395.8" y="1800" type="line"/>
      <point x="-17.9" y="1800" type="line"/>
      <point x="395.1" y="1500" type="line"/>
    </contour>
  </outline>
</glyph>
<glyph name="uni0202" format="2">
  <advance width="1234"/>
  <unicode hex="0202"/>
  <anchor x="608" y="1550" name="top"/>
  <anchor x="578" y="-150" name="bottom"/>
  <anchor x="641" y="0" name="ogonek_in"/>
  <outline>
    <contour>
      <point x="-10" y="0" type="line"/>
      <point x="29" y="0" type="line"/>
      <point x="122" y="298" type="line"/>
      <point x="552" y="298" type="line"/>
      <point x="641" y="0" type="line"/>
      <point x="1244" y="0" type="line"/>
      <point x="803" y="1400" type="line"/>
      <point x="430" y="1400" type="line"/>
    </contour>
    <contour>
      <point x="134" y="334" type="line"/>
      <point x="343" y="1002" type="line"/>
      <point x="542" y="334" type="line"/>
    </contour>
    <contour>
      <point x="609" y="1776" type="qcurve" smooth="yes"/>
      <point x="469.5" y="1776"/>
      <point x="299" y="1751.53"/>
      <point x="206" y="1676.72"/>
      <point x="175" y="1538.62"/>
      <point x="175" y="1425" type="qcurve"/>
      <point x="501" y="1425" type="line"/>
      <point x="501" y="1525.88"/>
      <point x="510" y="1649.53"/>
      <point x="534" y="1717.22"/>
      <point x="576" y="1740"/>
      <point x="609" y="1740" type="qcurve" smooth="yes"/>
      <point x="641.625" y="1740"/>
      <point x="683.219" y="1717.22"/>
      <point x="707.031" y="1649.53"/>
      <point x="716" y="1525.88"/>
      <point x="716" y="1425" type="qcurve"/>
      <point x="1042" y="1425" type="line"/>
      <point x="1042" y="1538.62"/>
      <point x="1011.03" y="1676.72"/>
      <point x="918.219" y="1751.53"/>
      <point x="748.125" y="1776"/>
    </contour>
  </outline>
</glyph>
<glyph name="uni0204" format="2">
  <advance width="1100"/>
  <unicode hex="0204"/>
  <anchor x="585" y="1550" name="top"/>
  <anchor x="585" y="-150" name="bottom"/>
  <anchor x="711" y="0" name="ogonek"/>
  <anchor x="372.1" y="1500" name="topright"/>
  <outline>
    <contour>
      <point x="80" y="0" type="line"/>
      <point x="1090" y="0" type="line"/>
      <point x="1090" y="36" type="line"/>
      <point x="652" y="36" type="line"/>
      <point x="652" y="700" type="line"/>
      <point x="1036" y="700" type="line"/>
      <point x="1036" y="736" type="line"/>
      <point x="652" y="736" type="line"/>
      <point x="652" y="1364" type="line"/>
      <point x="1076" y="1364" type="line"/>
      <point x="1076" y="1400" type="line"/>
      <point x="80" y="1400" type="line"/>
    </contour>
    <contour>
      <point x="887.1" y="1500" type="line"/>
      <point x="859.8" y="1800" type="line"/>
      <point x="446.1" y="1800" type="line"/>
      <point x="859.1" y="1500" type="line"/>
    </contour>
    <contour>
      <point x="400.1" y="1500" type="line"/>
      <point x="372.8" y="1800" type="line"/>
      <point x="-40.9" y="1800" type="line"/>
      <point x="372.1" y="1500" type="line"/>
    </contour>
  </outline>
  <guideline angle="90" x="-18" y="0"/>
</glyph>
<glyph name="uni0209" format="2">
  <advance width="668"/>
  <unicode hex="0209"/>
  <anchor x="334" y="-150" name="bottom"/>
  <anchor x="334" y="1174" name="top"/>
  <anchor x="109" y="0" name="ogonek"/>
  <outline>
    <contour>
      <point x="72" y="0" type="line"/>
      <point x="596" y="0" type="line"/>
      <point x="596" y="1024" type="line"/>
      <point x="72" y="1024" type="line"/>
    </contour>
    <contour>
      <point x="656.6" y="1124" type="line"/>
      <point x="591.5" y="1472" type="line"/>
      <point x="205.8" y="1472" type="line"/>
      <point x="631.4" y="1124" type="line"/>
    </contour>
    <contour>
      <point x="200.6" y="1124" type="line"/>
      <point x="135.5" y="1472" type="line"/>
      <point x="-250.2" y="1472" type="line"/>
      <point x="175.4" y="1124" type="line"/>
    </contour>
  </outline>
</glyph>
<glyph name="uni020C" format="2">
  <advance width="1372"/>
  <unicode hex="020C"/>
  <anchor x="672" y="1560" name="top"/>
  <anchor x="672" y="-160" name="bottom"/>
  <anchor x="1294" y="1076" name="horn"/>
  <anchor x="691" y="0" name="ogonek"/>
  <anchor x="459.1" y="1510" name="topright"/>
  <outline>
    <contour>
      <point x="64" y="1076" type="qcurve" smooth="yes"/>
      <point x="64" y="336" type="line" smooth="yes"/>
      <point x="64" y="129.24"/>
      <point x="276.786" y="-10"/>
      <point x="476" y="-10" type="qcurve" smooth="yes"/>
      <point x="894" y="-10" type="line" smooth="yes"/>
      <point x="1093.21" y="-10"/>
      <point x="1308" y="127.73"/>
      <point x="1308" y="336" type="qcurve" smooth="yes"/>
      <point x="1308" y="1076" type="line" smooth="yes"/>
      <point x="1308" y="1277"/>
      <point x="1083" y="1410"/>
      <point x="894" y="1410" type="qcurve" smooth="yes"/>
      <point x="476" y="1410" type="line" smooth="yes"/>
      <point x="287" y="1410"/>
      <point x="64" y="1277"/>
    </contour>
    <contour>
      <point x="636" y="1374" type="line"/>
      <point x="636" y="1374"/>
      <point x="636" y="1374"/>
      <point x="636" y="1374" type="qcurve"/>
      <point x="736" y="1374" type="line"/>
      <point x="736" y="1374"/>
      <point x="736" y="1374"/>
      <point x="736" y="1374" type="qcurve"/>
      <point x="736" y="26" type="line"/>
      <point x="736" y="26"/>
      <point x="736" y="26"/>
      <point x="736" y="26" type="qcurve"/>
      <point x="636" y="26" type="line"/>
      <point x="636" y="26"/>
      <point x="636" y="26"/>
      <point x="636" y="26" type="qcurve"/>
    </contour>
    <contour>
      <point x="974.1" y="1510" type="line"/>
      <point x="946.8" y="1810" type="line"/>
      <point x="533.1" y="1810" type="line"/>
      <point x="946.1" y="1510" type="line"/>
    </contour>
    <contour>
      <point x="487.1" y="1510" type="line"/>
      <point x="459.8" y="1810" type="line"/>
      <point x="46.1" y="1810" type="line"/>
      <point x="459.1" y="1510" type="line"/>
    </contour>
  </outline>
</glyph>
<glyph name="uni022A" format="2">
  <advance width="1372"/>
  <unicode hex="022A"/>
  <anchor x="672" y="2102" name="top"/>
  <anchor x="672" y="-160" name="bottom"/>
  <anchor x="1294" y="1076" name="horn"/>
  <anchor x="691" y="0" name="ogonek"/>
  <outline>
    <contour>
      <point x="64" y="1076" type="qcurve" smooth="yes"/>
      <point x="64" y="336" type="line" smooth="yes"/>
      <point x="64" y="129.24"/>
      <point x="276.786" y="-10"/>
      <point x="476" y="-10" type="qcurve" smooth="yes"/>
      <point x="894" y="-10" type="line" smooth="yes"/>
      <point x="1093.21" y="-10"/>
      <point x="1308" y="127.73"/>
      <point x="1308" y="336" type="qcurve" smooth="yes"/>
      <point x="1308" y="1076" type="line" smooth="yes"/>
      <point x="1308" y="1277"/>
      <point x="1083" y="1410"/>
      <point x="894" y="1410" type="qcurve" smooth="yes"/>
      <point x="476" y="1410" type="line" smooth="yes"/>
      <point x="287" y="1410"/>
      <point x="64" y="1277"/>
    </contour>
    <contour>
      <point x="636" y="1374" type="line"/>
      <point x="636" y="1374"/>
      <point x="636" y="1374"/>
      <point x="636" y="1374" type="qcurve"/>
      <point x="736" y="1374" type="line"/>
      <point x="736" y="1374"/>
      <point x="736" y="1374"/>
      <point x="736" y="1374" type="qcurve"/>
      <point x="736" y="26" type="line"/>
      <point x="736" y="26"/>
      <point x="736" y="26"/>
      <point x="736" y="26" type="qcurve"/>
      <point x="636" y="26" type="line"/>
      <point x="636" y="26"/>
      <point x="636" y="26"/>
      <point x="636" y="26" type="qcurve"/>
    </contour>
    <contour>
      <point x="316" y="1508" type="qcurve" smooth="yes"/>
      <point x="468" y="1508" type="line" smooth="yes"/>
      <point x="549.497" y="1508"/>
      <point x="578" y="1536.5"/>
      <point x="578" y="1618" type="qcurve" smooth="yes"/>
      <point x="578" y="1760" type="line" smooth="yes"/>
      <point x="578" y="1839.99"/>
      <point x="549.497" y="1868"/>
      <point x="468" y="1868" type="qcurve" smooth="yes"/>
      <point x="316" y="1868" type="line" smooth="yes"/>
      <point x="234.503" y="1868"/>
      <point x="206" y="1839.99"/>
      <point x="206" y="1760" type="qcurve" smooth="yes"/>
      <point x="206" y="1618" type="line" smooth="yes"/>
      <point x="206" y="1536.5"/>
      <point x="234.503" y="1508"/>
    </contour>
    <contour>
      <point x="876" y="1508" type="qcurve" smooth="yes"/>
      <point x="1028" y="1508" type="line" smooth="yes"/>
      <point x="1109.5" y="1508"/>
      <point x="1138" y="1536.5"/>
      <point x="1138" y="1618" type="qcurve" smooth="yes"/>
      <point x="1138" y="1760" type="line" smooth="yes"/>
      <point x="1138" y="1839.99"/>
      <point x="1109.5" y="1868"/>
      <point x="1028" y="1868" type="qcurve" smooth="yes"/>
      <point x="876" y="1868" type="line" smooth="yes"/>
      <point x="794.503" y="1868"/>
      <point x="766" y="1839.99"/>
      <point x="766" y="1760" type="qcurve" smooth="yes"/>
      <point x="766" y="1618" type="line" smooth="yes"/>
      <point x="766" y="1536.5"/>
      <point x="794.503" y="1508"/>
    </contour>
    <contour>
      <point x="382" y="1966" type="line"/>
      <point x="962" y="1966" type="line"/>
      <point x="962" y="2002" type="line"/>
      <point x="382" y="2002" type="line"/>
    </contour>
  </outline>
</glyph>
<glyph name="tilde" format="2">
  <advance width="780"/>
  <unicode hex="02DC"/>
  <outline>
    <contour>
      <point x="50" y="1105" type="qcurve"/>
      <point x="80" y="1100" type="line"/>
      <point x="85.2822" y="1119.62"/>
      <point x="116.687" y="1171"/>
      <point x="168" y="1171" type="qcurve" smooth="yes"/>
      <point x="201.375" y="1171"/>
      <point x="284" y="1144.75"/>
      <point x="374" y="1113.25"/>
      <point x="467.125" y="1087"/>
      <point x="511" y="1087" type="qcurve" smooth="yes"/>
      <point x="622" y="1087"/>
      <point x="710.5" y="1269.25"/>
      <point x="730" y="1414" type="qcurve"/>
      <point x="700" y="1419" type="line"/>
      <point x="694.718" y="1399.38"/>
      <point x="663.313" y="1348"/>
      <point x="612" y="1348" type="qcurve" smooth="yes"/>
      <point x="578.625" y="1348"/>
      <point x="496.281" y="1374.25"/>
      <point x="406.469" y="1405.75"/>
      <point x="313.25" y="1432"/>
      <point x="269" y="1432" type="qcurve" smooth="yes"/>
      <point x="158" y="1432"/>
      <point x="69.5" y="1261.75"/>
    </contour>
  </outline>
  <guideline angle="90" x="50" y="0"/>
  <guideline angle="90" x="730" y="0"/>
  <guideline angle="90" x="80" y="0"/>
  <guideline angle="90" x="700" y="0"/>
</glyph>
<glyph name="hungarumlaut" format="2">
  <advance width="1107"/>
  <unicode hex="02DD"/>
  <outline>
    <contour>
      <point x="100" y="1100" type="line"/>
      <point x="125" y="1100" type="line"/>
      <point x="551" y="1448" type="line"/>
      <point x="165" y="1448" type="line"/>
    </contour>
    <contour>
      <point x="556" y="1100" type="line"/>
      <point x="581" y="1100" type="line"/>
      <point x="1007" y="1448" type="line"/>
      <point x="621" y="1448" type="line"/>
    </contour>
  </outline>
</glyph>
<glyph name="uni030A" format="2">
  <unicode hex="030A"/>
  <anchor x="0" y="1174" name="_top"/>
  <anchor x="0" y="1594" name="top"/>
  <outline>
    <contour>
      <point x="0" y="1098" type="qcurve" smooth="yes"/>
      <point x="84" y="1098"/>
      <point x="187.5" y="1108.5"/>
      <point x="244.5" y="1146"/>
      <point x="264" y="1218.75"/>
      <point x="264" y="1281" type="qcurve" smooth="yes"/>
      <point x="264" y="1343.25"/>
      <point x="244.5" y="1416"/>
      <point x="187.5" y="1453.5"/>
      <point x="84" y="1464"/>
      <point x="0" y="1464" type="qcurve" smooth="yes"/>
      <point x="-84" y="1464"/>
      <point x="-187.5" y="1453.5"/>
      <point x="-244.5" y="1416"/>
      <point x="-264" y="1343.25"/>
      <point x="-264" y="1281" type="qcurve" smooth="yes"/>
      <point x="-264" y="1218.75"/>
      <point x="-244.5" y="1146"/>
      <point x="-187.5" y="1108.5"/>
      <point x="-84" y="1098"/>
    </contour>
    <contour>
      <point x="0" y="1126" type="qcurve" smooth="yes"/>
      <point x="-33.2024" y="1126"/>
      <point x="-50" y="1177.62"/>
      <point x="-50" y="1281" type="qcurve" smooth="yes"/>
      <point x="-50" y="1385.89"/>
      <point x="-33.2024" y="1436"/>
      <point x="0" y="1436" type="qcurve" smooth="yes"/>
      <point x="33.2024" y="1436"/>
      <point x="50" y="1385.89"/>
      <point x="50" y="1281" type="qcurve" smooth="yes"/>
      <point x="50" y="1177.62"/>
      <point x="33.2024" y="1126"/>
    </contour>
  </outline>
</glyph>
<glyph name="uni030C" format="2">
  <unicode hex="030C"/>
  <anchor x="0" y="1150" name="_top"/>
  <anchor x="0" y="1548" name="top"/>
  <anchor x="-14" y="950" name="_bottom"/>
  <anchor x="-370" y="1274" name="topright"/>
  <outline>
    <contour>
      <point x="306" y="1448" type="line"/>
      <point x="271" y="1448" type="line"/>
      <point x="133" y="1137" type="line"/>
      <point x="-16" y="1448" type="line"/>
      <point x="-370" y="1448" type="line"/>
      <point x="-163" y="1100" type="line"/>
      <point x="151" y="1100" type="line"/>
    </contour>
  </outline>
</glyph>
<glyph name="uni0400" format="2">
  <advance width="1122"/>
  <unicode hex="0400"/>
  <anchor x="607" y="1550" name="top"/>
  <anchor x="607" y="-150" name="bottom"/>
  <anchor x="733" y="0" name="ogonek"/>
  <anchor x="670" y="1500" name="topright"/>
  <outline>
    <contour>
      <point x="102" y="0" type="line"/>
      <point x="1112" y="0" type="line"/>
      <point x="1112" y="36" type="line"/>
      <point x="674" y="36" type="line"/>
      <point x="674" y="700" type="line"/>
      <point x="1058" y="700" type="line"/>
      <point x="1058" y="736" type="line"/>
      <point x="674" y="736" type="line"/>
      <point x="674" y="1364" type="line"/>
      <point x="1098" y="1364" type="line"/>
      <point x="1098" y="1400" type="line"/>
      <point x="102" y="1400" type="line"/>
    </contour>
    <contour>
      <point x="670" y="1500" type="line"/>
      <point x="710" y="1500" type="line"/>
      <point x="671" y="1800" type="line"/>
      <point x="80" y="1800" type="line"/>
    </contour>
  </outline>
  <guideline angle="90" x="4" y="0"/>
</glyph>
<glyph name="uni0402" format="2">
  <advance width="1568"/>
  <unicode hex="0402"/>
  <outline>
    <contour>
      <point x="286" y="0" type="line"/>
      <point x="858" y="0" type="line"/>
      <point x="858" y="858" type="line"/>
      <point x="900" y="858" type="line" smooth="yes"/>
      <point x="939.239" y="858"/>
      <point x="976" y="825.166"/>
      <point x="976" y="798" type="qcurve" smooth="yes"/>
      <point x="976" y="66" type="line" smooth="yes"/>
      <point x="976" y="52.4172"/>
      <point x="959.583" y="36"/>
      <point x="946" y="36" type="qcurve" smooth="yes"/>
      <point x="908" y="36" type="line"/>
      <point x="908" y="0" type="line"/>
      <point x="1134" y="0" type="line" smooth="yes"/>
      <point x="1228.5" y="0"/>
      <point x="1381.5" y="29"/>
      <point x="1489.5" y="104"/>
      <point x="1548" y="233.5"/>
      <point x="1548" y="334" type="qcurve" smooth="yes"/>
      <point x="1548" y="560" type="line" smooth="yes"/>
      <point x="1548" y="660.5"/>
      <point x="1489.5" y="790"/>
      <point x="1381.5" y="865"/>
      <point x="1228.5" y="894"/>
      <point x="1134" y="894" type="qcurve" smooth="yes"/>
      <point x="858" y="894" type="line"/>
      <point x="858" y="1364" type="line"/>
      <point x="1134" y="1364" type="line"/>
      <point x="1134" y="1400" type="line"/>
      <point x="10" y="1400" type="line"/>
      <point x="10" y="1364" type="line"/>
      <point x="286" y="1364" type="line"/>
    </contour>
  </outline>
  <guideline angle="90" color="1,0,0,1" x="286" y="0"/>
</glyph>
<glyph name="uni0407" format="2">
  <advance width="1032"/>
  <unicode hex="0407"/>
  <anchor x="516" y="1913" name="top"/>
  <anchor x="516" y="-150" name="bottom"/>
  <anchor x="271" y="0" name="ogonek"/>
  <outline>
    <contour>
      <point x="230" y="0" type="line"/>
      <point x="802" y="0" type="line"/>
      <point x="802" y="1400" type="line"/>
      <point x="230" y="1400" type="line"/>
    </contour>
    <contour>
      <point x="190" y="1488" type="qcurve" smooth="yes"/>
      <point x="322" y="1488" type="line" smooth="yes"/>
      <point x="403.497" y="1488"/>
      <point x="432" y="1516.5"/>
      <point x="432" y="1598" type="qcurve" smooth="yes"/>
      <point x="432" y="1720" type="line" smooth="yes"/>
      <point x="432" y="1799.99"/>
      <point x="403.497" y="1828"/>
      <point x="322" y="1828" type="qcurve" smooth="yes"/>
      <point x="190" y="1828" type="line" smooth="yes"/>
      <point x="108.503" y="1828"/>
      <point x="80" y="1799.99"/>
      <point x="80" y="1720" type="qcurve" smooth="yes"/>
      <point x="80" y="1598" type="line" smooth="yes"/>
      <point x="80" y="1516.5"/>
      <point x="108.503" y="1488"/>
    </contour>
    <contour>
      <point x="710" y="1488" type="qcurve" smooth="yes"/>
      <point x="842" y="1488" type="line" smooth="yes"/>
      <point x="923.497" y="1488"/>
      <point x="952" y="1516.5"/>
      <point x="952" y="1598" type="qcurve" smooth="yes"/>
      <point x="952" y="1720" type="line" smooth="yes"/>
      <point x="952" y="1799.99"/>
      <point x="923.497" y="1828"/>
      <point x="842" y="1828" type="qcurve" smooth="yes"/>
      <point x="710" y="1828" type="line" smooth="yes"/>
      <point x="628.503" y="1828"/>
      <point x="600" y="1799.99"/>
      <point x="600" y="1720" type="qcurve" smooth="yes"/>
      <point x="600" y="1598" type="line" smooth="yes"/>
      <point x="600" y="1516.5"/>
      <point x="628.503" y="1488"/>
    </contour>
  </outline>
</glyph>
<glyph name="uni0413" format="2">
  <advance width="994"/>
  <unicode hex="0413"/>
  <anchor x="532" y="1550" name="top"/>
  <outline>
    <contour>
      <point x="80" y="0" type="line"/>
      <point x="652" y="0" type="line"/>
      <point x="652" y="1364" type="line"/>
      <point x="984" y="1364" type="line"/>
      <point x="984" y="1400" type="line"/>
      <point x="80" y="1400" type="line"/>
    </contour>
  </outline>
</glyph>
<glyph name="uni0417" format="2">
  <advance width="1277"/>
  <unicode hex="0417"/>
  <anchor x="636" y="1550" name="top"/>
  <anchor x="654" y="0" name="ogonek"/>
  <outline>
    <contour>
      <point x="14" y="434" type="line"/>
      <point x="14" y="306" type="line" smooth="yes"/>
      <point x="14" y="114.332"/>
      <point x="219.387" y="-14"/>
      <point x="402" y="-14" type="qcurve" smooth="yes"/>
      <point x="843" y="-14" type="line" smooth="yes"/>
      <point x="937.5" y="-14"/>
      <point x="1090.5" y="15"/>
      <point x="1198.5" y="90"/>
      <point x="1257" y="219.5"/>
      <point x="1257" y="320" type="qcurve" smooth="yes"/>
      <point x="1257" y="394" type="line" smooth="yes"/>
      <point x="1257" y="543.411"/>
      <point x="1147.4" y="687.853"/>
      <point x="1041" y="712" type="qcurve"/>
      <point x="1139.1" y="738.411"/>
      <point x="1241" y="882.626"/>
      <point x="1241" y="1026" type="qcurve" smooth="yes"/>
      <point x="1241" y="1081" type="line" smooth="yes"/>
      <point x="1241" y="1181.5"/>
      <point x="1182.5" y="1311"/>
      <point x="1074.5" y="1386"/>
      <point x="921.5" y="1415"/>
      <point x="827" y="1415" type="qcurve" smooth="yes"/>
      <point x="402" y="1415" type="line" smooth="yes"/>
      <point x="303.75" y="1415"/>
      <point x="157.938" y="1376.12"/>
      <point x="61.5625" y="1298.88"/>
      <point x="14" y="1183.5"/>
      <point x="14" y="1107" type="qcurve" smooth="yes"/>
      <point x="14" y="979" type="line"/>
      <point x="586" y="885" type="line"/>
      <point x="586" y="1379" type="line"/>
      <point x="586" y="1379"/>
      <point x="586" y="1379"/>
      <point x="586" y="1379" type="qcurve"/>
      <point x="609" y="1379" type="line" smooth="yes"/>
      <point x="648.239" y="1379"/>
      <point x="685" y="1346.17"/>
      <point x="685" y="1319" type="qcurve" smooth="yes"/>
      <point x="685" y="788" type="line" smooth="yes"/>
      <point x="685" y="760.834"/>
      <point x="648.239" y="728"/>
      <point x="609" y="728" type="qcurve" smooth="yes"/>
      <point x="331" y="728" type="line"/>
      <point x="331" y="692" type="line"/>
      <point x="625" y="692" type="line" smooth="yes"/>
      <point x="664.239" y="692"/>
      <point x="701" y="659.166"/>
      <point x="701" y="632" type="qcurve" smooth="yes"/>
      <point x="701" y="82" type="line" smooth="yes"/>
      <point x="701" y="54.8344"/>
      <point x="664.239" y="22"/>
      <point x="625" y="22" type="qcurve" smooth="yes"/>
      <point x="586" y="22" type="line"/>
      <point x="586" y="22"/>
      <point x="586" y="22"/>
      <point x="586" y="22" type="qcurve"/>
      <point x="586" y="528" type="line"/>
    </contour>
  </outline>
</glyph>
<glyph name="uni0419" format="2">
  <advance width="1454"/>
  <unicode hex="0419"/>
  <anchor x="767" y="-150" name="bottom"/>
  <anchor x="767" y="1925" name="top"/>
  <outline>
    <contour>
      <point x="80" y="0" type="line"/>
      <point x="632" y="0" type="line"/>
      <point x="812" y="1126" type="line"/>
      <point x="812" y="0" type="line"/>
      <point x="1374" y="0" type="line"/>
      <point x="1374" y="1400" type="line"/>
      <point x="822" y="1400" type="line"/>
      <point x="642" y="290" type="line"/>
      <point x="642" y="1400" type="line"/>
      <point x="80" y="1400" type="line"/>
    </contour>
    <contour>
      <point x="767" y="1475" type="qcurve" smooth="yes"/>
      <point x="882.125" y="1475"/>
      <point x="1022.78" y="1501.69"/>
      <point x="1099.47" y="1577.81"/>
      <point x="1125" y="1714.75"/>
      <point x="1125" y="1825" type="qcurve"/>
      <point x="870" y="1825" type="line"/>
      <point x="870" y="1713.62"/>
      <point x="861.438" y="1586.41"/>
      <point x="838.562" y="1522.84"/>
      <point x="798.5" y="1507"/>
      <point x="767" y="1507" type="qcurve" smooth="yes"/>
      <point x="734.375" y="1507"/>
      <point x="693.406" y="1522.84"/>
      <point x="670.344" y="1586.41"/>
      <point x="662" y="1713.62"/>
      <point x="662" y="1825" type="qcurve"/>
      <point x="407" y="1825" type="line"/>
      <point x="407" y="1714.75"/>
      <point x="433.156" y="1577.81"/>
      <point x="510.594" y="1501.69"/>
      <point x="651.875" y="1475"/>
    </contour>
  </outline>
</glyph>
<glyph name="uni0428" format="2">
  <advance width="2044"/>
  <unicode hex="0428"/>
  <outline>
    <contour>
      <point x="80" y="0" type="line"/>
      <point x="1964" y="0" type="line"/>
      <point x="1964" y="1400" type="line"/>
      <point x="1418" y="1400" type="line"/>
      <point x="1418" y="36" type="line"/>
      <point x="1295" y="36" type="line"/>
      <point x="1295" y="1400" type="line"/>
      <point x="749" y="1400" type="line"/>
      <point x="749" y="36" type="line"/>
      <point x="626" y="36" type="line"/>
      <point x="626" y="1400" type="line"/>
      <point x="80" y="1400" type="line"/>
    </contour>
  </outline>
</glyph>
<glyph name="uni0429" format="2">
  <advance width="2104"/>
  <unicode hex="0429"/>
  <outline>
    <contour>
      <point x="80" y="0" type="line"/>
      <point x="1746" y="0" type="line"/>
      <point x="1776" y="-364" type="line"/>
      <point x="2126" y="-364" type="line"/>
      <point x="2126" y="36" type="line"/>
      <point x="1944" y="36" type="line"/>
      <point x="1944" y="1400" type="line"/>
      <point x="1372" y="1400" type="line"/>
      <point x="1372" y="36" type="line"/>
      <point x="1272" y="36" type="line"/>
      <point x="1272" y="1400" type="line"/>
      <point x="726" y="1400" type="line"/>
      <point x="726" y="36" type="line"/>
      <point x="626" y="36" type="line"/>
      <point x="626" y="1400" type="line"/>
      <point x="80" y="1400" type="line"/>
    </contour>
  </outline>
</glyph>
<glyph name="uni0430" format="2">
  <advance width="1286"/>
  <unicode hex="0430"/>
  <anchor x="629" y="1174" name="top"/>
  <anchor x="632" y="-162" name="bottom"/>
  <anchor x="711" y="0" name="ogonek"/>
  <outline>
    <contour>
      <point x="342" y="0" type="qcurve" smooth="yes"/>
      <point x="598" y="0" type="line" smooth="yes"/>
      <point x="625.166" y="0"/>
      <point x="663.436" y="14.4172"/>
      <point x="674" y="28" type="qcurve"/>
      <point x="674" y="0" type="line"/>
      <point x="1198" y="0" type="line"/>
      <point x="1198" y="754" type="line" smooth="yes"/>
      <point x="1198" y="923.03"/>
      <point x="1034.81" y="1030"/>
      <point x="902" y="1030" type="qcurve" smooth="yes"/>
      <point x="376" y="1030" type="line" smooth="yes"/>
      <point x="243.19" y="1030"/>
      <point x="80" y="919.411"/>
      <point x="80" y="770" type="qcurve" smooth="yes"/>
      <point x="80" y="756" type="line"/>
      <point x="584" y="664" type="line"/>
      <point x="584" y="998" type="line"/>
      <point x="584" y="998"/>
      <point x="584" y="998"/>
      <point x="584" y="998" type="qcurve"/>
      <point x="674" y="998" type="line"/>
      <point x="674" y="998"/>
      <point x="674" y="998"/>
      <point x="674" y="998" type="qcurve"/>
      <point x="674" y="566" type="line"/>
      <point x="342" y="566" type="line" smooth="yes"/>
      <point x="219" y="566"/>
      <point x="46" y="467.5"/>
      <point x="46" y="322" type="qcurve" smooth="yes"/>
      <point x="46" y="254" type="line" smooth="yes"/>
      <point x="46" y="104.589"/>
      <point x="218.246" y="0"/>
    </contour>
    <contour>
      <point x="570" y="32" type="qcurve"/>
      <point x="570" y="534" type="line"/>
      <point x="570" y="534"/>
      <point x="570" y="534"/>
      <point x="570" y="534" type="qcurve"/>
      <point x="674" y="534" type="line"/>
      <point x="674" y="32" type="line"/>
      <point x="570" y="32" type="line"/>
      <point x="570" y="32"/>
      <point x="570" y="32"/>
    </contour>
  </outline>
  <guideline angle="90" color="1,0,0,1" x="690" y="0"/>
</glyph>
<glyph name="uni0431" format="2">
  <advance width="1260"/>
  <unicode hex="0431"/>
  <outline>
    <contour>
      <point x="1145" y="1400" type="line"/>
      <point x="1145" y="1388" type="line" smooth="yes"/>
      <point x="1145" y="1369.89"/>
      <point x="1118.17" y="1351.51"/>
      <point x="1091" y="1350" type="qcurve" smooth="yes"/>
      <point x="439" y="1321" type="line" smooth="yes"/>
      <point x="245.822" y="1312.7"/>
      <point x="56" y="1121.72"/>
      <point x="56" y="921" type="qcurve" smooth="yes"/>
      <point x="56" y="265" type="line" smooth="yes"/>
      <point x="56" y="117.098"/>
      <point x="202.933" y="-6"/>
      <point x="378" y="-6" type="qcurve" smooth="yes"/>
      <point x="881" y="-6" type="line" smooth="yes"/>
      <point x="1058.33" y="-6"/>
      <point x="1204" y="117.608"/>
      <point x="1204" y="264" type="qcurve" smooth="yes"/>
      <point x="1204" y="595" type="line" smooth="yes"/>
      <point x="1204" y="735.356"/>
      <point x="1060.84" y="859"/>
      <point x="882" y="859" type="qcurve" smooth="yes"/>
      <point x="405" y="859" type="line" smooth="yes"/>
      <point x="258.608" y="859"/>
      <point x="110.865" y="775.816"/>
      <point x="92" y="683" type="qcurve"/>
      <point x="92" y="743" type="line" smooth="yes"/>
      <point x="92" y="844.871"/>
      <point x="225.184" y="950.227"/>
      <point x="318" y="954" type="qcurve" smooth="yes"/>
      <point x="872" y="977" type="line" smooth="yes"/>
      <point x="956" y="980.375"/>
      <point x="1073.56" y="1015.06"/>
      <point x="1147.44" y="1094.94"/>
      <point x="1181" y="1228.62"/>
      <point x="1181" y="1331" type="qcurve" smooth="yes"/>
      <point x="1181" y="1400" type="line"/>
    </contour>
    <contour>
      <point x="580" y="26" type="line"/>
      <point x="580" y="26"/>
      <point x="580" y="26"/>
      <point x="580" y="26" type="qcurve"/>
      <point x="580" y="827" type="line"/>
      <point x="580" y="827"/>
      <point x="580" y="827"/>
      <point x="580" y="827" type="qcurve"/>
      <point x="680" y="827" type="line"/>
      <point x="680" y="827"/>
      <point x="680" y="827"/>
      <point x="680" y="827" type="qcurve"/>
      <point x="680" y="26" type="line"/>
      <point x="680" y="26"/>
      <point x="680" y="26"/>
      <point x="680" y="26" type="qcurve"/>
    </contour>
  </outline>
</glyph>
<glyph name="uni0434" format="2">
  <advance width="1530"/>
  <unicode hex="0434"/>
  <outline>
    <contour>
      <point x="20" y="-364" type="line"/>
      <point x="354" y="-364" type="line"/>
      <point x="384" y="0" type="line"/>
      <point x="1146" y="0" type="line"/>
      <point x="1176" y="-364" type="line"/>
      <point x="1510" y="-364" type="line"/>
      <point x="1510" y="32" type="line"/>
      <point x="1354" y="32" type="line"/>
      <point x="980" y="1024" type="line"/>
      <point x="613" y="1024" type="line"/>
      <point x="257" y="32" type="line"/>
      <point x="20" y="32" type="line"/>
    </contour>
    <contour>
      <point x="290" y="32" type="line"/>
      <point x="571" y="825" type="line"/>
      <point x="846" y="32" type="line"/>
    </contour>
  </outline>
</glyph>
<glyph name="uni043B" format="2">
  <advance width="1100"/>
  <unicode hex="043B"/>
  <outline>
    <contour>
      <point x="0" y="0" type="line"/>
      <point x="33" y="0" type="line"/>
      <point x="315" y="797" type="line"/>
      <point x="591" y="0" type="line"/>
      <point x="1100" y="0" type="line"/>
      <point x="714" y="1024" type="line"/>
      <point x="367" y="1024" type="line"/>
    </contour>
  </outline>
</glyph>
<glyph name="uni0444" format="2">
  <advance width="1884"/>
  <unicode hex="0444"/>
  <outline>
    <contour>
      <point x="362" y="-4" type="qcurve" smooth="yes"/>
      <point x="604" y="-4" type="line" smooth="yes"/>
      <point x="631.166" y="-4"/>
      <point x="669.436" y="10.4172"/>
      <point x="680" y="24" type="qcurve"/>
      <point x="680" y="-428" type="line"/>
      <point x="1204" y="-428" type="line"/>
      <point x="1204" y="-4" type="line"/>
      <point x="1522" y="-4" type="line" smooth="yes"/>
      <point x="1681.98" y="-4"/>
      <point x="1828" y="118.7"/>
      <point x="1828" y="250" type="qcurve" smooth="yes"/>
      <point x="1828" y="760" type="line" smooth="yes"/>
      <point x="1828" y="898.846"/>
      <point x="1683.48" y="1024"/>
      <point x="1522" y="1024" type="qcurve" smooth="yes"/>
      <point x="1280" y="1024" type="line" smooth="yes"/>
      <point x="1252.83" y="1024"/>
      <point x="1214.56" y="1009.58"/>
      <point x="1204" y="996" type="qcurve"/>
      <point x="1204" y="1400" type="line"/>
      <point x="680" y="1400" type="line"/>
      <point x="680" y="1024" type="line"/>
      <point x="362" y="1024" type="line" smooth="yes"/>
      <point x="202.025" y="1024"/>
      <point x="56" y="901.3"/>
      <point x="56" y="770" type="qcurve" smooth="yes"/>
      <point x="56" y="260" type="line" smooth="yes"/>
      <point x="56" y="121.154"/>
      <point x="200.516" y="-4"/>
    </contour>
    <contour>
      <point x="680" y="32" type="line"/>
      <point x="580" y="32" type="line"/>
      <point x="580" y="32"/>
      <point x="580" y="32"/>
      <point x="580" y="32" type="qcurve"/>
      <point x="580" y="988" type="line"/>
      <point x="580" y="988"/>
      <point x="580" y="988"/>
      <point x="580" y="988" type="qcurve"/>
      <point x="680" y="988" type="line"/>
    </contour>
    <contour>
      <point x="1204" y="32" type="line"/>
      <point x="1204" y="988" type="line"/>
      <point x="1304" y="988" type="line"/>
      <point x="1304" y="988"/>
      <point x="1304" y="988"/>
      <point x="1304" y="988" type="qcurve"/>
      <point x="1304" y="32" type="line"/>
      <point x="1304" y="32"/>
      <point x="1304" y="32"/>
      <point x="1304" y="32" type="qcurve"/>
    </contour>
  </outline>
  <guideline angle="90" color="1,0,0,1" x="1638" y="0"/>
  <guideline angle="90" color="1,0,0,1" x="942" y="0"/>
</glyph>
<glyph name="uni0447" format="2">
  <advance width="1259"/>
  <unicode hex="0447"/>
  <anchor x="621" y="1150" name="top"/>
  <outline>
    <contour>
      <point x="671" y="0" type="line"/>
      <point x="1195" y="0" type="line"/>
      <point x="1195" y="1024" type="line"/>
      <point x="671" y="1024" type="line"/>
      <point x="671" y="266" type="line"/>
      <point x="576" y="266" type="line"/>
      <point x="576" y="266"/>
      <point x="576" y="266"/>
      <point x="576" y="266" type="qcurve"/>
      <point x="576" y="1024" type="line"/>
      <point x="52" y="1024" type="line"/>
      <point x="52" y="633" type="line" smooth="yes"/>
      <point x="52" y="443.595"/>
      <point x="238.614" y="240"/>
      <point x="425" y="240" type="qcurve" smooth="yes"/>
      <point x="671" y="240" type="line"/>
    </contour>
  </outline>
</glyph>
<glyph name="uni0448" format="2">
  <advance width="1900"/>
  <unicode hex="0448"/>
  <outline>
    <contour>
      <point x="64" y="0" type="line"/>
      <point x="1836" y="0" type="line"/>
      <point x="1836" y="1024" type="line"/>
      <point x="1312" y="1024" type="line"/>
      <point x="1312" y="32" type="line"/>
      <point x="1212" y="32" type="line"/>
      <point x="1212" y="1024" type="line"/>
      <point x="688" y="1024" type="line"/>
      <point x="688" y="32" type="line"/>
      <point x="588" y="32" type="line"/>
      <point x="588" y="1024" type="line"/>
      <point x="64" y="1024" type="line"/>
    </contour>
  </outline>
</glyph>
<glyph name="uni0453" format="2">
  <advance width="1064"/>
  <unicode hex="0453"/>
  <anchor x="561" y="1150" name="top"/>
  <outline>
    <contour>
      <point x="64" y="0" type="line"/>
      <point x="588" y="0" type="line"/>
      <point x="588" y="992" type="line"/>
      <point x="1044" y="992" type="line"/>
      <point x="1044" y="1024" type="line"/>
      <point x="64" y="1024" type="line"/>
    </contour>
    <contour>
      <point x="443" y="1076" type="line"/>
      <point x="479" y="1076" type="line"/>
      <point x="1087" y="1424" type="line"/>
      <point x="536" y="1424" type="line"/>
    </contour>
  </outline>
</glyph>
<glyph name="uni045A" format="2">
  <advance width="1898"/>
  <unicode hex="045A"/>
  <outline>
    <contour>
      <point x="72" y="0" type="line"/>
      <point x="596" y="0" type="line"/>
      <point x="596" y="516" type="line"/>
      <point x="696" y="516" type="line"/>
      <point x="696" y="0" type="line"/>
      <point x="1536" y="0" type="line" smooth="yes"/>
      <point x="1697.48" y="0"/>
      <point x="1842" y="132.927"/>
      <point x="1842" y="268" type="qcurve" smooth="yes"/>
      <point x="1842" y="506" type="line" smooth="yes"/>
      <point x="1842" y="635.791"/>
      <point x="1695.98" y="768"/>
      <point x="1536" y="768" type="qcurve" smooth="yes"/>
      <point x="1295" y="768" type="line" smooth="yes"/>
      <point x="1263.31" y="768"/>
      <point x="1226.04" y="759.301"/>
      <point x="1220" y="751" type="qcurve"/>
      <point x="1220" y="1024" type="line"/>
      <point x="696" y="1024" type="line"/>
      <point x="696" y="548" type="line"/>
      <point x="596" y="548" type="line"/>
      <point x="596" y="1024" type="line"/>
      <point x="72" y="1024" type="line"/>
    </contour>
    <contour>
      <point x="1220" y="32" type="line"/>
      <point x="1220" y="736" type="line"/>
      <point x="1318" y="736" type="line"/>
      <point x="1318" y="736"/>
      <point x="1318" y="736"/>
      <point x="1318" y="736" type="qcurve"/>
      <point x="1318" y="32" type="line"/>
      <point x="1318" y="32"/>
      <point x="1318" y="32"/>
      <point x="1318" y="32" type="qcurve"/>
    </contour>
  </outline>
  <guideline angle="90" color="1,0,0,1" x="696" y="0"/>
</glyph>
<glyph name="uni045D" format="2">
  <advance width="1331"/>
  <unicode hex="045D"/>
  <anchor x="659" y="1150" name="top"/>
  <outline>
    <contour>
      <point x="64" y="0" type="line"/>
      <point x="589" y="0" type="line"/>
      <point x="752" y="873" type="line"/>
      <point x="752" y="0" type="line"/>
      <point x="1267" y="0" type="line"/>
      <point x="1267" y="1024" type="line"/>
      <point x="742" y="1024" type="line"/>
      <point x="579" y="141" type="line"/>
      <point x="579" y="1024" type="line"/>
      <point x="64" y="1024" type="line"/>
    </contour>
    <contour>
      <point x="741" y="1076" type="line"/>
      <point x="777" y="1076" type="line"/>
      <point x="684" y="1424" type="line"/>
      <point x="133" y="1424" type="line"/>
    </contour>
  </outline>
</glyph>
<glyph name="uni046A" format="2">
  <advance width="2044"/>
  <unicode hex="046A"/>
  <outline>
    <contour>
      <point x="80" y="0" type="line"/>
      <point x="636" y="0" type="line"/>
      <point x="636" y="537" type="line" smooth="yes"/>
      <point x="636" y="605.669"/>
      <point x="681.233" y="677"/>
      <point x="725" y="677" type="qcurve" smooth="yes"/>
      <point x="736" y="677" type="line"/>
      <point x="736" y="0" type="line"/>
      <point x="1308" y="0" type="line"/>
      <point x="1308" y="677" type="line"/>
      <point x="1318" y="677" type="line" smooth="yes"/>
      <point x="1361.77" y="677"/>
      <point x="1408" y="604.914"/>
      <point x="1408" y="537" type="qcurve" smooth="yes"/>
      <point x="1408" y="0" type="line"/>
      <point x="1964" y="0" type="line"/>
      <point x="1964" y="389" type="line" smooth="yes"/>
      <point x="1964" y="478.625"/>
      <point x="1915.47" y="602.281"/>
      <point x="1805.78" y="678.969"/>
      <point x="1628.62" y="713"/>
      <point x="1500" y="713" type="qcurve" smooth="yes"/>
      <point x="1327" y="713" type="line"/>
      <point x="1842" y="1382" type="line"/>
      <point x="1842" y="1400" type="line"/>
      <point x="202" y="1400" type="line"/>
      <point x="202" y="1382" type="line"/>
      <point x="718" y="713" type="line"/>
      <point x="544" y="713" type="line" smooth="yes"/>
      <point x="415.375" y="713"/>
      <point x="238.219" y="678.969"/>
      <point x="128.531" y="602.281"/>
      <point x="80" y="478.625"/>
      <point x="80" y="389" type="qcurve" smooth="yes"/>
    </contour>
    <contour>
      <point x="1297" y="730" type="line"/>
      <point x="870" y="1364" type="line"/>
      <point x="1780" y="1364" type="line"/>
    </contour>
  </outline>
</glyph>
<glyph name="uni0493" format="2">
  <advance width="1164"/>
  <unicode hex="0493"/>
  <outline>
    <contour>
      <point x="164" y="0" type="line"/>
      <point x="688" y="0" type="line"/>
      <point x="688" y="480" type="line"/>
      <point x="946" y="480" type="line"/>
      <point x="946" y="512" type="line"/>
      <point x="688" y="512" type="line"/>
      <point x="688" y="992" type="line"/>
      <point x="1144" y="992" type="line"/>
      <point x="1144" y="1024" type="line"/>
      <point x="164" y="1024" type="line"/>
      <point x="164" y="512" type="line"/>
      <point x="64" y="512" type="line"/>
      <point x="64" y="480" type="line"/>
      <point x="164" y="480" type="line"/>
    </contour>
  </outline>
</glyph>
<glyph name="uni0499" format="2">
  <advance width="1258"/>
  <unicode hex="0499"/>
  <anchor x="622" y="1150" name="top"/>
  <anchor x="641" y="0" name="ogonek"/>
  <outline>
    <contour>
      <point x="399" y="0" type="qcurve" smooth="yes"/>
      <point x="856" y="0" type="line" smooth="yes"/>
      <point x="937" y="0"/>
      <point x="1065.38" y="28.5312"/>
      <point x="1154.62" y="91.7188"/>
      <point x="1202" y="192.625"/>
      <point x="1202" y="265" type="qcurve" smooth="yes"/>
      <point x="1202" y="285" type="line" smooth="yes"/>
      <point x="1202" y="367.251"/>
      <point x="1109.55" y="488.589"/>
      <point x="1019" y="515" type="qcurve"/>
      <point x="1101.25" y="542.92"/>
      <point x="1182" y="658.031"/>
      <point x="1182" y="735" type="qcurve" smooth="yes"/>
      <point x="1182" y="755" type="line" smooth="yes"/>
      <point x="1182" y="898.25"/>
      <point x="996.5" y="1024"/>
      <point x="839" y="1024" type="qcurve" smooth="yes"/>
      <point x="399" y="1024" type="line" smooth="yes"/>
      <point x="308.625" y="1024"/>
      <point x="174.469" y="995.594"/>
      <point x="85.7812" y="939.156"/>
      <point x="42" y="854.875"/>
      <point x="42" y="799" type="qcurve" smooth="yes"/>
      <point x="42" y="705" type="line"/>
      <point x="566" y="636" type="line"/>
      <point x="566" y="992" type="line"/>
      <point x="566" y="992"/>
      <point x="566" y="992"/>
      <point x="566" y="992" type="qcurve"/>
      <point x="596" y="992" type="line" smooth="yes"/>
      <point x="627.693" y="992"/>
      <point x="666" y="961.957"/>
      <point x="666" y="928" type="qcurve" smooth="yes"/>
      <point x="666" y="599" type="line" smooth="yes"/>
      <point x="666" y="565.043"/>
      <point x="627.693" y="535"/>
      <point x="596" y="535" type="qcurve" smooth="yes"/>
      <point x="333" y="535" type="line"/>
      <point x="333" y="503" type="line"/>
      <point x="611" y="503" type="line" smooth="yes"/>
      <point x="642.693" y="503"/>
      <point x="681" y="473.712"/>
      <point x="681" y="439" type="qcurve" smooth="yes"/>
      <point x="681" y="96" type="line" smooth="yes"/>
      <point x="681" y="77.625"/>
      <point x="668.219" y="53.0312"/>
      <point x="645.531" y="38.2188"/>
      <point x="614.375" y="32"/>
      <point x="596" y="32" type="qcurve" smooth="yes"/>
      <point x="566" y="32" type="line"/>
      <point x="566" y="32"/>
      <point x="566" y="32"/>
      <point x="566" y="32" type="qcurve"/>
      <point x="566" y="396" type="line"/>
      <point x="42" y="328" type="line"/>
      <point x="42" y="234" type="line" smooth="yes"/>
      <point x="42" y="164.25"/>
      <point x="90.8438" y="73.6875"/>
      <point x="182.906" y="20.8125"/>
      <point x="315.375" y="0"/>
    </contour>
    <contour>
      <point x="594.163" y="-425" type="qcurve" smooth="yes"/>
      <point x="702.041" y="-425"/>
      <point x="874" y="-317.669"/>
      <point x="874" y="-249" type="qcurve"/>
      <point x="848.344" y="-192.405"/>
      <point x="785.656" y="-56.595"/>
      <point x="760" y="0" type="qcurve"/>
      <point x="723" y="0" type="line"/>
      <point x="734.319" y="-19.6196"/>
      <point x="745" y="-54.3407"/>
      <point x="745" y="-70.7632" type="qcurve" smooth="yes"/>
      <point x="745" y="-124.518"/>
      <point x="639.898" y="-190"/>
      <point x="547.333" y="-190" type="qcurve" smooth="yes"/>
      <point x="501.051" y="-190"/>
      <point x="400.184" y="-173.583"/>
      <point x="370" y="-160" type="qcurve"/>
      <point x="424" y="-383" type="line"/>
      <point x="463.239" y="-404.129"/>
      <point x="546.594" y="-425"/>
    </contour>
  </outline>
</glyph>
<glyph name="uni049B" format="2">
  <advance width="1527"/>
  <unicode hex="049B"/>
  <outline>
    <contour>
      <point x="72" y="0" type="line"/>
      <point x="596" y="0" type="line"/>
      <point x="596" y="429" type="line"/>
      <point x="792" y="0" type="line"/>
      <point x="1101" y="0" type="line"/>
      <point x="1196" y="-260" type="line"/>
      <point x="1527" y="-260" type="line"/>
      <point x="1527" y="32" type="line"/>
      <point x="1373" y="32" type="line"/>
      <point x="973" y="795" type="line"/>
      <point x="1317" y="1024" type="line"/>
      <point x="1258" y="1021" type="line"/>
      <point x="596" y="582" type="line"/>
      <point x="596" y="1024" type="line"/>
      <point x="72" y="1024" type="line"/>
    </contour>
  </outline>
  <guideline angle="90" color="1,0,0,1" x="1317" y="0"/>
  <guideline angle="117.666" color="1,0,0,1" x="1373" y="32"/>
</glyph>
<glyph name="uni049C" format="2">
  <advance width="1607"/>
  <unicode hex="049C"/>
  <outline>
    <contour>
      <point x="80" y="0" type="line"/>
      <point x="652" y="0" type="line"/>
      <point x="652" y="728" type="line"/>
      <point x="702" y="728" type="line"/>
      <point x="702" y="280" type="line"/>
      <point x="738" y="280" type="line"/>
      <point x="738" y="1120" type="line"/>
      <point x="702" y="1120" type="line"/>
      <point x="702" y="764" type="line"/>
      <point x="652" y="764" type="line"/>
      <point x="652" y="1400" type="line"/>
      <point x="80" y="1400" type="line"/>
    </contour>
    <contour>
      <point x="712" y="757" type="line"/>
      <point x="965" y="0" type="line"/>
      <point x="1617" y="0" type="line"/>
      <point x="1143" y="1081" type="line"/>
      <point x="1501" y="1400" type="line"/>
      <point x="1444" y="1400" type="line"/>
    </contour>
  </outline>
</glyph>
<glyph name="uni04BA" format="2">
  <advance width="1393"/>
  <unicode hex="04BA"/>
  <anchor x="696" y="-150" name="top"/>
  <outline>
    <contour>
      <point x="650" y="1400" type="line"/>
      <point x="80" y="1400" type="line"/>
      <point x="80" y="0" type="line"/>
      <point x="650" y="0" type="line"/>
      <point x="650" y="934" type="line"/>
      <point x="740" y="934" type="line"/>
      <point x="740" y="934"/>
      <point x="740" y="934"/>
      <point x="740" y="934" type="qcurve"/>
      <point x="740" y="0" type="line"/>
      <point x="1313" y="0" type="line"/>
      <point x="1313" y="586" type="line" smooth="yes"/>
      <point x="1313" y="688.75"/>
      <point x="1256.94" y="834.438"/>
      <point x="1151.56" y="927.062"/>
      <point x="1000.25" y="970"/>
      <point x="905" y="970" type="qcurve" smooth="yes"/>
      <point x="650" y="970" type="line"/>
    </contour>
  </outline>
</glyph>
<glyph name="uni04F5" format="2">
  <advance width="1259"/>
  <unicode hex="04F5"/>
  <anchor x="621" y="1513" name="top"/>
  <outline>
    <contour>
      <point x="671" y="0" type="line"/>
      <point x="1195" y="0" type="line"/>
      <point x="1195" y="1024" type="line"/>
      <point x="671" y="1024" type="line"/>
      <point x="671" y="266" type="line"/>
      <point x="576" y="266" type="line"/>
      <point x="576" y="266"/>
      <point x="576" y="266"/>
      <point x="576" y="266" type="qcurve"/>
      <point x="576" y="1024" type="line"/>
      <point x="52" y="1024" type="line"/>
      <point x="52" y="633" type="line" smooth="yes"/>
      <point x="52" y="443.595"/>
      <point x="238.614" y="240"/>
      <point x="425" y="240" type="qcurve" smooth="yes"/>
      <point x="671" y="240" type="line"/>
    </contour>
    <contour>
      <point x="295" y="1088" type="qcurve" smooth="yes"/>
      <point x="427" y="1088" type="line" smooth="yes"/>
      <point x="508.497" y="1088"/>
      <point x="537" y="1116.5"/>
      <point x="537" y="1198" type="qcurve" smooth="yes"/>
      <point x="537" y="1320" type="line" smooth="yes"/>
      <point x="537" y="1399.99"/>
      <point x="508.497" y="1428"/>
      <point x="427" y="1428" type="qcurve" smooth="yes"/>
      <point x="295" y="1428" type="line" smooth="yes"/>
      <point x="213.503" y="1428"/>
      <point x="185" y="1399.99"/>
      <point x="185" y="1320" type="qcurve" smooth="yes"/>
      <point x="185" y="1198" type="line" smooth="yes"/>
      <point x="185" y="1116.5"/>
      <point x="213.503" y="1088"/>
    </contour>
    <contour>
      <point x="815" y="1088" type="qcurve" smooth="yes"/>
      <point x="947" y="1088" type="line" smooth="yes"/>
      <point x="1028.5" y="1088"/>
      <point x="1057" y="1116.5"/>
      <point x="1057" y="1198" type="qcurve" smooth="yes"/>
      <point x="1057" y="1320" type="line" smooth="yes"/>
      <point x="1057" y="1399.99"/>
      <point x="1028.5" y="1428"/>
      <point x="947" y="1428" type="qcurve" smooth="yes"/>
      <point x="815" y="1428" type="line" smooth="yes"/>
      <point x="733.503" y="1428"/>
      <point x="705" y="1399.99"/>
      <point x="705" y="1320" type="qcurve" smooth="yes"/>
      <point x="705" y="1198" type="line" smooth="yes"/>
      <point x="705" y="1116.5"/>
      <point x="733.503" y="1088"/>
    </contour>
  </outline>
</glyph>
<glyph name="uni051A" format="2">
  <advance width="1372"/>
  <unicode hex="051A"/>
  <anchor x="686" y="1550" name="top"/>
  <anchor x="686" y="-438" name="bottom"/>
  <outline>
    <contour>
      <point x="64" y="1076" type="qcurve" smooth="yes"/>
      <point x="64" y="336" type="line" smooth="yes"/>
      <point x="64" y="129.24"/>
      <point x="276.786" y="-10"/>
      <point x="476" y="-10" type="qcurve" smooth="yes"/>
      <point x="894" y="-10" type="line" smooth="yes"/>
      <point x="1093.21" y="-10"/>
      <point x="1308" y="127.73"/>
      <point x="1308" y="336" type="qcurve" smooth="yes"/>
      <point x="1308" y="1076" type="line" smooth="yes"/>
      <point x="1308" y="1277"/>
      <point x="1083" y="1410"/>
      <point x="894" y="1410" type="qcurve" smooth="yes"/>
      <point x="476" y="1410" type="line" smooth="yes"/>
      <point x="287" y="1410"/>
      <point x="64" y="1277"/>
    </contour>
    <contour>
      <point x="636" y="1374" type="line"/>
      <point x="636" y="1374"/>
      <point x="636" y="1374"/>
      <point x="636" y="1374" type="qcurve"/>
      <point x="736" y="1374" type="line"/>
      <point x="736" y="1374"/>
      <point x="736" y="1374"/>
      <point x="736" y="1374" type="qcurve"/>
      <point x="736" y="26" type="line"/>
      <point x="736" y="26"/>
      <point x="736" y="26"/>
      <point x="736" y="26" type="qcurve"/>
      <point x="636" y="26" type="line"/>
      <point x="636" y="26"/>
      <point x="636" y="26"/>
      <point x="636" y="26" type="qcurve"/>
    </contour>
    <contour>
      <point x="665" y="-282" type="line"/>
      <point x="1035" y="-282" type="line"/>
      <point x="974" y="537" type="line"/>
      <point x="665" y="526" type="line"/>
    </contour>
  </outline>
</glyph>
<glyph name="uni1EAA" format="2">
  <advance width="1234"/>
  <unicode hex="1EAA"/>
  <anchor x="608" y="1550" name="top"/>
  <anchor x="578" y="-150" name="bottom"/>
  <anchor x="641" y="0" name="ogonek_in"/>
  <outline>
    <contour>
      <point x="-10" y="0" type="line"/>
      <point x="29" y="0" type="line"/>
      <point x="122" y="298" type="line"/>
      <point x="552" y="298" type="line"/>
      <point x="641" y="0" type="line"/>
      <point x="1244" y="0" type="line"/>
      <point x="803" y="1400" type="line"/>
      <point x="430" y="1400" type="line"/>
    </contour>
    <contour>
      <point x="134" y="334" type="line"/>
      <point x="343" y="1002" type="line"/>
      <point x="542" y="334" type="line"/>
    </contour>
    <contour>
      <point x="288" y="1476" type="line"/>
      <point x="323" y="1476" type="line"/>
      <point x="461" y="1743" type="line"/>
      <point x="610" y="1476" type="line"/>
      <point x="964" y="1476" type="line"/>
      <point x="757" y="1776" type="line"/>
      <point x="443" y="1776" type="line"/>
    </contour>
    <contour>
      <point x="298" y="1885" type="qcurve"/>
      <point x="328" y="1880" type="line"/>
      <point x="337.055" y="1916.22"/>
      <point x="376.307" y="1951"/>
      <point x="408" y="1951" type="qcurve" smooth="yes"/>
      <point x="438.375" y="1951"/>
      <point x="507.625" y="1924.75"/>
      <point x="586.375" y="1893.25"/>
      <point x="675.125" y="1867"/>
      <point x="725" y="1867" type="qcurve" smooth="yes"/>
      <point x="814.043" y="1867"/>
      <point x="899.89" y="1980.63"/>
      <point x="918" y="2124" type="qcurve"/>
      <point x="888" y="2129" type="line"/>
      <point x="878.945" y="2092.78"/>
      <point x="839.693" y="2058"/>
      <point x="808" y="2058" type="qcurve" smooth="yes"/>
      <point x="777.625" y="2058"/>
      <point x="705.719" y="2084.25"/>
      <point x="626.031" y="2115.75"/>
      <point x="540.25" y="2142"/>
      <point x="496" y="2142" type="qcurve" smooth="yes"/>
      <point x="411.485" y="2142"/>
      <point x="318.374" y="2021.58"/>
    </contour>
  </outline>
  <guideline angle="90" x="358" y="0"/>
  <guideline angle="90" x="1038" y="0"/>
  <guideline angle="90" x="388" y="0"/>
  <guideline angle="90" x="1008" y="0"/>
</glyph>
<glyph name="uni1EB5" format="2">
  <advance width="1286"/>
  <unicode hex="1EB5"/>
  <anchor x="629" y="1174" name="top"/>
  <anchor x="632" y="-162" name="bottom"/>
  <anchor x="711" y="0" name="ogonek"/>
  <outline>
    <contour>
      <point x="342" y="0" type="qcurve" smooth="yes"/>
      <point x="598" y="0" type="line" smooth="yes"/>
      <point x="625.166" y="0"/>
      <point x="663.436" y="14.4172"/>
      <point x="674" y="28" type="qcurve"/>
      <point x="674" y="0" type="line"/>
      <point x="1198" y="0" type="line"/>
      <point x="1198" y="754" type="line" smooth="yes"/>
      <point x="1198" y="923.03"/>
      <point x="1034.81" y="1030"/>
      <point x="902" y="1030" type="qcurve" smooth="yes"/>
      <point x="376" y="1030" type="line" smooth="yes"/>
      <point x="243.19" y="1030"/>
      <point x="80" y="919.411"/>
      <point x="80" y="770" type="qcurve" smooth="yes"/>
      <point x="80" y="756" type="line"/>
      <point x="584" y="664" type="line"/>
      <point x="584" y="998" type="line"/>
      <point x="584" y="998"/>
      <point x="584" y="998"/>
      <point x="584" y="998" type="qcurve"/>
      <point x="674" y="998" type="line"/>
      <point x="674" y="998"/>
      <point x="674" y="998"/>
      <point x="674" y="998" type="qcurve"/>
      <point x="674" y="566" type="line"/>
      <point x="342" y="566" type="line" smooth="yes"/>
      <point x="219" y="566"/>
      <point x="46" y="467.5"/>
      <point x="46" y="322" type="qcurve" smooth="yes"/>
      <point x="46" y="254" type="line" smooth="yes"/>
      <point x="46" y="104.589"/>
      <point x="218.246" y="0"/>
    </contour>
    <contour>
      <point x="570" y="32" type="qcurve"/>
      <point x="570" y="534" type="line"/>
      <point x="570" y="534"/>
      <point x="570" y="534"/>
      <point x="570" y="534" type="qcurve"/>
      <point x="674" y="534" type="line"/>
      <point x="674" y="32" type="line"/>
      <point x="570" y="32" type="line"/>
      <point x="570" y="32"/>
      <point x="570" y="32"/>
    </contour>
    <contour>
      <point x="630" y="1086" type="qcurve" smooth="yes"/>
      <point x="743.625" y="1086"/>
      <point x="883.594" y="1109.31"/>
      <point x="960.656" y="1177.19"/>
      <point x="987" y="1300.25"/>
      <point x="987" y="1400" type="qcurve"/>
      <point x="732" y="1400" type="line"/>
      <point x="732" y="1307.38"/>
      <point x="725.062" y="1196.09"/>
      <point x="702.938" y="1136.66"/>
      <point x="661.5" y="1118"/>
      <point x="627" y="1118" type="qcurve" smooth="yes"/>
      <point x="593.25" y="1118"/>
      <point x="552.625" y="1136.38"/>
      <point x="530.875" y="1195.62"/>
      <point x="524" y="1307"/>
      <point x="524" y="1400" type="qcurve"/>
      <point x="269" y="1400" type="line"/>
      <point x="269" y="1300.25"/>
      <point x="296.031" y="1177.19"/>
      <point x="374.219" y="1109.31"/>
      <point x="515.625" y="1086"/>
    </contour>
    <contour>
      <point x="319" y="1509" type="qcurve"/>
      <point x="349" y="1504" type="line"/>
      <point x="358.055" y="1540.22"/>
      <point x="397.307" y="1575"/>
      <point x="429" y="1575" type="qcurve" smooth="yes"/>
      <point x="459.375" y="1575"/>
      <point x="528.625" y="1548.75"/>
      <point x="607.375" y="1517.25"/>
      <point x="696.125" y="1491"/>
      <point x="746" y="1491" type="qcurve" smooth="yes"/>
      <point x="835.043" y="1491"/>
      <point x="920.89" y="1604.63"/>
      <point x="939" y="1748" type="qcurve"/>
      <point x="909" y="1753" type="line"/>
      <point x="899.945" y="1716.78"/>
      <point x="860.693" y="1682"/>
      <point x="829" y="1682" type="qcurve" smooth="yes"/>
      <point x="798.625" y="1682"/>
      <point x="726.719" y="1708.25"/>
      <point x="647.031" y="1739.75"/>
      <point x="561.25" y="1766"/>
      <point x="517" y="1766" type="qcurve" smooth="yes"/>
      <point x="432.485" y="1766"/>
      <point x="339.374" y="1645.58"/>
    </contour>
  </outline>
  <guideline angle="90" color="1,0,0,1" x="690" y="0"/>
  <guideline angle="90" x="289" y="0"/>
  <guideline angle="90" x="969" y="0"/>
  <guideline angle="90" x="319" y="0"/>
  <guideline angle="90" x="939" y="0"/>
</glyph>
<glyph name="uni1EBB" format="2">
  <advance width="1260"/>
  <unicode hex="1EBB"/>
  <anchor x="630" y="1174" name="top"/>
  <anchor x="630" y="-150" name="bottom"/>
  <anchor x="786" y="0" name="ogonek"/>
  <outline>
    <contour>
      <point x="56" y="304" type="line" smooth="yes"/>
      <point x="56" y="141.006"/>
      <point x="236.675" y="-6"/>
      <point x="454" y="-6" type="qcurve" smooth="yes"/>
      <point x="786" y="-6" type="line" smooth="yes"/>
      <point x="1003.32" y="-6"/>
      <point x="1204" y="105.571"/>
      <point x="1204" y="258" type="qcurve" smooth="yes"/>
      <point x="1204" y="270" type="line"/>
      <point x="680" y="368" type="line"/>
      <point x="680" y="26" type="line"/>
      <point x="680" y="26"/>
      <point x="680" y="26"/>
      <point x="680" y="26" type="qcurve"/>
      <point x="580" y="26" type="line"/>
      <point x="580" y="26"/>
      <point x="580" y="26"/>
      <point x="580" y="26" type="qcurve"/>
      <point x="580" y="516" type="line"/>
      <point x="1204" y="516" type="line"/>
      <point x="1204" y="730" type="line" smooth="yes"/>
      <point x="1204" y="888.466"/>
      <point x="1003.32" y="1030"/>
      <point x="786" y="1030" type="qcurve" smooth="yes"/>
      <point x="454" y="1030" type="line" smooth="yes"/>
      <point x="238.184" y="1030"/>
      <point x="56" y="886.957"/>
      <point x="56" y="730" type="qcurve" smooth="yes"/>
    </contour>
    <contour>
      <point x="580" y="548" type="line"/>
      <point x="580" y="998" type="line"/>
      <point x="580" y="998"/>
      <point x="580" y="998"/>
      <point x="580" y="998" type="qcurve"/>
      <point x="680" y="998" type="line"/>
      <point x="680" y="998"/>
      <point x="680" y="998"/>
      <point x="680" y="998" type="qcurve"/>
      <point x="680" y="548" type="line"/>
    </contour>
    <contour>
      <point x="520" y="1100" type="qcurve"/>
      <point x="657" y="1100" type="line"/>
      <point x="731.705" y="1127.17"/>
      <point x="841" y="1230.03"/>
      <point x="841" y="1307" type="qcurve" smooth="yes"/>
      <point x="841" y="1383.97"/>
      <point x="724.589" y="1480"/>
      <point x="628" y="1480" type="qcurve" smooth="yes"/>
      <point x="567.632" y="1480"/>
      <point x="470.147" y="1445.13"/>
      <point x="446" y="1424" type="qcurve"/>
      <point x="463" y="1399" type="line"/>
      <point x="475.074" y="1408.81"/>
      <point x="501.417" y="1423"/>
      <point x="515" y="1423" type="qcurve" smooth="yes"/>
      <point x="547.448" y="1423"/>
      <point x="574" y="1359.03"/>
      <point x="574" y="1313" type="qcurve" smooth="yes"/>
      <point x="574" y="1263.2"/>
      <point x="547.166" y="1158.86"/>
    </contour>
  </outline>
  <guideline angle="0" color="1,0,0,1" x="0" y="-1030"/>
</glyph>
<glyph name="uni1EBC" format="2">
  <advance width="1100"/>
  <unicode hex="1EBC"/>
  <anchor x="585" y="1982" name="top"/>
  <anchor x="585" y="-150" name="bottom"/>
  <anchor x="711" y="0" name="ogonek"/>
  <outline>
    <contour>
      <point x="80" y="0" type="line"/>
      <point x="1090" y="0" type="line"/>
      <point x="1090" y="36" type="line"/>
      <point x="652" y="36" type="line"/>
      <point x="652" y="700" type="line"/>
      <point x="1036" y="700" type="line"/>
      <point x="1036" y="736" type="line"/>
      <point x="652" y="736" type="line"/>
      <point x="652" y="1364" type="line"/>
      <point x="1076" y="1364" type="line"/>
      <point x="1076" y="1400" type="line"/>
      <point x="80" y="1400" type="line"/>
    </contour>
    <contour>
      <point x="245" y="1505" type="qcurve"/>
      <point x="275" y="1500" type="line"/>
      <point x="280.282" y="1519.62"/>
      <point x="311.687" y="1571"/>
      <point x="363" y="1571" type="qcurve" smooth="yes"/>
      <point x="396.375" y="1571"/>
      <point x="472.781" y="1544.75"/>
      <point x="556.969" y="1513.25"/>
      <point x="648" y="1487"/>
      <point x="696" y="1487" type="qcurve" smooth="yes"/>
      <point x="751.5" y="1487"/>
      <point x="829.625" y="1547.41"/>
      <point x="882.875" y="1648.84"/>
      <point x="915.25" y="1781.62"/>
      <point x="925" y="1854" type="qcurve"/>
      <point x="895" y="1859" type="line"/>
      <point x="889.718" y="1839.38"/>
      <point x="858.313" y="1788"/>
      <point x="807" y="1788" type="qcurve" smooth="yes"/>
      <point x="773.625" y="1788"/>
      <point x="697.219" y="1814.25"/>
      <point x="613.031" y="1845.75"/>
      <point x="522" y="1872"/>
      <point x="474" y="1872" type="qcurve" smooth="yes"/>
      <point x="418.5" y="1872"/>
      <point x="340.375" y="1816.09"/>
      <point x="287.125" y="1717.66"/>
      <point x="254.75" y="1583.38"/>
    </contour>
  </outline>
  <guideline angle="90" x="-18" y="0"/>
  <guideline angle="90" x="245" y="0"/>
  <guideline angle="90" x="925" y="0"/>
  <guideline angle="90" x="275" y="0"/>
  <guideline angle="90" x="895" y="0"/>
</glyph>
<glyph name="uni1EE1" format="2">
  <advance width="1631"/>
  <unicode hex="1EE1"/>
  <anchor x="630" y="1531" name="top"/>
  <anchor x="630" y="-150" name="bottom"/>
  <anchor x="1204" y="776" name="horn"/>
  <anchor x="649" y="0" name="ogonek"/>
  <outline>
    <contour>
      <point x="56" y="258" type="line" smooth="yes"/>
      <point x="56" y="119.154"/>
      <point x="200.516" y="-6"/>
      <point x="362" y="-6" type="qcurve" smooth="yes"/>
      <point x="898" y="-6" type="line" smooth="yes"/>
      <point x="1060.99" y="-6"/>
      <point x="1204" y="119.154"/>
      <point x="1204" y="258" type="qcurve" smooth="yes"/>
      <point x="1204" y="776" type="line" smooth="yes"/>
      <point x="1204" y="907.3"/>
      <point x="1057.98" y="1030"/>
      <point x="898" y="1030" type="qcurve" smooth="yes"/>
      <point x="362" y="1030" type="line" smooth="yes"/>
      <point x="202.025" y="1030"/>
      <point x="56" y="907.3"/>
      <point x="56" y="776" type="qcurve" smooth="yes"/>
    </contour>
    <contour>
      <point x="580" y="26" type="qcurve"/>
      <point x="580" y="998" type="line"/>
      <point x="580" y="998"/>
      <point x="580" y="998"/>
      <point x="580" y="998" type="qcurve"/>
      <point x="680" y="998" type="line"/>
      <point x="680" y="998"/>
      <point x="680" y="998"/>
      <point x="680" y="998" type="qcurve"/>
      <point x="680" y="26" type="line"/>
      <point x="680" y="26"/>
      <point x="680" y="26"/>
      <point x="680" y="26" type="qcurve"/>
      <point x="580" y="26" type="line"/>
      <point x="580" y="26"/>
      <point x="580" y="26"/>
    </contour>
    <contour>
      <point x="1206" y="746" type="line"/>
      <point x="1342.88" y="746"/>
      <point x="1509.91" y="778.781"/>
      <point x="1600.84" y="838.969"/>
      <point x="1631" y="923.875"/>
      <point x="1631" y="976" type="qcurve" smooth="yes"/>
      <point x="1631" y="1024.29"/>
      <point x="1619.83" y="1104.76"/>
      <point x="1607" y="1144" type="qcurve"/>
      <point x="1258" y="1076" type="line"/>
      <point x="1266.3" y="1032.23"/>
      <point x="1272" y="936.031"/>
      <point x="1272" y="890" type="qcurve" smooth="yes"/>
      <point x="1272" y="843.215"/>
      <point x="1242.22" y="776"/>
      <point x="1206" y="776" type="qcurve"/>
    </contour>
    <contour>
      <point x="290" y="1129" type="qcurve"/>
      <point x="320" y="1124" type="line"/>
      <point x="325.282" y="1143.62"/>
      <point x="356.687" y="1195"/>
      <point x="408" y="1195" type="qcurve" smooth="yes"/>
      <point x="441.375" y="1195"/>
      <point x="524" y="1168.75"/>
      <point x="614" y="1137.25"/>
      <point x="707.125" y="1111"/>
      <point x="751" y="1111" type="qcurve" smooth="yes"/>
      <point x="862" y="1111"/>
      <point x="950.5" y="1293.25"/>
      <point x="970" y="1438" type="qcurve"/>
      <point x="940" y="1443" type="line"/>
      <point x="934.718" y="1423.38"/>
      <point x="903.313" y="1372"/>
      <point x="852" y="1372" type="qcurve" smooth="yes"/>
      <point x="818.625" y="1372"/>
      <point x="736.281" y="1398.25"/>
      <point x="646.469" y="1429.75"/>
      <point x="553.25" y="1456"/>
      <point x="509" y="1456" type="qcurve" smooth="yes"/>
      <point x="398" y="1456"/>
      <point x="309.5" y="1285.75"/>
    </contour>
  </outline>
  <guideline angle="90" x="290" y="0"/>
  <guideline angle="90" x="970" y="0"/>
  <guideline angle="90" x="320" y="0"/>
  <guideline angle="90" x="940" y="0"/>
</glyph>
<glyph name="uni1EE2" format="2">
  <advance width="1806"/>
  <unicode hex="1EE2"/>
  <anchor x="672" y="1560" name="top"/>
  <anchor x="672" y="-160" name="bottom"/>
  <anchor x="1294" y="1076" name="horn"/>
  <anchor x="691" y="0" name="ogonek"/>
  <outline>
    <contour>
      <point x="64" y="1076" type="qcurve" smooth="yes"/>
      <point x="64" y="336" type="line" smooth="yes"/>
      <point x="64" y="129.24"/>
      <point x="276.786" y="-10"/>
      <point x="476" y="-10" type="qcurve" smooth="yes"/>
      <point x="894" y="-10" type="line" smooth="yes"/>
      <point x="1093.21" y="-10"/>
      <point x="1308" y="127.73"/>
      <point x="1308" y="336" type="qcurve" smooth="yes"/>
      <point x="1308" y="1076" type="line" smooth="yes"/>
      <point x="1308" y="1277"/>
      <point x="1083" y="1410"/>
      <point x="894" y="1410" type="qcurve" smooth="yes"/>
      <point x="476" y="1410" type="line" smooth="yes"/>
      <point x="287" y="1410"/>
      <point x="64" y="1277"/>
    </contour>
    <contour>
      <point x="636" y="1374" type="line"/>
      <point x="636" y="1374"/>
      <point x="636" y="1374"/>
      <point x="636" y="1374" type="qcurve"/>
      <point x="736" y="1374" type="line"/>
      <point x="736" y="1374"/>
      <point x="736" y="1374"/>
      <point x="736" y="1374" type="qcurve"/>
      <point x="736" y="26" type="line"/>
      <point x="736" y="26"/>
      <point x="736" y="26"/>
      <point x="736" y="26" type="qcurve"/>
      <point x="636" y="26" type="line"/>
      <point x="636" y="26"/>
      <point x="636" y="26"/>
      <point x="636" y="26" type="qcurve"/>
    </contour>
    <contour>
      <point x="1294" y="1042" type="line"/>
      <point x="1462.75" y="1042"/>
      <point x="1668.06" y="1076"/>
      <point x="1779.44" y="1140.5"/>
      <point x="1816" y="1233.75"/>
      <point x="1816" y="1293" type="qcurve" smooth="yes"/>
      <point x="1816" y="1329.98"/>
      <point x="1804.09" y="1408.99"/>
      <point x="1789" y="1452" type="qcurve"/>
      <point x="1360" y="1372" type="line"/>
      <point x="1366.79" y="1330.5"/>
      <point x="1373" y="1259.43"/>
      <point x="1373" y="1230" type="qcurve" smooth="yes"/>
      <point x="1373" y="1153.03"/>
      <point x="1337.01" y="1076"/>
      <point x="1294" y="1076" type="qcurve"/>
    </contour>
    <contour>
      <point x="586" y="-461" type="qcurve" smooth="yes"/>
      <point x="758" y="-461" type="line" smooth="yes"/>
      <point x="839.497" y="-461"/>
      <point x="868" y="-432.497"/>
      <point x="868" y="-351" type="qcurve" smooth="yes"/>
      <point x="868" y="-219" type="line" smooth="yes"/>
      <point x="868" y="-139.012"/>
      <point x="839.497" y="-111"/>
      <point x="758" y="-111" type="qcurve" smooth="yes"/>
      <point x="586" y="-111" type="line" smooth="yes"/>
      <point x="504.503" y="-111"/>
      <point x="476" y="-139.012"/>
      <point x="476" y="-219" type="qcurve" smooth="yes"/>
      <point x="476" y="-351" type="line" smooth="yes"/>
      <point x="476" y="-432.497"/>
      <point x="504.503" y="-461"/>
    </contour>
  </outline>
  <guideline angle="0" x="0" y="-110"/>
</glyph>
<glyph name="uni1EED" format="2">
  <advance width="1631"/>
  <unicode hex="1EED"/>
  <anchor x="634" y="1174" name="top"/>
  <anchor x="634" y="-150" name="bottom"/>
  <anchor x="653" y="0" name="ogonek"/>
  <anchor x="1204" y="1024" name="horn"/>
  <outline>
    <contour>
      <point x="64" y="204" type="line" smooth="yes"/>
      <point x="64" y="77.2272"/>
      <point x="193.301" y="0"/>
      <point x="308" y="0" type="qcurve" smooth="yes"/>
      <point x="958" y="0" type="line" smooth="yes"/>
      <point x="1072.7" y="0"/>
      <point x="1204" y="77.2272"/>
      <point x="1204" y="204" type="qcurve" smooth="yes"/>
      <point x="1204" y="1024" type="line"/>
      <point x="680" y="1024" type="line"/>
      <point x="680" y="32" type="line"/>
      <point x="680" y="32"/>
      <point x="680" y="32"/>
      <point x="680" y="32" type="qcurve"/>
      <point x="588" y="32" type="line"/>
      <point x="588" y="32"/>
      <point x="588" y="32"/>
      <point x="588" y="32" type="qcurve"/>
      <point x="588" y="1024" type="line"/>
      <point x="64" y="1024" type="line"/>
    </contour>
    <contour>
      <point x="1206" y="994" type="line"/>
      <point x="1342.88" y="994"/>
      <point x="1509.91" y="1026.78"/>
      <point x="1600.84" y="1086.97"/>
      <point x="1631" y="1171.88"/>
      <point x="1631" y="1224" type="qcurve" smooth="yes"/>
      <point x="1631" y="1272.29"/>
      <point x="1619.83" y="1352.76"/>
      <point x="1607" y="1392" type="qcurve"/>
      <point x="1258" y="1324" type="line"/>
      <point x="1266.3" y="1280.23"/>
      <point x="1272" y="1184.03"/>
      <point x="1272" y="1138" type="qcurve" smooth="yes"/>
      <point x="1272" y="1091.21"/>
      <point x="1242.22" y="1024"/>
      <point x="1206" y="1024" type="qcurve"/>
    </contour>
    <contour>
      <point x="524" y="1100" type="qcurve"/>
      <point x="661" y="1100" type="line"/>
      <point x="735.705" y="1127.17"/>
      <point x="845" y="1230.03"/>
      <point x="845" y="1307" type="qcurve" smooth="yes"/>
      <point x="845" y="1383.97"/>
      <point x="728.589" y="1480"/>
      <point x="632" y="1480" type="qcurve" smooth="yes"/>
      <point x="571.632" y="1480"/>
      <point x="474.147" y="1445.13"/>
      <point x="450" y="1424" type="qcurve"/>
      <point x="467" y="1399" type="line"/>
      <point x="479.074" y="1408.81"/>
      <point x="505.417" y="1423"/>
      <point x="519" y="1423" type="qcurve" smooth="yes"/>
      <point x="551.448" y="1423"/>
      <point x="578" y="1359.03"/>
      <point x="578" y="1313" type="qcurve" smooth="yes"/>
      <point x="578" y="1263.2"/>
      <point x="551.166" y="1158.86"/>
    </contour>
  </outline>
</glyph>
<glyph name="emdash" format="2">
  <advance width="1548"/>
  <unicode hex="2014"/>
  <outline>
    <contour>
      <point x="0" y="628" type="line"/>
      <point x="0" y="596" type="line"/>
      <point x="1548" y="596" type="line"/>
      <point x="1548" y="628" type="line"/>
    </contour>
  </outline>
  <guideline angle="0" x="0" y="612"/>
</glyph>
<glyph name="quotesinglbase" format="2">
  <advance width="674"/>
  <unicode hex="201A"/>
  <outline>
    <contour>
      <point x="296" y="-346" type="line"/>
      <point x="558" y="0" type="line"/>
      <point x="583.656" y="31.6932"/>
      <point x="602" y="90.4418"/>
      <point x="602" y="141" type="qcurve" smooth="yes"/>
      <point x="602" y="385" type="line" smooth="yes"/>
      <point x="602" y="474.043"/>
      <point x="551.552" y="524"/>
      <point x="461" y="524" type="qcurve" smooth="yes"/>
      <point x="213" y="524" type="line" smooth="yes"/>
      <point x="123" y="524"/>
      <point x="72" y="473.5"/>
      <point x="72" y="385" type="qcurve" smooth="yes"/>
      <point x="72" y="141" type="line" smooth="yes"/>
      <point x="72" y="50.448"/>
      <point x="122.448" y="0"/>
      <point x="213" y="0" type="qcurve" smooth="yes"/>
      <point x="450" y="0" type="line"/>
      <point x="269" y="-340" type="line"/>
    </contour>
  </outline>
</glyph>
<glyph name="quotedblleft" format="2">
  <advance width="1276"/>
  <unicode hex="201C"/>
  <outline>
    <contour>
      <point x="378" y="1528" type="line"/>
      <point x="116" y="1182" type="line"/>
      <point x="90.3436" y="1150.31"/>
      <point x="72" y="1091.56"/>
      <point x="72" y="1041" type="qcurve" smooth="yes"/>
      <point x="72" y="797" type="line" smooth="yes"/>
      <point x="72" y="707.957"/>
      <point x="122.448" y="658"/>
      <point x="213" y="658" type="qcurve" smooth="yes"/>
      <point x="461" y="658" type="line" smooth="yes"/>
      <point x="551" y="658"/>
      <point x="602" y="708.5"/>
      <point x="602" y="797" type="qcurve" smooth="yes"/>
      <point x="602" y="1041" type="line" smooth="yes"/>
      <point x="602" y="1131.55"/>
      <point x="551.552" y="1182"/>
      <point x="461" y="1182" type="qcurve" smooth="yes"/>
      <point x="224" y="1182" type="line"/>
      <point x="405" y="1522" type="line"/>
    </contour>
    <contour>
      <point x="980" y="1528" type="line"/>
      <point x="718" y="1182" type="line"/>
      <point x="692.344" y="1150.31"/>
      <point x="674" y="1091.56"/>
      <point x="674" y="1041" type="qcurve" smooth="yes"/>
      <point x="674" y="797" type="line" smooth="yes"/>
      <point x="674" y="707.957"/>
      <point x="724.448" y="658"/>
      <point x="815" y="658" type="qcurve" smooth="yes"/>
      <point x="1063" y="658" type="line" smooth="yes"/>
      <point x="1153" y="658"/>
      <point x="1204" y="708.5"/>
      <point x="1204" y="797" type="qcurve" smooth="yes"/>
      <point x="1204" y="1041" type="line" smooth="yes"/>
      <point x="1204" y="1131.55"/>
      <point x="1153.55" y="1182"/>
      <point x="1063" y="1182" type="qcurve" smooth="yes"/>
      <point x="826" y="1182" type="line"/>
      <point x="1007" y="1522" type="line"/>
    </contour>
  </outline>
</glyph>
<glyph name="dagger" format="2">
  <advance width="1140"/>
  <unicode hex="2020"/>
  <outline>
    <contour>
      <point x="390" y="-214" type="line"/>
      <point x="750" y="-214" type="line"/>
      <point x="750" y="682" type="line"/>
      <point x="1130" y="682" type="line"/>
      <point x="1130" y="718" type="line"/>
      <point x="750" y="718" type="line"/>
      <point x="750" y="1300" type="line"/>
      <point x="390" y="1300" type="line"/>
      <point x="390" y="718" type="line"/>
      <point x="10" y="718" type="line"/>
      <point x="10" y="682" type="line"/>
      <point x="390" y="682" type="line"/>
    </contour>
  </outline>
</glyph>
<glyph name="guilsinglright" format="2">
  <advance width="468"/>
  <unicode hex="203A"/>
  <outline>
    <contour>
      <point x="56" y="894" type="line"/>
      <point x="25" y="894" type="line"/>
      <point x="151" y="512" type="line"/>
      <point x="25" y="130" type="line"/>
      <point x="56" y="130" type="line"/>
      <point x="440" y="512" type="line"/>
    </contour>
  </outline>
</glyph>
<glyph name="franc" format="2">
  <advance width="1070"/>
  <unicode hex="20A3"/>
  <outline>
    <contour>
      <point x="80" y="0" type="line"/>
      <point x="652" y="0" type="line"/>
      <point x="652" y="434" type="line"/>
      <point x="835" y="434" type="line"/>
      <point x="835" y="470" type="line"/>
      <point x="652" y="470" type="line"/>
      <point x="652" y="698" type="line"/>
      <point x="932" y="698" type="line"/>
      <point x="932" y="734" type="line"/>
      <point x="652" y="734" type="line"/>
      <point x="652" y="1364" type="line"/>
      <point x="1052" y="1364" type="line"/>
      <point x="1052" y="1400" type="line"/>
      <point x="80" y="1400" type="line"/>
      <point x="80" y="470" type="line"/>
      <point x="35" y="470" type="line"/>
      <point x="35" y="434" type="line"/>
      <point x="80" y="434" type="line"/>
    </contour>
  </outline>
</glyph>
<glyph name="lira" format="2">
  <advance width="1375"/>
  <unicode hex="20A4"/>
  <outline>
    <contour>
      <point x="25" y="0" type="line"/>
      <point x="287" y="0" type="line" smooth="yes"/>
      <point x="381.5" y="0"/>
      <point x="533.875" y="29"/>
      <point x="641.125" y="104"/>
      <point x="699" y="233.5"/>
      <point x="699" y="334" type="qcurve" smooth="yes"/>
      <point x="699" y="1341" type="line" smooth="yes"/>
      <point x="699" y="1363.64"/>
      <point x="716.362" y="1382"/>
      <point x="739" y="1382" type="qcurve" smooth="yes"/>
      <point x="753" y="1382" type="line" smooth="yes"/>
      <point x="774.883" y="1382"/>
      <point x="793" y="1363.88"/>
      <point x="793" y="1342" type="qcurve" smooth="yes"/>
      <point x="793" y="876" type="line"/>
      <point x="1365" y="980" type="line"/>
      <point x="1365" y="1084" type="line" smooth="yes"/>
      <point x="1365" y="1285"/>
      <point x="1140" y="1418"/>
      <point x="951" y="1418" type="qcurve" smooth="yes"/>
      <point x="539" y="1418" type="line" smooth="yes"/>
      <point x="350" y="1418"/>
      <point x="127" y="1285"/>
      <point x="127" y="1084" type="qcurve" smooth="yes"/>
      <point x="127" y="86" type="line" smooth="yes"/>
      <point x="127" y="60.3436"/>
      <point x="102.656" y="36"/>
      <point x="77" y="36" type="qcurve" smooth="yes"/>
      <point x="25" y="36" type="line"/>
    </contour>
    <contour>
      <point x="25" y="0" type="line"/>
      <point x="957" y="0" type="line" smooth="yes"/>
      <point x="1156.21" y="0"/>
      <point x="1371" y="142.822"/>
      <point x="1371" y="336" type="qcurve" smooth="yes"/>
      <point x="1371" y="378" type="line"/>
      <point x="799" y="488" type="line"/>
      <point x="799" y="76" type="line" smooth="yes"/>
      <point x="799" y="54.8712"/>
      <point x="780.129" y="36"/>
      <point x="759" y="36" type="qcurve" smooth="yes"/>
      <point x="25" y="36" type="line"/>
    </contour>
    <contour>
      <point x="67" y="731" type="line"/>
      <point x="772" y="731" type="line"/>
      <point x="782" y="767" type="line"/>
      <point x="67" y="767" type="line"/>
    </contour>
    <contour>
      <point x="67" y="571" type="line"/>
      <point x="772" y="571" type="line"/>
      <point x="782" y="607" type="line"/>
      <point x="67" y="607" type="line"/>
    </contour>
  </outline>
</glyph>
<glyph name="uni20A9" format="2">
  <advance width="1830"/>
  <unicode hex="20A9"/>
  <anchor x="955" y="-150" name="bottom"/>
  <anchor x="941" y="1550" name="top"/>
  <outline>
    <contour>
      <point x="57" y="702" type="line"/>
      <point x="1783" y="702" type="line"/>
      <point x="1783" y="738" type="line"/>
      <point x="57" y="738" type="line"/>
    </contour>
    <contour>
      <point x="414" y="0" type="line"/>
      <point x="688" y="0" type="line"/>
      <point x="936" y="999" type="line"/>
      <point x="1222" y="0" type="line"/>
      <point x="1496" y="0" type="line"/>
      <point x="1830" y="1400" type="line"/>
      <point x="1793" y="1400" type="line"/>
      <point x="1612" y="637" type="line"/>
      <point x="1398" y="1400" type="line"/>
      <point x="995" y="1400" type="line"/>
      <point x="804" y="630" type="line"/>
      <point x="587" y="1400" type="line"/>
      <point x="0" y="1400" type="line"/>
    </contour>
  </outline>
</glyph>
<glyph name="uni20BA" format="2">
  <advance width="1506"/>
  <unicode hex="20BA"/>
  <outline>
    <contour>
      <point x="193" y="0" type="line"/>
      <point x="773" y="0" type="line" smooth="yes"/>
      <point x="927.125" y="0"/>
      <point x="1180.97" y="58.6875"/>
      <point x="1362.28" y="199.312"/>
      <point x="1462" y="433.5"/>
      <point x="1462" y="609" type="qcurve"/>
      <point x="884" y="716" type="line"/>
      <point x="884" y="515.375"/>
      <point x="869.906" y="252.719"/>
      <point x="842.344" y="98.0312"/>
      <point x="801.625" y="36"/>
      <point x="775" y="36" type="qcurve" smooth="yes"/>
      <point x="765" y="36" type="line"/>
      <point x="765" y="930" type="line"/>
      <point x="1053" y="1035" type="line"/>
      <point x="1053" y="1071" type="line"/>
      <point x="765" y="966" type="line"/>
      <point x="765" y="1090" type="line"/>
      <point x="1053" y="1195" type="line"/>
      <point x="1053" y="1231" type="line"/>
      <point x="765" y="1126" type="line"/>
      <point x="765" y="1400" type="line"/>
      <point x="193" y="1400" type="line"/>
      <point x="193" y="918" type="line"/>
      <point x="48" y="865" type="line"/>
      <point x="48" y="829" type="line"/>
      <point x="193" y="882" type="line"/>
      <point x="193" y="758" type="line"/>
      <point x="48" y="705" type="line"/>
      <point x="48" y="669" type="line"/>
      <point x="193" y="722" type="line"/>
    </contour>
  </outline>
</glyph>
<glyph name="onethird" format="2">
  <advance width="1378"/>
  <unicode hex="2153"/>
  <outline>
    <contour>
      <point x="126" y="614" type="line"/>
      <point x="420" y="614" type="line"/>
      <point x="420" y="1408" type="line"/>
      <point x="19" y="1353" type="line"/>
      <point x="19" y="1323" type="line"/>
      <point x="126" y="1336" type="line"/>
    </contour>
    <contour>
      <point x="830" y="1400" type="line"/>
      <point x="226" y="0" type="line"/>
      <point x="259" y="0" type="line"/>
      <point x="863" y="1400" type="line"/>
    </contour>
    <contour>
      <point x="669" y="219" type="line"/>
      <point x="669" y="174" type="line" smooth="yes"/>
      <point x="669" y="66.0922"/>
      <point x="785.129" y="-6"/>
      <point x="887" y="-6" type="qcurve" smooth="yes"/>
      <point x="1086" y="-6" type="line" smooth="yes"/>
      <point x="1188.63" y="-6"/>
      <point x="1314" y="71.8468"/>
      <point x="1314" y="179" type="qcurve" smooth="yes"/>
      <point x="1314" y="228" type="line" smooth="yes"/>
      <point x="1314" y="317.043"/>
      <point x="1242.93" y="396.209"/>
      <point x="1172" y="403" type="qcurve"/>
      <point x="1241.42" y="415.074"/>
      <point x="1304" y="491.031"/>
      <point x="1304" y="568" type="qcurve" smooth="yes"/>
      <point x="1304" y="612" type="line" smooth="yes"/>
      <point x="1304" y="698.024"/>
      <point x="1197.42" y="790"/>
      <point x="1088" y="790" type="qcurve" smooth="yes"/>
      <point x="893" y="790" type="line" smooth="yes"/>
      <point x="838.25" y="790"/>
      <point x="755.188" y="768"/>
      <point x="699.312" y="724.5"/>
      <point x="671" y="659.75"/>
      <point x="671" y="617" type="qcurve" smooth="yes"/>
      <point x="671" y="577" type="line"/>
      <point x="947" y="526" type="line"/>
      <point x="947" y="769" type="line"/>
      <point x="947" y="769"/>
      <point x="947" y="769"/>
      <point x="947" y="769" type="qcurve"/>
      <point x="978" y="769" type="line" smooth="yes"/>
      <point x="999.883" y="769"/>
      <point x="1028" y="739.883"/>
      <point x="1028" y="718" type="qcurve" smooth="yes"/>
      <point x="1028" y="454" type="line" smooth="yes"/>
      <point x="1028" y="436.644"/>
      <point x="1009.6" y="412"/>
      <point x="993" y="412" type="qcurve" smooth="yes"/>
      <point x="951" y="412" type="line"/>
      <point x="951" y="392" type="line"/>
      <point x="994" y="392" type="line" smooth="yes"/>
      <point x="1015.88" y="392"/>
      <point x="1038" y="357.147"/>
      <point x="1038" y="333" type="qcurve" smooth="yes"/>
      <point x="1038" y="63" type="line" smooth="yes"/>
      <point x="1038" y="41.1166"/>
      <point x="1005.39" y="15"/>
      <point x="982" y="15" type="qcurve" smooth="yes"/>
      <point x="945" y="15" type="line"/>
      <point x="945" y="15"/>
      <point x="945" y="15"/>
      <point x="945" y="15" type="qcurve"/>
      <point x="945" y="270" type="line"/>
    </contour>
  </outline>
  <guideline angle="90" color="0.4,0.4,0.4,1" name="halfwidth" x="689" y="0"/>
</glyph>
<glyph name="oneeighth" format="2">
  <advance width="1399"/>
  <unicode hex="215B"/>
  <outline>
    <contour>
      <point x="126" y="614" type="line"/>
      <point x="420" y="614" type="line"/>
      <point x="420" y="1408" type="line"/>
      <point x="19" y="1353" type="line"/>
      <point x="19" y="1323" type="line"/>
      <point x="126" y="1336" type="line"/>
    </contour>
    <contour>
      <point x="830" y="1400" type="line"/>
      <point x="226" y="0" type="line"/>
      <point x="259" y="0" type="line"/>
      <point x="863" y="1400" type="line"/>
    </contour>
    <contour>
      <point x="951" y="50" type="qcurve" smooth="yes"/>
      <point x="951" y="350" type="line" smooth="yes"/>
      <point x="951" y="366.601"/>
      <point x="974.644" y="386"/>
      <point x="992" y="386" type="qcurve" smooth="yes"/>
      <point x="1012" y="386" type="line" smooth="yes"/>
      <point x="1020.62" y="386"/>
      <point x="1035.59" y="380.938"/>
      <point x="1046.66" y="371.562"/>
      <point x="1053" y="358.25"/>
      <point x="1053" y="350" type="qcurve" smooth="yes"/>
      <point x="1053" y="50" type="line" smooth="yes"/>
      <point x="1053" y="34.1534"/>
      <point x="1029.36" y="15"/>
      <point x="1012" y="15" type="qcurve" smooth="yes"/>
      <point x="992" y="15" type="line" smooth="yes"/>
      <point x="974.644" y="15"/>
      <point x="951" y="34.1534"/>
    </contour>
    <contour>
      <point x="1049" y="734" type="qcurve" smooth="yes"/>
      <point x="1049" y="441" type="line" smooth="yes"/>
      <point x="1049" y="425.153"/>
      <point x="1025.6" y="406"/>
      <point x="1009" y="406" type="qcurve" smooth="yes"/>
      <point x="995" y="406" type="line" smooth="yes"/>
      <point x="977.644" y="406"/>
      <point x="955" y="425.153"/>
      <point x="955" y="441" type="qcurve" smooth="yes"/>
      <point x="955" y="734" type="line" smooth="yes"/>
      <point x="955" y="749.847"/>
      <point x="978.644" y="769"/>
      <point x="996" y="769" type="qcurve" smooth="yes"/>
      <point x="1009" y="769" type="line" smooth="yes"/>
      <point x="1025.6" y="769"/>
      <point x="1049" y="749.847"/>
    </contour>
    <contour>
      <point x="662" y="192" type="line" smooth="yes"/>
      <point x="662" y="78.0554"/>
      <point x="796.884" y="-6"/>
      <point x="898" y="-6" type="qcurve" smooth="yes"/>
      <point x="1106" y="-6" type="line" smooth="yes"/>
      <point x="1207.87" y="-6"/>
      <point x="1342" y="78.3008"/>
      <point x="1342" y="193" type="qcurve" smooth="yes"/>
      <point x="1342" y="222" type="line" smooth="yes"/>
      <point x="1342" y="317.834"/>
      <point x="1274.75" y="389.19"/>
      <point x="1234" y="399" type="qcurve"/>
      <point x="1271.73" y="408.81"/>
      <point x="1326" y="485.877"/>
      <point x="1326" y="547" type="qcurve" smooth="yes"/>
      <point x="1326" y="600" type="line" smooth="yes"/>
      <point x="1326" y="687.534"/>
      <point x="1215.68" y="790"/>
      <point x="1104" y="790" type="qcurve" smooth="yes"/>
      <point x="901" y="790" type="line" smooth="yes"/>
      <point x="788.565" y="790"/>
      <point x="678" y="687.534"/>
      <point x="678" y="600" type="qcurve" smooth="yes"/>
      <point x="678" y="547" type="line" smooth="yes"/>
      <point x="678" y="485.877"/>
      <point x="731.515" y="408.81"/>
      <point x="770" y="399" type="qcurve"/>
      <point x="729.252" y="389.19"/>
      <point x="662" y="315.834"/>
      <point x="662" y="220" type="qcurve" smooth="yes"/>
    </contour>
  </outline>
  <guideline angle="90" color="0.4,0.4,0.4,1" name="halfwidth" x="699.5" y="0"/>
</glyph>
<glyph name="arrowup" format="2">
  <advance width="586"/>
  <unicode hex="2191"/>
  <outline>
    <contour>
      <point x="273" y="0" type="line"/>
      <point x="313" y="0" type="line"/>
      <point x="313" y="705" type="line"/>
      <point x="576" y="705" type="line"/>
      <point x="293" y="1482" type="line"/>
      <point x="10" y="705" type="line"/>
      <point x="273" y="705" type="line"/>
    </contour>
  </outline>
</glyph>
<glyph name="notequal" format="2">
  <advance width="590"/>
  <unicode hex="2260"/>
  <outline>
    <contour>
      <point x="-152" y="475" type="line"/>
      <point x="-152" y="439" type="line"/>
      <point x="222" y="439" type="line"/>
      <point x="168" y="291" type="line"/>
      <point x="208" y="291" type="line"/>
      <point x="262" y="439" type="line"/>
      <point x="742" y="439" type="line"/>
      <point x="742" y="475" type="line"/>
      <point x="275" y="475" type="line"/>
      <point x="357" y="699" type="line"/>
      <point x="742" y="699" type="line"/>
      <point x="742" y="735" type="line"/>
      <point x="370" y="735" type="line"/>
      <point x="422" y="877" type="line"/>
      <point x="382" y="877" type="line"/>
      <point x="330" y="735" type="line"/>
      <point x="-152" y="735" type="line"/>
      <point x="-152" y="699" type="line"/>
      <point x="317" y="699" type="line"/>
      <point x="235" y="475" type="line"/>
    </contour>
  </outline>
</glyph>
<glyph name="uni25C1" format="2">
  <advance width="1463"/>
  <unicode hex="25C1"/>
  <outline>
    <contour>
      <point x="1463" y="-146" type="line"/>
      <point x="1463" y="1545" type="line"/>
      <point x="0" y="700" type="line"/>
    </contour>
    <contour>
      <point x="1123" y="444" type="line"/>
      <point x="679" y="700" type="line"/>
      <point x="1123" y="956" type="line"/>
    </contour>
  </outline>
</glyph>
<glyph name="uni27E8" format="2">
  <advance width="453"/>
  <unicode hex="27E8"/>
  <outline>
    <contour>
      <point x="392" y="0" type="line"/>
      <point x="427" y="0" type="line"/>
      <point x="317" y="700" type="line"/>
      <point x="428" y="1400" type="line"/>
      <point x="392" y="1400" type="line"/>
      <point x="28" y="700" type="line"/>
    </contour>
  </outline>
</glyph>
<glyph name="aeacute.sc" format="2">
  <advance width="1552"/>
  <anchor x="986" y="1236" name="top"/>
  <anchor x="766" y="-150" name="bottom"/>
  <outline>
    <contour>
      <point x="-10" y="0" type="line"/>
      <point x="27" y="0" type="line"/>
      <point x="126" y="229" type="line"/>
      <point x="651" y="229" type="line"/>
      <point x="651" y="0" type="line"/>
      <point x="1542" y="0" type="line"/>
      <point x="1542" y="33" type="line"/>
      <point x="1182" y="33" type="line"/>
      <point x="1182" y="541" type="line"/>
      <point x="1494" y="541" type="line"/>
      <point x="1494" y="574" type="line"/>
      <point x="1182" y="574" type="line"/>
      <point x="1182" y="1053" type="line"/>
      <point x="1530" y="1053" type="line"/>
      <point x="1530" y="1086" type="line"/>
      <point x="459" y="1086" type="line"/>
    </contour>
    <contour>
      <point x="140" y="262" type="line"/>
      <point x="481" y="1053" type="line"/>
      <point x="651" y="1053" type="line"/>
      <point x="651" y="262" type="line"/>
    </contour>
    <contour>
      <point x="868" y="1162" type="line"/>
      <point x="904" y="1162" type="line"/>
      <point x="1512" y="1510" type="line"/>
      <point x="961" y="1510" type="line"/>
    </contour>
  </outline>
</glyph>
<glyph name="amacron.slnt" format="2">
  <advance width="1261"/>
  <anchor x="623" y="1344" name="top"/>
  <anchor x="623" y="-162" name="bottom"/>
  <anchor x="717" y="0" name="ogonek"/>
  <outline>
    <contour>
      <point x="680" y="0" type="line"/>
      <point x="1189" y="0" type="line"/>
      <point x="1189" y="1024" type="line"/>
      <point x="680" y="1024" type="line"/>
      <point x="680" y="1006" type="line"/>
      <point x="673.963" y="1018.07"/>
      <point x="635.693" y="1030"/>
      <point x="604" y="1030" type="qcurve" smooth="yes"/>
      <point x="362" y="1030" type="line" smooth="yes"/>
      <point x="202.779" y="1030"/>
      <point x="56" y="908.055"/>
      <point x="56" y="776" type="qcurve" smooth="yes"/>
      <point x="56" y="264" type="line" smooth="yes"/>
      <point x="56" y="125.154"/>
      <point x="200.516" y="0"/>
      <point x="362" y="0" type="qcurve" smooth="yes"/>
      <point x="412" y="0" type="line" smooth="yes"/>
      <point x="498.024" y="0"/>
      <point x="625.669" y="42.7056"/>
      <point x="680" y="91" type="qcurve" smooth="yes"/>
      <point x="777" y="178" type="line"/>
      <point x="749" y="205" type="line"/>
      <point x="658" y="120" type="line" smooth="yes"/>
      <point x="640.644" y="104.153"/>
      <point x="601.883" y="77.8098"/>
      <point x="580" y="68" type="qcurve"/>
      <point x="580" y="68" type="line"/>
      <point x="580" y="68"/>
      <point x="580" y="68"/>
      <point x="580" y="68" type="qcurve"/>
      <point x="580" y="998" type="line"/>
      <point x="580" y="998"/>
      <point x="580" y="998"/>
      <point x="580" y="998" type="qcurve"/>
      <point x="680" y="998" type="line"/>
      <point x="680" y="117" type="line"/>
      <point x="680" y="117" type="line"/>
    </contour>
    <contour>
      <point x="333" y="1212" type="line"/>
      <point x="913" y="1212" type="line"/>
      <point x="913" y="1244" type="line"/>
      <point x="333" y="1244" type="line"/>
    </contour>
  </outline>
</glyph>
<glyph name="ampersand.sc" format="2">
  <advance width="1404"/>
  <outline>
    <contour>
      <point x="273" y="-8" type="qcurve" smooth="yes"/>
      <point x="452" y="-8" type="line" smooth="yes"/>
      <point x="518.405" y="-8"/>
      <point x="641.73" y="36.5768"/>
      <point x="727" y="106" type="qcurve" smooth="yes"/>
      <point x="752" y="127" type="line"/>
      <point x="859" y="0" type="line"/>
      <point x="1404" y="0" type="line"/>
      <point x="1064" y="371" type="line"/>
      <point x="1317" y="569" type="line"/>
      <point x="1296" y="594" type="line"/>
      <point x="1041" y="395" type="line"/>
      <point x="692" y="793" type="line"/>
      <point x="692" y="793"/>
      <point x="692" y="793"/>
      <point x="692" y="793" type="qcurve"/>
      <point x="692" y="1064" type="line"/>
      <point x="692" y="1064"/>
      <point x="692" y="1064"/>
      <point x="692" y="1064" type="qcurve"/>
      <point x="778" y="1064" type="line"/>
      <point x="778" y="1064"/>
      <point x="778" y="1064"/>
      <point x="778" y="1064" type="qcurve"/>
      <point x="778" y="726" type="line"/>
      <point x="1175" y="804" type="line"/>
      <point x="1175" y="868" type="line" smooth="yes"/>
      <point x="1175" y="983.454"/>
      <point x="1017.98" y="1097"/>
      <point x="898" y="1097" type="qcurve" smooth="yes"/>
      <point x="515" y="1097" type="line" smooth="yes"/>
      <point x="387.473" y="1097"/>
      <point x="246" y="976.208"/>
      <point x="246" y="860" type="qcurve" smooth="yes"/>
      <point x="246" y="831" type="line" smooth="yes"/>
      <point x="246" y="750.258"/>
      <point x="293.068" y="644.705"/>
      <point x="364" y="570" type="qcurve"/>
      <point x="154" y="406" type="line"/>
      <point x="90.6136" y="360.724"/>
      <point x="21" y="272.159"/>
      <point x="21" y="205" type="qcurve" smooth="yes"/>
      <point x="21" y="191" type="line"/>
      <point x="20.625" y="149"/>
      <point x="68.3438" y="76.3125"/>
      <point x="142.406" y="22.6875"/>
      <point x="231.75" y="-8"/>
    </contour>
    <contour>
      <point x="441" y="25" type="line"/>
      <point x="441" y="25"/>
      <point x="441" y="25"/>
      <point x="441" y="25" type="qcurve"/>
      <point x="441" y="482" type="line"/>
      <point x="441" y="482"/>
      <point x="441" y="482"/>
      <point x="441" y="482" type="qcurve"/>
      <point x="441" y="482" type="line"/>
      <point x="441" y="482"/>
      <point x="441" y="482"/>
      <point x="441" y="482" type="qcurve"/>
      <point x="730" y="150" type="line"/>
      <point x="706" y="131" type="line" smooth="yes"/>
      <point x="622.239" y="64.5952"/>
      <point x="510.104" y="25"/>
      <point x="452" y="25" type="qcurve" smooth="yes"/>
    </contour>
  </outline>
</glyph>
<glyph name="aringacute.sc" format="2">
  <advance width="1081"/>
  <anchor x="541" y="1210" name="top"/>
  <anchor x="441" y="-150" name="bottom"/>
  <anchor x="568" y="0" name="ogonek"/>
  <outline>
    <contour>
      <point x="-10" y="0" type="line"/>
      <point x="25" y="0" type="line"/>
      <point x="293" y="760" type="line"/>
      <point x="531" y="0" type="line"/>
      <point x="1091" y="0" type="line"/>
      <point x="707" y="1086" type="line"/>
      <point x="373" y="1086" type="line"/>
    </contour>
    <contour>
      <point x="79" y="226" type="line"/>
      <point x="614" y="226" type="line"/>
      <point x="609" y="259" type="line"/>
      <point x="95" y="259" type="line"/>
    </contour>
    <contour>
      <point x="277" y="1299" type="qcurve" smooth="yes"/>
      <point x="277" y="1245.75"/>
      <point x="296.781" y="1179.94"/>
      <point x="353.969" y="1143.56"/>
      <point x="457.375" y="1131"/>
      <point x="541" y="1131" type="qcurve" smooth="yes"/>
      <point x="624.625" y="1131"/>
      <point x="728.031" y="1143.56"/>
      <point x="785.219" y="1179.94"/>
      <point x="805" y="1245.75"/>
      <point x="805" y="1299" type="qcurve" smooth="yes"/>
      <point x="805" y="1352.25"/>
      <point x="785.219" y="1418.06"/>
      <point x="728.031" y="1454.44"/>
      <point x="624.625" y="1467"/>
      <point x="541" y="1467" type="qcurve" smooth="yes"/>
      <point x="457.375" y="1467"/>
      <point x="353.969" y="1454.44"/>
      <point x="296.781" y="1418.06"/>
      <point x="277" y="1352.25"/>
    </contour>
    <contour>
      <point x="491" y="1299" type="qcurve" smooth="yes"/>
      <point x="491" y="1403.89"/>
      <point x="503.27" y="1439"/>
      <point x="541" y="1439" type="qcurve" smooth="yes"/>
      <point x="578.73" y="1439"/>
      <point x="591" y="1403.89"/>
      <point x="591" y="1299" type="qcurve" smooth="yes"/>
      <point x="591" y="1194.11"/>
      <point x="578.73" y="1159"/>
      <point x="541" y="1159" type="qcurve" smooth="yes"/>
      <point x="503.27" y="1159"/>
      <point x="491" y="1194.11"/>
    </contour>
    <contour>
      <point x="559" y="1527" type="line"/>
      <point x="895" y="1743" type="line"/>
      <point x="551" y="1743" type="line"/>
      <point x="523" y="1527" type="line"/>
    </contour>
  </outline>
</glyph>
<glyph name="aringacute.slnt" format="2">
  <advance width="1261"/>
  <anchor x="623" y="1174" name="top"/>
  <anchor x="623" y="-162" name="bottom"/>
  <anchor x="717" y="0" name="ogonek"/>
  <outline>
    <contour>
      <point x="680" y="0" type="line"/>
      <point x="1189" y="0" type="line"/>
      <point x="1189" y="1024" type="line"/>
      <point x="680" y="1024" type="line"/>
      <point x="680" y="1006" type="line"/>
      <point x="673.963" y="1018.07"/>
      <point x="635.693" y="1030"/>
      <point x="604" y="1030" type="qcurve" smooth="yes"/>
      <point x="362" y="1030" type="line" smooth="yes"/>
      <point x="202.779" y="1030"/>
      <point x="56" y="908.055"/>
      <point x="56" y="776" type="qcurve" smooth="yes"/>
      <point x="56" y="264" type="line" smooth="yes"/>
      <point x="56" y="125.154"/>
      <point x="200.516" y="0"/>
      <point x="362" y="0" type="qcurve" smooth="yes"/>
      <point x="412" y="0" type="line" smooth="yes"/>
      <point x="498.024" y="0"/>
      <point x="625.669" y="42.7056"/>
      <point x="680" y="91" type="qcurve" smooth="yes"/>
      <point x="777" y="178" type="line"/>
      <point x="749" y="205" type="line"/>
      <point x="658" y="120" type="line" smooth="yes"/>
      <point x="640.644" y="104.153"/>
      <point x="601.883" y="77.8098"/>
      <point x="580" y="68" type="qcurve"/>
      <point x="580" y="68" type="line"/>
      <point x="580" y="68"/>
      <point x="580" y="68"/>
      <point x="580" y="68" type="qcurve"/>
      <point x="580" y="998" type="line"/>
      <point x="580" y="998"/>
      <point x="580" y="998"/>
      <point x="580" y="998" type="qcurve"/>
      <point x="680" y="998" type="line"/>
      <point x="680" y="117" type="line"/>
      <point x="680" y="117" type="line"/>
    </contour>
    <contour>
      <point x="359" y="1263" type="qcurve" smooth="yes"/>
      <point x="359" y="1209.75"/>
      <point x="378.781" y="1143.94"/>
      <point x="435.969" y="1107.56"/>
      <point x="539.375" y="1095"/>
      <point x="623" y="1095" type="qcurve" smooth="yes"/>
      <point x="706.625" y="1095"/>
      <point x="810.031" y="1107.56"/>
      <point x="867.219" y="1143.94"/>
      <point x="887" y="1209.75"/>
      <point x="887" y="1263" type="qcurve" smooth="yes"/>
      <point x="887" y="1316.25"/>
      <point x="867.219" y="1382.06"/>
      <point x="810.031" y="1418.44"/>
      <point x="706.625" y="1431"/>
      <point x="623" y="1431" type="qcurve" smooth="yes"/>
      <point x="539.375" y="1431"/>
      <point x="435.969" y="1418.44"/>
      <point x="378.781" y="1382.06"/>
      <point x="359" y="1316.25"/>
    </contour>
    <contour>
      <point x="573" y="1263" type="qcurve" smooth="yes"/>
      <point x="573" y="1367.89"/>
      <point x="585.27" y="1403"/>
      <point x="623" y="1403" type="qcurve" smooth="yes"/>
      <point x="660.73" y="1403"/>
      <point x="673" y="1367.89"/>
      <point x="673" y="1263" type="qcurve" smooth="yes"/>
      <point x="673" y="1158.11"/>
      <point x="660.73" y="1123"/>
      <point x="623" y="1123" type="qcurve" smooth="yes"/>
      <point x="585.27" y="1123"/>
      <point x="573" y="1158.11"/>
    </contour>
    <contour>
      <point x="641" y="1491" type="line"/>
      <point x="977" y="1707" type="line"/>
      <point x="633" y="1707" type="line"/>
      <point x="605" y="1491" type="line"/>
    </contour>
  </outline>
</glyph>
<glyph name="b.sc" format="2">
  <advance width="1262"/>
  <anchor x="648" y="1236" name="top"/>
  <anchor x="648" y="-150" name="bottom"/>
  <outline>
    <contour>
      <point x="80" y="0" type="line"/>
      <point x="894" y="0" type="line" smooth="yes"/>
      <point x="1085.25" y="0"/>
      <point x="1242" y="121.75"/>
      <point x="1242" y="259" type="qcurve" smooth="yes"/>
      <point x="1242" y="298" type="line" smooth="yes"/>
      <point x="1242" y="405.908"/>
      <point x="1159.1" y="531.626"/>
      <point x="1061" y="552" type="qcurve"/>
      <point x="1153.82" y="582.939"/>
      <point x="1229" y="695.638"/>
      <point x="1229" y="796" type="qcurve" smooth="yes"/>
      <point x="1229" y="827" type="line" smooth="yes"/>
      <point x="1229" y="895.625"/>
      <point x="1191.97" y="993.719"/>
      <point x="1109.28" y="1056.53"/>
      <point x="976.625" y="1086"/>
      <point x="881" y="1086" type="qcurve" smooth="yes"/>
      <point x="80" y="1086" type="line"/>
    </contour>
    <contour>
      <point x="611" y="33" type="line"/>
      <point x="611" y="534" type="line"/>
      <point x="655" y="534" type="line" smooth="yes"/>
      <point x="683.675" y="534"/>
      <point x="711" y="508.129"/>
      <point x="711" y="487" type="qcurve" smooth="yes"/>
      <point x="711" y="79" type="line" smooth="yes"/>
      <point x="711" y="58.6258"/>
      <point x="683.675" y="33"/>
      <point x="655" y="33" type="qcurve" smooth="yes"/>
    </contour>
    <contour>
      <point x="611" y="567" type="line"/>
      <point x="611" y="1053" type="line"/>
      <point x="645" y="1053" type="line" smooth="yes"/>
      <point x="674.429" y="1053"/>
      <point x="701" y="1027.37"/>
      <point x="701" y="1007" type="qcurve" smooth="yes"/>
      <point x="701" y="613" type="line" smooth="yes"/>
      <point x="701" y="591.871"/>
      <point x="674.429" y="567"/>
      <point x="645" y="567" type="qcurve" smooth="yes"/>
    </contour>
  </outline>
</glyph>
<glyph name="braceright.case" format="2">
  <advance width="870"/>
  <outline>
    <contour>
      <point x="641" y="1252" type="line" smooth="yes"/>
      <point x="641" y="1380.28"/>
      <point x="478.828" y="1526"/>
      <point x="343" y="1526" type="qcurve" smooth="yes"/>
      <point x="10" y="1526" type="line"/>
      <point x="10" y="1494" type="line"/>
      <point x="79" y="1494" type="line" smooth="yes"/>
      <point x="144.65" y="1494"/>
      <point x="201" y="1440.1"/>
      <point x="201" y="1382" type="qcurve" smooth="yes"/>
      <point x="201" y="953" type="line" smooth="yes"/>
      <point x="201" y="841.319"/>
      <point x="304.411" y="700.166"/>
      <point x="401" y="673" type="qcurve"/>
      <point x="304.411" y="645.834"/>
      <point x="201" y="504.681"/>
      <point x="201" y="393" type="qcurve" smooth="yes"/>
      <point x="201" y="-34" type="line" smooth="yes"/>
      <point x="201" y="-92.1042"/>
      <point x="144.65" y="-146"/>
      <point x="79" y="-146" type="qcurve" smooth="yes"/>
      <point x="10" y="-146" type="line"/>
      <point x="10" y="-178" type="line"/>
      <point x="343" y="-178" type="line" smooth="yes"/>
      <point x="478.828" y="-178"/>
      <point x="641" y="-29.828"/>
      <point x="641" y="106" type="qcurve" smooth="yes"/>
      <point x="641" y="479" type="line" smooth="yes"/>
      <point x="641" y="560.497"/>
      <point x="723.847" y="657"/>
      <point x="831" y="657" type="qcurve"/>
      <point x="831" y="689" type="line"/>
      <point x="723.847" y="689"/>
      <point x="641" y="784.749"/>
      <point x="641" y="867" type="qcurve" smooth="yes"/>
    </contour>
  </outline>
</glyph>
<glyph name="bracketright.case" format="2">
  <advance width="752"/>
  <outline>
    <contour>
      <point x="672" y="1526" type="line"/>
      <point x="10" y="1526" type="line"/>
      <point x="10" y="1494" type="line"/>
      <point x="232" y="1494" type="line"/>
      <point x="232" y="-146" type="line"/>
      <point x="10" y="-146" type="line"/>
      <point x="10" y="-178" type="line"/>
      <point x="672" y="-178" type="line"/>
    </contour>
  </outline>
</glyph>
<glyph name="bullet.case" format="2">
  <advance width="810"/>
  <outline>
    <contour>
      <point x="80" y="519" type="line" smooth="yes"/>
      <point x="80" y="428.448"/>
      <point x="130.448" y="378"/>
      <point x="221" y="378" type="qcurve" smooth="yes"/>
      <point x="589" y="378" type="line" smooth="yes"/>
      <point x="679" y="378"/>
      <point x="730" y="429"/>
      <point x="730" y="519" type="qcurve" smooth="yes"/>
      <point x="730" y="868" type="line" smooth="yes"/>
      <point x="730" y="957.797"/>
      <point x="678.552" y="1008"/>
      <point x="588" y="1008" type="qcurve" smooth="yes"/>
      <point x="221" y="1008" type="line" smooth="yes"/>
      <point x="131" y="1008"/>
      <point x="80" y="957.75"/>
      <point x="80" y="870" type="qcurve" smooth="yes"/>
    </contour>
  </outline>
</glyph>
<glyph name="eight.sinf" format="2">
  <advance width="680"/>
  <outline>
    <contour>
      <point x="289" y="-244" type="qcurve" smooth="yes"/>
      <point x="289" y="56" type="line" smooth="yes"/>
      <point x="289" y="72.6012"/>
      <point x="312.644" y="92"/>
      <point x="330" y="92" type="qcurve" smooth="yes"/>
      <point x="350" y="92" type="line" smooth="yes"/>
      <point x="358.625" y="92"/>
      <point x="373.594" y="86.9375"/>
      <point x="384.656" y="77.5625"/>
      <point x="391" y="64.25"/>
      <point x="391" y="56" type="qcurve" smooth="yes"/>
      <point x="391" y="-244" type="line" smooth="yes"/>
      <point x="391" y="-259.847"/>
      <point x="367.356" y="-279"/>
      <point x="350" y="-279" type="qcurve" smooth="yes"/>
      <point x="330" y="-279" type="line" smooth="yes"/>
      <point x="312.644" y="-279"/>
      <point x="289" y="-259.847"/>
    </contour>
    <contour>
      <point x="387" y="440" type="qcurve" smooth="yes"/>
      <point x="387" y="147" type="line" smooth="yes"/>
      <point x="387" y="131.153"/>
      <point x="363.601" y="112"/>
      <point x="347" y="112" type="qcurve" smooth="yes"/>
      <point x="333" y="112" type="line" smooth="yes"/>
      <point x="315.644" y="112"/>
      <point x="293" y="131.153"/>
      <point x="293" y="147" type="qcurve" smooth="yes"/>
      <point x="293" y="440" type="line" smooth="yes"/>
      <point x="293" y="455.847"/>
      <point x="316.644" y="475"/>
      <point x="334" y="475" type="qcurve" smooth="yes"/>
      <point x="347" y="475" type="line" smooth="yes"/>
      <point x="363.601" y="475"/>
      <point x="387" y="455.847"/>
    </contour>
    <contour>
      <point x="0" y="-102" type="line" smooth="yes"/>
      <point x="0" y="-215.945"/>
      <point x="134.884" y="-300"/>
      <point x="236" y="-300" type="qcurve" smooth="yes"/>
      <point x="444" y="-300" type="line" smooth="yes"/>
      <point x="545.871" y="-300"/>
      <point x="680" y="-215.699"/>
      <point x="680" y="-101" type="qcurve" smooth="yes"/>
      <point x="680" y="-72" type="line" smooth="yes"/>
      <point x="680" y="23.8342"/>
      <point x="612.748" y="95.1902"/>
      <point x="572" y="105" type="qcurve"/>
      <point x="609.73" y="114.81"/>
      <point x="664" y="191.877"/>
      <point x="664" y="253" type="qcurve" smooth="yes"/>
      <point x="664" y="306" type="line" smooth="yes"/>
      <point x="664" y="393.534"/>
      <point x="553.681" y="496"/>
      <point x="442" y="496" type="qcurve" smooth="yes"/>
      <point x="239" y="496" type="line" smooth="yes"/>
      <point x="126.565" y="496"/>
      <point x="16" y="393.534"/>
      <point x="16" y="306" type="qcurve" smooth="yes"/>
      <point x="16" y="253" type="line" smooth="yes"/>
      <point x="16" y="191.877"/>
      <point x="69.5154" y="114.81"/>
      <point x="108" y="105" type="qcurve"/>
      <point x="67.2516" y="95.1902"/>
      <point x="0" y="21.8342"/>
      <point x="0" y="-74" type="qcurve" smooth="yes"/>
    </contour>
  </outline>
</glyph>
<glyph name="five.dnom" format="2">
  <advance width="580"/>
  <outline>
    <contour>
      <point x="225" y="-7" type="qcurve" smooth="yes"/>
      <point x="282.375" y="-7"/>
      <point x="404.219" y="1.1875"/>
      <point x="504.531" y="45.8125"/>
      <point x="569" y="141"/>
      <point x="569" y="228" type="qcurve" smooth="yes"/>
      <point x="569" y="309.75"/>
      <point x="510.969" y="400.188"/>
      <point x="420.781" y="443.312"/>
      <point x="311.375" y="452"/>
      <point x="260" y="452" type="qcurve" smooth="yes"/>
      <point x="189.822" y="452"/>
      <point x="90.5214" y="427.62"/>
      <point x="46" y="408" type="qcurve"/>
      <point x="57" y="545" type="line"/>
      <point x="443" y="545" type="line"/>
      <point x="488" y="784" type="line"/>
      <point x="46" y="784" type="line"/>
      <point x="12" y="357" type="line"/>
      <point x="52.7484" y="380.393"/>
      <point x="145.233" y="414"/>
      <point x="189" y="414" type="qcurve" smooth="yes"/>
      <point x="213.75" y="414"/>
      <point x="246.812" y="399.438"/>
      <point x="266.688" y="361.562"/>
      <point x="275" y="296"/>
      <point x="275" y="245" type="qcurve" smooth="yes"/>
      <point x="275" y="104.644"/>
      <point x="223.767" y="25"/>
      <point x="180" y="25" type="qcurve" smooth="yes"/>
      <point x="149.816" y="25"/>
      <point x="44.957" y="48.6442"/>
      <point x="11" y="66" type="qcurve"/>
      <point x="20" y="26" type="line"/>
      <point x="45.6564" y="16.1902"/>
      <point x="148.785" y="-7"/>
    </contour>
  </outline>
</glyph>
<glyph name="five.numr" format="2">
  <advance width="580"/>
  <outline>
    <contour>
      <point x="225" y="614" type="qcurve" smooth="yes"/>
      <point x="282.375" y="614"/>
      <point x="404.219" y="622.188"/>
      <point x="504.531" y="666.812"/>
      <point x="569" y="762"/>
      <point x="569" y="849" type="qcurve" smooth="yes"/>
      <point x="569" y="930.75"/>
      <point x="510.969" y="1021.19"/>
      <point x="420.781" y="1064.31"/>
      <point x="311.375" y="1073"/>
      <point x="260" y="1073" type="qcurve" smooth="yes"/>
      <point x="189.822" y="1073"/>
      <point x="90.5214" y="1048.62"/>
      <point x="46" y="1029" type="qcurve"/>
      <point x="57" y="1166" type="line"/>
      <point x="443" y="1166" type="line"/>
      <point x="488" y="1405" type="line"/>
      <point x="46" y="1405" type="line"/>
      <point x="12" y="978" type="line"/>
      <point x="52.7484" y="1001.39"/>
      <point x="145.233" y="1035"/>
      <point x="189" y="1035" type="qcurve" smooth="yes"/>
      <point x="213.75" y="1035"/>
      <point x="246.812" y="1020.44"/>
      <point x="266.688" y="982.562"/>
      <point x="275" y="917"/>
      <point x="275" y="866" type="qcurve" smooth="yes"/>
      <point x="275" y="725.644"/>
      <point x="223.767" y="646"/>
      <point x="180" y="646" type="qcurve" smooth="yes"/>
      <point x="149.816" y="646"/>
      <point x="44.957" y="669.644"/>
      <point x="11" y="687" type="qcurve"/>
      <point x="20" y="647" type="line"/>
      <point x="45.6564" y="637.19"/>
      <point x="148.785" y="614"/>
    </contour>
  </outline>
</glyph>
<glyph name="five.sinf" format="2">
  <advance width="580"/>
  <outline>
    <contour>
      <point x="225" y="-300" type="qcurve" smooth="yes"/>
      <point x="282.375" y="-300"/>
      <point x="404.219" y="-291.812"/>
      <point x="504.531" y="-247.188"/>
      <point x="569" y="-152"/>
      <point x="569" y="-65" type="qcurve" smooth="yes"/>
      <point x="569" y="16.75"/>
      <point x="510.969" y="107.188"/>
      <point x="420.781" y="150.312"/>
      <point x="311.375" y="159"/>
      <point x="260" y="159" type="qcurve" smooth="yes"/>
      <point x="189.822" y="159"/>
      <point x="90.5214" y="134.62"/>
      <point x="46" y="115" type="qcurve"/>
      <point x="57" y="252" type="line"/>
      <point x="443" y="252" type="line"/>
      <point x="488" y="491" type="line"/>
      <point x="46" y="491" type="line"/>
      <point x="12" y="64" type="line"/>
      <point x="52.7484" y="87.3926"/>
      <point x="145.233" y="121"/>
      <point x="189" y="121" type="qcurve" smooth="yes"/>
      <point x="213.75" y="121"/>
      <point x="246.812" y="106.438"/>
      <point x="266.688" y="68.5625"/>
      <point x="275" y="3"/>
      <point x="275" y="-48" type="qcurve" smooth="yes"/>
      <point x="275" y="-188.356"/>
      <point x="223.767" y="-268"/>
      <point x="180" y="-268" type="qcurve" smooth="yes"/>
      <point x="149.816" y="-268"/>
      <point x="44.957" y="-244.356"/>
      <point x="11" y="-227" type="qcurve"/>
      <point x="20" y="-267" type="line"/>
      <point x="45.6564" y="-276.81"/>
      <point x="148.785" y="-300"/>
    </contour>
  </outline>
</glyph>
<glyph name="five.sups" format="2">
  <advance width="580"/>
  <outline>
    <contour>
      <point x="225" y="950" type="qcurve" smooth="yes"/>
      <point x="282.375" y="950"/>
      <point x="404.219" y="958.188"/>
      <point x="504.531" y="1002.81"/>
      <point x="569" y="1098"/>
      <point x="569" y="1185" type="qcurve" smooth="yes"/>
      <point x="569" y="1266.75"/>
      <point x="510.969" y="1357.19"/>
      <point x="420.781" y="1400.31"/>
      <point x="311.375" y="1409"/>
      <point x="260" y="1409" type="qcurve" smooth="yes"/>
      <point x="189.822" y="1409"/>
      <point x="90.5214" y="1384.62"/>
      <point x="46" y="1365" type="qcurve"/>
      <point x="57" y="1502" type="line"/>
      <point x="443" y="1502" type="line"/>
      <point x="488" y="1741" type="line"/>
      <point x="46" y="1741" type="line"/>
      <point x="12" y="1314" type="line"/>
      <point x="52.7484" y="1337.39"/>
      <point x="145.233" y="1371"/>
      <point x="189" y="1371" type="qcurve" smooth="yes"/>
      <point x="213.75" y="1371"/>
      <point x="246.812" y="1356.44"/>
      <point x="266.688" y="1318.56"/>
      <point x="275" y="1253"/>
      <point x="275" y="1202" type="qcurve" smooth="yes"/>
      <point x="275" y="1061.64"/>
      <point x="223.767" y="982"/>
      <point x="180" y="982" type="qcurve" smooth="yes"/>
      <point x="149.816" y="982"/>
      <point x="44.957" y="1005.64"/>
      <point x="11" y="1023" type="qcurve"/>
      <point x="20" y="983" type="line"/>
      <point x="45.6564" y="973.19"/>
      <point x="148.785" y="950"/>
    </contour>
  </outline>
</glyph>
<glyph name="four.sups" format="2">
  <advance width="740"/>
  <outline>
    <contour>
      <point x="8" y="1145" type="line"/>
      <point x="345" y="1145" type="line"/>
      <point x="345" y="950" type="line"/>
      <point x="639" y="950" type="line"/>
      <point x="639" y="1145" type="line"/>
      <point x="699" y="1145" type="line"/>
      <point x="699" y="1175" type="line"/>
      <point x="639" y="1175" type="line"/>
      <point x="639" y="1734" type="line"/>
      <point x="466" y="1734" type="line"/>
      <point x="8" y="1170" type="line"/>
    </contour>
    <contour>
      <point x="51" y="1175" type="line"/>
      <point x="345" y="1537" type="line"/>
      <point x="345" y="1175" type="line"/>
    </contour>
  </outline>
</glyph>
<glyph name="g.sc" format="2">
  <advance width="1265"/>
  <anchor x="638" y="1236" name="top"/>
  <anchor x="638" y="-150" name="bottom"/>
  <outline>
    <contour>
      <point x="64" y="835" type="qcurve" smooth="yes"/>
      <point x="64" y="261" type="line" smooth="yes"/>
      <point x="64" y="100.27"/>
      <point x="255.197" y="-8"/>
      <point x="428" y="-8" type="qcurve" smooth="yes"/>
      <point x="845" y="-8" type="line" smooth="yes"/>
      <point x="1017.05" y="-8"/>
      <point x="1211" y="99.5156"/>
      <point x="1211" y="261" type="qcurve" smooth="yes"/>
      <point x="1211" y="543" type="line"/>
      <point x="666" y="543" type="line"/>
      <point x="666" y="510" type="line"/>
      <point x="721" y="510" type="line"/>
      <point x="721" y="25" type="line"/>
      <point x="721" y="25"/>
      <point x="721" y="25"/>
      <point x="721" y="25" type="qcurve"/>
      <point x="595" y="25" type="line"/>
      <point x="595" y="25"/>
      <point x="595" y="25"/>
      <point x="595" y="25" type="qcurve"/>
      <point x="595" y="1061" type="line"/>
      <point x="595" y="1061"/>
      <point x="595" y="1061"/>
      <point x="595" y="1061" type="qcurve"/>
      <point x="675" y="1061" type="line"/>
      <point x="675" y="1061"/>
      <point x="675" y="1061"/>
      <point x="675" y="1061" type="qcurve"/>
      <point x="675" y="703" type="line"/>
      <point x="1206" y="783" type="line"/>
      <point x="1206" y="835" type="line" smooth="yes"/>
      <point x="1206" y="991"/>
      <point x="1007.75" y="1094"/>
      <point x="839" y="1094" type="qcurve" smooth="yes"/>
      <point x="428" y="1094" type="line" smooth="yes"/>
      <point x="259.25" y="1094"/>
      <point x="64" y="991"/>
    </contour>
  </outline>
</glyph>
<glyph name="guilsinglright.case" format="2">
  <advance width="468"/>
  <outline>
    <contour>
      <point x="56" y="982" type="line"/>
      <point x="25" y="982" type="line"/>
      <point x="151" y="600" type="line"/>
      <point x="25" y="218" type="line"/>
      <point x="56" y="218" type="line"/>
      <point x="440" y="600" type="line"/>
    </contour>
  </outline>
</glyph>
<glyph name="hookabovecomb.case" format="2">
  <anchor x="0" y="1174" name="_top"/>
  <anchor x="-110" y="1100" name="_topright"/>
  <outline>
    <contour>
      <point x="-110" y="1100" type="qcurve"/>
      <point x="29" y="1100" type="line"/>
      <point x="104.46" y="1135.47"/>
      <point x="202" y="1236.98"/>
      <point x="202" y="1323" type="qcurve" smooth="yes"/>
      <point x="202" y="1401.48"/>
      <point x="85.8526" y="1502"/>
      <point x="-13" y="1502" type="qcurve" smooth="yes"/>
      <point x="-71.1042" y="1502"/>
      <point x="-174.362" y="1457.62"/>
      <point x="-197" y="1438" type="qcurve"/>
      <point x="-179" y="1411" type="line"/>
      <point x="-169.19" y="1419.3"/>
      <point x="-147.847" y="1433"/>
      <point x="-132" y="1433" type="qcurve" smooth="yes"/>
      <point x="-101.061" y="1433"/>
      <point x="-75" y="1352.54"/>
      <point x="-75" y="1305" type="qcurve" smooth="yes"/>
      <point x="-75" y="1261.23"/>
      <point x="-91.135" y="1155.84"/>
    </contour>
  </outline>
</glyph>
<glyph name="itilde.sc" format="2">
  <advance width="691"/>
  <anchor x="346" y="1593" name="top"/>
  <anchor x="346" y="-150" name="bottom"/>
  <anchor x="117" y="0" name="ogonek"/>
  <outline>
    <contour>
      <point x="80" y="0" type="line"/>
      <point x="611" y="0" type="line"/>
      <point x="611" y="1086" type="line"/>
      <point x="80" y="1086" type="line"/>
    </contour>
    <contour>
      <point x="6" y="1191" type="qcurve"/>
      <point x="36" y="1186" type="line"/>
      <point x="41.2822" y="1205.62"/>
      <point x="72.6872" y="1257"/>
      <point x="124" y="1257" type="qcurve" smooth="yes"/>
      <point x="157.375" y="1257"/>
      <point x="240" y="1230.75"/>
      <point x="330" y="1199.25"/>
      <point x="423.125" y="1173"/>
      <point x="467" y="1173" type="qcurve" smooth="yes"/>
      <point x="578" y="1173"/>
      <point x="666.5" y="1355.25"/>
      <point x="686" y="1500" type="qcurve"/>
      <point x="656" y="1505" type="line"/>
      <point x="650.718" y="1485.38"/>
      <point x="619.313" y="1434"/>
      <point x="568" y="1434" type="qcurve" smooth="yes"/>
      <point x="534.625" y="1434"/>
      <point x="452.281" y="1460.25"/>
      <point x="362.469" y="1491.75"/>
      <point x="269.25" y="1518"/>
      <point x="225" y="1518" type="qcurve" smooth="yes"/>
      <point x="114" y="1518"/>
      <point x="25.5" y="1347.75"/>
    </contour>
  </outline>
  <guideline angle="90" x="6" y="0"/>
  <guideline angle="90" x="686" y="0"/>
  <guideline angle="90" x="36" y="0"/>
  <guideline angle="90" x="656" y="0"/>
</glyph>
<glyph name="nacute.sc" format="2">
  <advance width="1047"/>
  <anchor x="524" y="1236" name="top"/>
  <anchor x="524" y="-150" name="bottom"/>
  <outline>
    <contour>
      <point x="80" y="0" type="line"/>
      <point x="113" y="0" type="line"/>
      <point x="113" y="568" type="line"/>
      <point x="802" y="0" type="line"/>
      <point x="967" y="0" type="line"/>
      <point x="967" y="1086" type="line"/>
      <point x="934" y="1086" type="line"/>
      <point x="934" y="511" type="line"/>
      <point x="241" y="1086" type="line"/>
      <point x="80" y="1086" type="line"/>
    </contour>
    <contour>
      <point x="406" y="1162" type="line"/>
      <point x="442" y="1162" type="line"/>
      <point x="1050" y="1510" type="line"/>
      <point x="499" y="1510" type="line"/>
    </contour>
  </outline>
</glyph>
